<svg width="112" height="56" viewBox="0 0 112 56" fill="none" xmlns="http://www.w3.org/2000/svg">
<path d="M29.5291 30.0573C29.3885 31.2604 28.9432 32.1901 28.1932 32.8464C27.4484 33.4974 26.4562 33.8229 25.2166 33.8229C23.8728 33.8229 22.7947 33.3411 21.9822 32.3776C21.1749 31.4141 20.7713 30.125 20.7713 28.5104V27.4167C20.7713 26.3594 20.9588 25.4297 21.3338 24.6276C21.714 23.8255 22.2505 23.2109 22.9432 22.7839C23.6359 22.3516 24.438 22.1354 25.3494 22.1354C26.5577 22.1354 27.5265 22.474 28.2557 23.151C28.9848 23.8229 29.4093 24.7552 29.5291 25.9479H28.0213C27.8911 25.0417 27.6072 24.3854 27.1697 23.9792C26.7374 23.5729 26.1307 23.3698 25.3494 23.3698C24.3911 23.3698 23.6385 23.724 23.0916 24.4323C22.5499 25.1406 22.2791 26.1484 22.2791 27.4557V28.5573C22.2791 29.7917 22.5369 30.7734 23.0525 31.5026C23.5682 32.2318 24.2895 32.5964 25.2166 32.5964C26.0499 32.5964 26.688 32.4089 27.1307 32.0339C27.5786 31.6536 27.8755 30.9948 28.0213 30.0573H29.5291ZM31.4144 29.362C31.4144 28.5339 31.5759 27.7891 31.8988 27.1276C32.2269 26.4661 32.68 25.9557 33.2582 25.5964C33.8415 25.237 34.5056 25.0573 35.2503 25.0573C36.4014 25.0573 37.3311 25.4557 38.0394 26.2526C38.753 27.0495 39.1097 28.1094 39.1097 29.4323V29.5339C39.1097 30.3568 38.9509 31.0964 38.6332 31.7526C38.3207 32.4036 37.8701 32.9115 37.2816 33.276C36.6983 33.6406 36.0264 33.8229 35.266 33.8229C34.1201 33.8229 33.1905 33.4245 32.4769 32.6276C31.7686 31.8307 31.4144 30.776 31.4144 29.4635V29.362ZM32.8675 29.5339C32.8675 30.4714 33.0837 31.224 33.516 31.7917C33.9535 32.3594 34.5368 32.6432 35.266 32.6432C36.0003 32.6432 36.5837 32.3568 37.016 31.7839C37.4483 31.2057 37.6644 30.3984 37.6644 29.362C37.6644 28.4349 37.4431 27.6849 37.0003 27.112C36.5628 26.5339 35.9795 26.2448 35.2503 26.2448C34.5368 26.2448 33.9613 26.5286 33.5238 27.0964C33.0863 27.6641 32.8675 28.4766 32.8675 29.5339ZM42.7294 25.2135L42.7763 26.276C43.4221 25.4635 44.2659 25.0573 45.3075 25.0573C47.094 25.0573 47.995 26.0651 48.0107 28.0807V33.6667H46.5653V28.0729C46.5601 27.4635 46.4195 27.013 46.1435 26.7214C45.8726 26.4297 45.4482 26.2839 44.87 26.2839C44.4013 26.2839 43.9898 26.4089 43.6357 26.6589C43.2815 26.9089 43.0054 27.237 42.8075 27.6432V33.6667H41.3622V25.2135H42.7294ZM51.1147 33.6667V26.3307H49.7788V25.2135H51.1147V24.4948C51.1147 23.5521 51.383 22.8177 51.9194 22.2917C52.4611 21.7656 53.2241 21.5026 54.2085 21.5026C54.7918 21.5026 55.5288 21.6615 56.4194 21.9792L56.1772 23.1979C55.5262 22.9375 54.9064 22.8073 54.3178 22.8073C53.6981 22.8073 53.2501 22.9479 52.9741 23.2292C52.7033 23.5052 52.5678 23.9219 52.5678 24.4792V25.2135H54.2944V26.3307H52.5678V33.6667H51.1147ZM57.1382 33.6667H55.685V25.2135H57.1382V33.6667ZM59.586 29.3698C59.586 28.0521 59.8907 27.0052 60.5 26.2292C61.1094 25.4479 61.9167 25.0573 62.9219 25.0573C63.9532 25.0573 64.7578 25.4219 65.336 26.151L65.4063 25.2135H66.7266V33.4635C66.7266 34.5573 66.4011 35.4193 65.75 36.0495C65.1042 36.6797 64.2344 36.9948 63.1407 36.9948C62.5313 36.9948 61.9349 36.8646 61.3516 36.6042C60.7683 36.3437 60.323 35.987 60.0157 35.5339L60.7657 34.6667C61.3855 35.4323 62.1433 35.8151 63.0391 35.8151C63.7422 35.8151 64.2891 35.6172 64.6797 35.2214C65.0756 34.8255 65.2735 34.2682 65.2735 33.5495V32.8229C64.6953 33.4896 63.9063 33.8229 62.9063 33.8229C61.9167 33.8229 61.1146 33.4245 60.5 32.6276C59.8907 31.8307 59.586 30.7448 59.586 29.3698ZM61.0391 29.5339C61.0391 30.487 61.2344 31.237 61.625 31.7839C62.0157 32.3255 62.5625 32.5964 63.2657 32.5964C64.1771 32.5964 64.8464 32.1823 65.2735 31.3542V27.4948C64.8308 26.6875 64.1667 26.2839 63.2813 26.2839C62.5782 26.2839 62.0287 26.5573 61.6328 27.1042C61.237 27.651 61.0391 28.4609 61.0391 29.5339ZM74.5728 32.8307C74.0103 33.4922 73.1848 33.8229 72.0963 33.8229C71.1952 33.8229 70.5077 33.5625 70.0338 33.0417C69.565 32.5156 69.3281 31.7396 69.3228 30.7135V25.2135H70.7682V30.6745C70.7682 31.9557 71.289 32.5964 72.3307 32.5964C73.4348 32.5964 74.1692 32.1849 74.5338 31.362V25.2135H75.9791V33.6667H74.6041L74.5728 32.8307ZM82.7082 26.5104C82.4894 26.474 82.2524 26.4557 81.9972 26.4557C81.0493 26.4557 80.4061 26.8594 80.0675 27.6667V33.6667H78.6222V25.2135H80.0285L80.0519 26.1901C80.5259 25.4349 81.1977 25.0573 82.0675 25.0573C82.3488 25.0573 82.5623 25.0937 82.7082 25.1667V26.5104ZM87.8357 33.8229C86.6898 33.8229 85.7575 33.4479 85.0388 32.6979C84.32 31.9427 83.9607 30.9349 83.9607 29.6745V29.4089C83.9607 28.5703 84.1195 27.8229 84.4372 27.1667C84.7601 26.5052 85.2081 25.9896 85.781 25.6198C86.3591 25.2448 86.9841 25.0573 87.656 25.0573C88.7549 25.0573 89.6091 25.4193 90.2185 26.1432C90.8279 26.8672 91.1325 27.9036 91.1325 29.2526V29.8542H85.406C85.4268 30.6875 85.669 31.362 86.1325 31.8776C86.6013 32.388 87.195 32.6432 87.9138 32.6432C88.4242 32.6432 88.8565 32.5391 89.2107 32.3307C89.5648 32.1224 89.8747 31.8464 90.1404 31.5026L91.0232 32.1901C90.3148 33.2786 89.2523 33.8229 87.8357 33.8229ZM87.656 26.2448C87.0726 26.2448 86.5831 26.4583 86.1872 26.8854C85.7914 27.3073 85.5466 27.901 85.4529 28.6667H89.6872V28.5573C89.6456 27.8229 89.4476 27.2552 89.0935 26.8542C88.7393 26.4479 88.2601 26.2448 87.656 26.2448Z" fill="#5E6366"/>
</svg>
