<svg width="260" height="56" viewBox="0 0 260 56" fill="none" xmlns="http://www.w3.org/2000/svg">
<path d="M55.2988 43.6667H53.5176L53.5293 42.7467H55.2988C55.9082 42.7467 56.416 42.6198 56.8223 42.3659C57.2285 42.1081 57.5332 41.7487 57.7363 41.2878C57.9434 40.8229 58.0469 40.28 58.0469 39.6589V39.1374C58.0469 38.6491 57.9883 38.2155 57.8711 37.8366C57.7539 37.4538 57.582 37.1315 57.3555 36.8698C57.1289 36.6042 56.8516 36.403 56.5234 36.2663C56.1992 36.1296 55.8262 36.0612 55.4043 36.0612H53.4824V35.1354H55.4043C55.9629 35.1354 56.4727 35.2292 56.9336 35.4167C57.3945 35.6003 57.791 35.8678 58.123 36.2194C58.459 36.5671 58.7168 36.9889 58.8965 37.485C59.0762 37.9772 59.166 38.5319 59.166 39.1491V39.6589C59.166 40.276 59.0762 40.8327 58.8965 41.3288C58.7168 41.821 58.457 42.2409 58.1172 42.5885C57.7812 42.9362 57.375 43.2038 56.8984 43.3913C56.4258 43.5749 55.8926 43.6667 55.2988 43.6667ZM54.1211 35.1354V43.6667H52.9902V35.1354H54.1211ZM62.2789 37.3268V43.6667H61.1891V37.3268H62.2789ZM61.107 35.6452C61.107 35.4694 61.1598 35.321 61.2652 35.1999C61.3746 35.0788 61.5348 35.0182 61.7457 35.0182C61.9527 35.0182 62.1109 35.0788 62.2203 35.1999C62.3336 35.321 62.3902 35.4694 62.3902 35.6452C62.3902 35.8132 62.3336 35.9577 62.2203 36.0788C62.1109 36.196 61.9527 36.2546 61.7457 36.2546C61.5348 36.2546 61.3746 36.196 61.2652 36.0788C61.1598 35.9577 61.107 35.8132 61.107 35.6452ZM68.1105 41.985C68.1105 41.8288 68.0754 41.6842 68.0051 41.5514C67.9387 41.4147 67.8 41.2917 67.5891 41.1823C67.382 41.069 67.0695 40.9714 66.6516 40.8893C66.3 40.8151 65.9816 40.7272 65.6965 40.6257C65.4152 40.5241 65.175 40.401 64.9758 40.2565C64.7805 40.112 64.6301 39.9421 64.5246 39.7467C64.4191 39.5514 64.3664 39.3229 64.3664 39.0612C64.3664 38.8112 64.4211 38.5749 64.5305 38.3522C64.6438 38.1296 64.802 37.9323 65.0051 37.7604C65.2121 37.5885 65.4602 37.4538 65.7492 37.3561C66.0383 37.2585 66.3605 37.2096 66.716 37.2096C67.2238 37.2096 67.6574 37.2995 68.0168 37.4792C68.3762 37.6589 68.6516 37.8991 68.843 38.1999C69.0344 38.4967 69.1301 38.8268 69.1301 39.1901H68.0461C68.0461 39.0143 67.9934 38.8444 67.8879 38.6803C67.7863 38.5124 67.6359 38.3737 67.4367 38.2643C67.2414 38.155 67.0012 38.1003 66.716 38.1003C66.4152 38.1003 66.1711 38.1471 65.9836 38.2409C65.8 38.3307 65.6652 38.446 65.5793 38.5866C65.4973 38.7272 65.4563 38.8757 65.4563 39.0319C65.4563 39.1491 65.4758 39.2546 65.5148 39.3483C65.5578 39.4382 65.632 39.5221 65.7375 39.6003C65.843 39.6745 65.9914 39.7448 66.1828 39.8112C66.3742 39.8776 66.6184 39.944 66.9152 40.0104C67.4348 40.1276 67.8625 40.2682 68.1984 40.4323C68.5344 40.5964 68.7844 40.7975 68.9484 41.0358C69.1125 41.2741 69.1945 41.5632 69.1945 41.903C69.1945 42.1803 69.1359 42.4342 69.0188 42.6647C68.9055 42.8952 68.7395 43.0944 68.5207 43.2624C68.3059 43.4264 68.048 43.5553 67.7473 43.6491C67.4504 43.7389 67.1164 43.7839 66.7453 43.7839C66.1867 43.7839 65.7141 43.6842 65.3273 43.485C64.9406 43.2858 64.6477 43.028 64.4484 42.7116C64.2492 42.3952 64.1496 42.0612 64.1496 41.7096H65.2395C65.2551 42.0065 65.341 42.2428 65.4973 42.4186C65.6535 42.5905 65.8449 42.7135 66.0715 42.7878C66.298 42.8581 66.5227 42.8932 66.7453 42.8932C67.0422 42.8932 67.2902 42.8542 67.4895 42.776C67.6926 42.6979 67.8469 42.5905 67.9523 42.4538C68.0578 42.3171 68.1105 42.1608 68.1105 41.985ZM72.1023 38.5456V46.1042H71.0125V37.3268H72.0086L72.1023 38.5456ZM76.3738 40.444V40.5671C76.3738 41.028 76.3191 41.4557 76.2098 41.8503C76.1004 42.2409 75.9402 42.5807 75.7293 42.8698C75.5223 43.1589 75.2664 43.3835 74.9617 43.5436C74.657 43.7038 74.3074 43.7839 73.9129 43.7839C73.5105 43.7839 73.1551 43.7175 72.8465 43.5846C72.5379 43.4518 72.2762 43.2585 72.0613 43.0046C71.8465 42.7507 71.6746 42.446 71.5457 42.0905C71.4207 41.735 71.3348 41.3346 71.2879 40.8893V40.2331C71.3348 39.7643 71.4227 39.3444 71.5516 38.9733C71.6805 38.6022 71.8504 38.2858 72.0613 38.0241C72.2762 37.7585 72.5359 37.5573 72.8406 37.4206C73.1453 37.28 73.4969 37.2096 73.8953 37.2096C74.2938 37.2096 74.6473 37.2878 74.9559 37.444C75.2645 37.5964 75.5242 37.8151 75.7352 38.1003C75.9461 38.3854 76.1043 38.7272 76.2098 39.1257C76.3191 39.5202 76.3738 39.9596 76.3738 40.444ZM75.284 40.5671V40.444C75.284 40.1276 75.2508 39.8307 75.1844 39.5534C75.118 39.2721 75.0145 39.026 74.8738 38.8151C74.7371 38.6003 74.5613 38.4323 74.3465 38.3112C74.1316 38.1862 73.8758 38.1237 73.5789 38.1237C73.3055 38.1237 73.0672 38.1706 72.8641 38.2643C72.6648 38.3581 72.4949 38.485 72.3543 38.6452C72.2137 38.8014 72.0984 38.9811 72.0086 39.1842C71.9227 39.3835 71.8582 39.5905 71.8152 39.8053V41.3229C71.8934 41.5964 72.0027 41.8542 72.1434 42.0964C72.284 42.3346 72.4715 42.528 72.7059 42.6764C72.9402 42.821 73.2352 42.8932 73.5906 42.8932C73.8836 42.8932 74.1355 42.8327 74.3465 42.7116C74.5613 42.5866 74.7371 42.4167 74.8738 42.2018C75.0145 41.987 75.118 41.7409 75.1844 41.4635C75.2508 41.1823 75.284 40.8835 75.284 40.5671ZM79.3344 34.6667V43.6667H78.2445V34.6667H79.3344ZM85.2129 42.5827V39.319C85.2129 39.069 85.1621 38.8522 85.0605 38.6686C84.9629 38.4811 84.8145 38.3366 84.6152 38.235C84.416 38.1335 84.1699 38.0827 83.877 38.0827C83.6035 38.0827 83.3633 38.1296 83.1562 38.2233C82.9531 38.3171 82.793 38.4401 82.6758 38.5925C82.5625 38.7448 82.5059 38.9089 82.5059 39.0846H81.4219C81.4219 38.8581 81.4805 38.6335 81.5977 38.4108C81.7148 38.1882 81.8828 37.987 82.1016 37.8073C82.3242 37.6237 82.5898 37.4792 82.8984 37.3737C83.2109 37.2643 83.5586 37.2096 83.9414 37.2096C84.4023 37.2096 84.8086 37.2878 85.1602 37.444C85.5156 37.6003 85.793 37.8366 85.9922 38.153C86.1953 38.4655 86.2969 38.8581 86.2969 39.3307V42.2839C86.2969 42.4948 86.3145 42.7194 86.3496 42.9577C86.3887 43.196 86.4453 43.401 86.5195 43.5729V43.6667H85.3887C85.334 43.5417 85.291 43.3757 85.2598 43.1686C85.2285 42.9577 85.2129 42.7624 85.2129 42.5827ZM85.4004 39.8229L85.4121 40.5846H84.3164C84.0078 40.5846 83.7324 40.61 83.4902 40.6608C83.248 40.7077 83.0449 40.78 82.8809 40.8776C82.7168 40.9753 82.5918 41.0983 82.5059 41.2467C82.4199 41.3913 82.377 41.5612 82.377 41.7565C82.377 41.9557 82.4219 42.1374 82.5117 42.3014C82.6016 42.4655 82.7363 42.5964 82.916 42.694C83.0996 42.7878 83.3242 42.8346 83.5898 42.8346C83.9219 42.8346 84.2148 42.7643 84.4688 42.6237C84.7227 42.4831 84.9238 42.3112 85.0723 42.1081C85.2246 41.905 85.3066 41.7077 85.3184 41.5163L85.7812 42.0378C85.7539 42.2018 85.6797 42.3835 85.5586 42.5827C85.4375 42.7819 85.2754 42.9733 85.0723 43.1569C84.873 43.3366 84.6348 43.487 84.3574 43.6081C84.084 43.7253 83.7754 43.7839 83.4316 43.7839C83.002 43.7839 82.625 43.6999 82.3008 43.5319C81.9805 43.3639 81.7305 43.1393 81.5508 42.8581C81.375 42.5729 81.2871 42.2546 81.2871 41.903C81.2871 41.5632 81.3535 41.2643 81.4863 41.0065C81.6191 40.7448 81.8105 40.528 82.0605 40.3561C82.3105 40.1803 82.6113 40.0475 82.9629 39.9577C83.3145 39.8678 83.707 39.8229 84.1406 39.8229H85.4004ZM90.0895 43.0104L91.8531 37.3268H93.0133L90.4703 44.6452C90.4117 44.8014 90.3336 44.9694 90.2359 45.1491C90.1422 45.3327 90.0211 45.5065 89.8727 45.6706C89.7242 45.8346 89.5445 45.9675 89.3336 46.069C89.1266 46.1745 88.8785 46.2272 88.5895 46.2272C88.5035 46.2272 88.3941 46.2155 88.2613 46.1921C88.1285 46.1686 88.0348 46.1491 87.9801 46.1335L87.9742 45.2546C88.0055 45.2585 88.0543 45.2624 88.1207 45.2663C88.191 45.2741 88.2398 45.278 88.2672 45.278C88.5133 45.278 88.7223 45.2448 88.8941 45.1784C89.066 45.1159 89.2105 45.0085 89.3277 44.8561C89.4488 44.7077 89.5523 44.5026 89.6383 44.2409L90.0895 43.0104ZM88.7945 37.3268L90.441 42.2487L90.7223 43.3913L89.943 43.7897L87.6109 37.3268H88.7945ZM98.8523 38.3229V43.6667H97.7684V37.3268H98.823L98.8523 38.3229ZM100.833 37.2917L100.827 38.2995C100.737 38.28 100.651 38.2682 100.569 38.2643C100.491 38.2565 100.401 38.2526 100.3 38.2526C100.05 38.2526 99.8289 38.2917 99.6375 38.3698C99.4461 38.4479 99.284 38.5573 99.1512 38.6979C99.0184 38.8385 98.9129 39.0065 98.8348 39.2018C98.7605 39.3932 98.7117 39.6042 98.6883 39.8346L98.3836 40.0104C98.3836 39.6276 98.4207 39.2682 98.4949 38.9323C98.573 38.5964 98.6922 38.2995 98.8523 38.0417C99.0125 37.78 99.2156 37.5768 99.4617 37.4323C99.7117 37.2839 100.009 37.2096 100.352 37.2096C100.43 37.2096 100.52 37.2194 100.622 37.2389C100.723 37.2546 100.794 37.2721 100.833 37.2917ZM101.83 40.5671V40.4323C101.83 39.9753 101.897 39.5514 102.03 39.1608C102.162 38.7663 102.354 38.4245 102.604 38.1354C102.854 37.8425 103.157 37.6159 103.512 37.4557C103.868 37.2917 104.266 37.2096 104.707 37.2096C105.153 37.2096 105.553 37.2917 105.909 37.4557C106.268 37.6159 106.573 37.8425 106.823 38.1354C107.077 38.4245 107.27 38.7663 107.403 39.1608C107.536 39.5514 107.602 39.9753 107.602 40.4323V40.5671C107.602 41.0241 107.536 41.4479 107.403 41.8385C107.27 42.2292 107.077 42.571 106.823 42.8639C106.573 43.153 106.27 43.3796 105.914 43.5436C105.563 43.7038 105.164 43.7839 104.719 43.7839C104.274 43.7839 103.873 43.7038 103.518 43.5436C103.162 43.3796 102.858 43.153 102.604 42.8639C102.354 42.571 102.162 42.2292 102.03 41.8385C101.897 41.4479 101.83 41.0241 101.83 40.5671ZM102.914 40.4323V40.5671C102.914 40.8835 102.952 41.1823 103.026 41.4635C103.1 41.7409 103.211 41.987 103.36 42.2018C103.512 42.4167 103.702 42.5866 103.928 42.7116C104.155 42.8327 104.418 42.8932 104.719 42.8932C105.016 42.8932 105.276 42.8327 105.498 42.7116C105.725 42.5866 105.912 42.4167 106.061 42.2018C106.209 41.987 106.321 41.7409 106.395 41.4635C106.473 41.1823 106.512 40.8835 106.512 40.5671V40.4323C106.512 40.1198 106.473 39.8249 106.395 39.5475C106.321 39.2663 106.207 39.0182 106.055 38.8034C105.907 38.5846 105.719 38.4128 105.493 38.2878C105.27 38.1628 105.008 38.1003 104.707 38.1003C104.411 38.1003 104.149 38.1628 103.922 38.2878C103.7 38.4128 103.512 38.5846 103.36 38.8034C103.211 39.0182 103.1 39.2663 103.026 39.5475C102.952 39.8249 102.914 40.1198 102.914 40.4323ZM110.967 42.5417L112.596 37.3268H113.311L113.17 38.3639L111.512 43.6667H110.814L110.967 42.5417ZM109.871 37.3268L111.26 42.6003L111.359 43.6667H110.627L108.787 37.3268H109.871ZM114.869 42.5592L116.193 37.3268H117.271L115.432 43.6667H114.705L114.869 42.5592ZM113.469 37.3268L115.062 42.4538L115.244 43.6667H114.553L112.848 38.3522L112.707 37.3268H113.469ZM122.476 41.985C122.476 41.8288 122.441 41.6842 122.371 41.5514C122.304 41.4147 122.166 41.2917 121.955 41.1823C121.748 41.069 121.435 40.9714 121.017 40.8893C120.666 40.8151 120.347 40.7272 120.062 40.6257C119.781 40.5241 119.541 40.401 119.341 40.2565C119.146 40.112 118.996 39.9421 118.89 39.7467C118.785 39.5514 118.732 39.3229 118.732 39.0612C118.732 38.8112 118.787 38.5749 118.896 38.3522C119.009 38.1296 119.168 37.9323 119.371 37.7604C119.578 37.5885 119.826 37.4538 120.115 37.3561C120.404 37.2585 120.726 37.2096 121.082 37.2096C121.589 37.2096 122.023 37.2995 122.382 37.4792C122.742 37.6589 123.017 37.8991 123.209 38.1999C123.4 38.4967 123.496 38.8268 123.496 39.1901H122.412C122.412 39.0143 122.359 38.8444 122.254 38.6803C122.152 38.5124 122.002 38.3737 121.802 38.2643C121.607 38.155 121.367 38.1003 121.082 38.1003C120.781 38.1003 120.537 38.1471 120.349 38.2409C120.166 38.3307 120.031 38.446 119.945 38.5866C119.863 38.7272 119.822 38.8757 119.822 39.0319C119.822 39.1491 119.841 39.2546 119.88 39.3483C119.923 39.4382 119.998 39.5221 120.103 39.6003C120.209 39.6745 120.357 39.7448 120.548 39.8112C120.74 39.8776 120.984 39.944 121.281 40.0104C121.8 40.1276 122.228 40.2682 122.564 40.4323C122.9 40.5964 123.15 40.7975 123.314 41.0358C123.478 41.2741 123.56 41.5632 123.56 41.903C123.56 42.1803 123.502 42.4342 123.384 42.6647C123.271 42.8952 123.105 43.0944 122.886 43.2624C122.671 43.4264 122.414 43.5553 122.113 43.6491C121.816 43.7389 121.482 43.7839 121.111 43.7839C120.552 43.7839 120.08 43.6842 119.693 43.485C119.306 43.2858 119.013 43.028 118.814 42.7116C118.615 42.3952 118.515 42.0612 118.515 41.7096H119.605C119.621 42.0065 119.707 42.2428 119.863 42.4186C120.019 42.5905 120.211 42.7135 120.437 42.7878C120.664 42.8581 120.888 42.8932 121.111 42.8932C121.408 42.8932 121.656 42.8542 121.855 42.776C122.058 42.6979 122.213 42.5905 122.318 42.4538C122.423 42.3171 122.476 42.1608 122.476 41.985ZM134.233 42.776V43.6667H128.649V42.8874L131.444 39.776C131.788 39.3932 132.054 39.069 132.241 38.8034C132.432 38.5339 132.565 38.2936 132.639 38.0827C132.718 37.8678 132.757 37.6491 132.757 37.4264C132.757 37.1452 132.698 36.8913 132.581 36.6647C132.468 36.4342 132.3 36.2507 132.077 36.1139C131.854 35.9772 131.585 35.9089 131.268 35.9089C130.889 35.9089 130.573 35.9831 130.319 36.1315C130.069 36.276 129.882 36.4792 129.757 36.7409C129.632 37.0026 129.569 37.3034 129.569 37.6432H128.485C128.485 37.1628 128.591 36.7233 128.802 36.3249C129.012 35.9264 129.325 35.61 129.739 35.3757C130.153 35.1374 130.663 35.0182 131.268 35.0182C131.807 35.0182 132.268 35.1139 132.651 35.3053C133.034 35.4928 133.327 35.7585 133.53 36.1022C133.737 36.4421 133.841 36.8405 133.841 37.2975C133.841 37.5475 133.798 37.8014 133.712 38.0592C133.63 38.3132 133.514 38.5671 133.366 38.821C133.221 39.0749 133.052 39.3249 132.856 39.571C132.665 39.8171 132.46 40.0592 132.241 40.2975L129.956 42.776H134.233ZM136.895 42.3776V43.2507C136.895 43.6061 136.805 43.9811 136.625 44.3757C136.446 44.7741 136.194 45.1061 135.87 45.3717L135.254 44.944C135.379 44.7721 135.485 44.5964 135.571 44.4167C135.657 44.2409 135.721 44.0573 135.764 43.8659C135.811 43.6784 135.834 43.4792 135.834 43.2682V42.3776H136.895ZM144.326 40.7956V41.6862H138.162V41.0475L141.982 35.1354H142.867L141.918 36.8464L139.393 40.7956H144.326ZM143.137 35.1354V43.6667H142.053V35.1354H143.137ZM146.812 42.3776V43.2507C146.812 43.6061 146.722 43.9811 146.543 44.3757C146.363 44.7741 146.111 45.1061 145.787 45.3717L145.171 44.944C145.296 44.7721 145.402 44.5964 145.488 44.4167C145.574 44.2409 145.638 44.0573 145.681 43.8659C145.728 43.6784 145.752 43.4792 145.752 43.2682V42.3776H146.812ZM152.638 35.1237H152.732V36.0436H152.638C152.064 36.0436 151.583 36.1374 151.196 36.3249C150.81 36.5085 150.503 36.7565 150.277 37.069C150.05 37.3776 149.886 37.7253 149.784 38.112C149.687 38.4987 149.638 38.8913 149.638 39.2897V40.5436C149.638 40.9225 149.683 41.2585 149.773 41.5514C149.863 41.8405 149.986 42.0846 150.142 42.2839C150.298 42.4831 150.474 42.6335 150.669 42.735C150.868 42.8366 151.075 42.8874 151.29 42.8874C151.54 42.8874 151.763 42.8405 151.958 42.7467C152.154 42.6491 152.318 42.5143 152.45 42.3425C152.587 42.1667 152.691 41.9596 152.761 41.7214C152.831 41.4831 152.866 41.2214 152.866 40.9362C152.866 40.6823 152.835 40.4382 152.773 40.2038C152.71 39.9655 152.614 39.7546 152.486 39.571C152.357 39.3835 152.195 39.237 151.999 39.1315C151.808 39.0221 151.579 38.9675 151.314 38.9675C151.013 38.9675 150.732 39.0417 150.47 39.1901C150.212 39.3346 149.999 39.526 149.831 39.7643C149.667 39.9987 149.573 40.2546 149.55 40.5319L148.976 40.526C149.03 40.0885 149.132 39.7155 149.28 39.4069C149.433 39.0944 149.62 38.8405 149.843 38.6452C150.07 38.446 150.321 38.3014 150.599 38.2116C150.88 38.1178 151.177 38.071 151.489 38.071C151.915 38.071 152.282 38.151 152.591 38.3112C152.9 38.4714 153.154 38.6862 153.353 38.9557C153.552 39.2214 153.698 39.5221 153.792 39.8581C153.89 40.1901 153.939 40.5319 153.939 40.8835C153.939 41.2858 153.882 41.6628 153.769 42.0143C153.655 42.3659 153.486 42.6745 153.259 42.9401C153.036 43.2057 152.761 43.4128 152.433 43.5612C152.105 43.7096 151.724 43.7839 151.29 43.7839C150.829 43.7839 150.427 43.6901 150.083 43.5026C149.739 43.3112 149.454 43.0573 149.228 42.7409C149.001 42.4245 148.831 42.0729 148.718 41.6862C148.605 41.2995 148.548 40.9069 148.548 40.5085V39.9987C148.548 39.3971 148.609 38.8073 148.73 38.2292C148.851 37.651 149.06 37.1276 149.357 36.6589C149.657 36.1901 150.073 35.8171 150.605 35.5397C151.136 35.2624 151.814 35.1237 152.638 35.1237ZM161.752 43.7839C161.311 43.7839 160.911 43.7096 160.551 43.5612C160.196 43.4089 159.889 43.196 159.631 42.9225C159.377 42.6491 159.182 42.3249 159.045 41.9499C158.909 41.5749 158.84 41.1647 158.84 40.7194V40.4733C158.84 39.9577 158.916 39.4987 159.069 39.0964C159.221 38.6901 159.428 38.3464 159.69 38.0651C159.952 37.7839 160.248 37.571 160.58 37.4264C160.912 37.2819 161.256 37.2096 161.612 37.2096C162.065 37.2096 162.455 37.2878 162.784 37.444C163.116 37.6003 163.387 37.819 163.598 38.1003C163.809 38.3776 163.965 38.7057 164.067 39.0846C164.168 39.4596 164.219 39.8698 164.219 40.3151V40.8014H159.485V39.9167H163.135V39.8346C163.12 39.5534 163.061 39.28 162.959 39.0143C162.862 38.7487 162.705 38.53 162.491 38.3581C162.276 38.1862 161.983 38.1003 161.612 38.1003C161.366 38.1003 161.139 38.153 160.932 38.2585C160.725 38.36 160.547 38.5124 160.399 38.7155C160.25 38.9186 160.135 39.1667 160.053 39.4596C159.971 39.7526 159.93 40.0905 159.93 40.4733V40.7194C159.93 41.0202 159.971 41.3034 160.053 41.569C160.139 41.8307 160.262 42.0612 160.422 42.2604C160.586 42.4596 160.784 42.6159 161.014 42.7292C161.248 42.8425 161.514 42.8991 161.811 42.8991C162.194 42.8991 162.518 42.821 162.784 42.6647C163.049 42.5085 163.282 42.2995 163.481 42.0378L164.137 42.5592C164 42.7663 163.827 42.9635 163.616 43.151C163.405 43.3385 163.145 43.4909 162.836 43.6081C162.532 43.7253 162.17 43.7839 161.752 43.7839ZM168.539 37.3268V38.1589H165.111V37.3268H168.539ZM166.271 35.7858H167.355V42.0964C167.355 42.3112 167.389 42.4733 167.455 42.5827C167.521 42.6921 167.607 42.7643 167.713 42.7995C167.818 42.8346 167.932 42.8522 168.053 42.8522C168.143 42.8522 168.236 42.8444 168.334 42.8288C168.436 42.8092 168.512 42.7936 168.562 42.7819L168.568 43.6667C168.482 43.694 168.369 43.7194 168.229 43.7428C168.092 43.7702 167.926 43.7839 167.73 43.7839C167.465 43.7839 167.221 43.7311 166.998 43.6257C166.775 43.5202 166.598 43.3444 166.465 43.0983C166.336 42.8483 166.271 42.5124 166.271 42.0905V35.7858ZM172.748 42.8932C173.005 42.8932 173.244 42.8405 173.463 42.735C173.681 42.6296 173.861 42.485 174.002 42.3014C174.142 42.1139 174.222 41.901 174.242 41.6628H175.273C175.254 42.0378 175.127 42.3874 174.892 42.7116C174.662 43.0319 174.359 43.2917 173.984 43.4909C173.609 43.6862 173.197 43.7839 172.748 43.7839C172.271 43.7839 171.855 43.6999 171.5 43.5319C171.148 43.3639 170.855 43.1335 170.621 42.8405C170.39 42.5475 170.216 42.2116 170.099 41.8327C169.986 41.4499 169.929 41.0456 169.929 40.6198V40.3737C169.929 39.9479 169.986 39.5456 170.099 39.1667C170.216 38.7839 170.39 38.446 170.621 38.153C170.855 37.86 171.148 37.6296 171.5 37.4616C171.855 37.2936 172.271 37.2096 172.748 37.2096C173.244 37.2096 173.677 37.3112 174.048 37.5143C174.42 37.7135 174.711 37.987 174.921 38.3346C175.136 38.6784 175.254 39.069 175.273 39.5065H174.242C174.222 39.2448 174.148 39.0085 174.019 38.7975C173.894 38.5866 173.722 38.4186 173.504 38.2936C173.289 38.1647 173.037 38.1003 172.748 38.1003C172.416 38.1003 172.136 38.1667 171.91 38.2995C171.687 38.4284 171.509 38.6042 171.377 38.8268C171.248 39.0456 171.154 39.2897 171.095 39.5592C171.041 39.8249 171.013 40.0964 171.013 40.3737V40.6198C171.013 40.8971 171.041 41.1706 171.095 41.4401C171.15 41.7096 171.242 41.9538 171.371 42.1725C171.504 42.3913 171.681 42.5671 171.904 42.6999C172.13 42.8288 172.412 42.8932 172.748 42.8932Z" fill="#5E6366"/>
<path d="M54.048 11.8H59.744C59.9253 11.8 60.08 11.8587 60.208 11.976C60.336 12.0933 60.4 12.2427 60.4 12.424C60.4 12.6053 60.336 12.7547 60.208 12.872C60.08 12.9787 59.9253 13.032 59.744 13.032H54.592L54.736 12.76V16.808L54.576 16.632H59.024C59.2053 16.632 59.36 16.6907 59.488 16.808C59.616 16.9253 59.68 17.0747 59.68 17.256C59.68 17.4373 59.616 17.5867 59.488 17.704C59.36 17.8107 59.2053 17.864 59.024 17.864H54.624L54.736 17.72V21.864L54.64 21.752H59.744C59.9253 21.752 60.08 21.816 60.208 21.944C60.336 22.072 60.4 22.216 60.4 22.376C60.4 22.5573 60.336 22.7067 60.208 22.824C60.08 22.9413 59.9253 23 59.744 23H54.048C53.8667 23 53.712 22.936 53.584 22.808C53.4667 22.68 53.408 22.5253 53.408 22.344V12.44C53.408 12.2587 53.4667 12.1093 53.584 11.992C53.712 11.864 53.8667 11.8 54.048 11.8ZM62.5146 14.584C62.6426 14.584 62.7653 14.6213 62.8826 14.696C63 14.76 63.0853 14.856 63.1386 14.984L65.7946 21.224L65.5386 21.352L68.2426 15C68.36 14.712 68.5573 14.5733 68.8346 14.584C68.9946 14.584 69.1333 14.6373 69.2506 14.744C69.368 14.8507 69.4266 14.984 69.4266 15.144C69.4266 15.208 69.416 15.272 69.3946 15.336C69.384 15.3893 69.368 15.4373 69.3466 15.48L66.2586 22.584C66.1413 22.8507 65.9546 22.9893 65.6986 23C65.56 23.0107 65.4266 22.984 65.2986 22.92C65.1813 22.8453 65.096 22.7333 65.0426 22.584L61.9546 15.496C61.9333 15.4533 61.912 15.4053 61.8906 15.352C61.88 15.2987 61.8746 15.2347 61.8746 15.16C61.8746 15.0213 61.928 14.8933 62.0346 14.776C62.152 14.648 62.312 14.584 62.5146 14.584ZM75.3411 23.16C74.4878 23.16 73.7411 22.9787 73.1011 22.616C72.4611 22.2533 71.9598 21.7573 71.5971 21.128C71.2451 20.488 71.0691 19.752 71.0691 18.92C71.0691 17.992 71.2505 17.2027 71.6131 16.552C71.9865 15.8907 72.4665 15.3893 73.0531 15.048C73.6505 14.696 74.2798 14.52 74.9411 14.52C75.4318 14.52 75.9065 14.6107 76.3651 14.792C76.8238 14.9733 77.2291 15.24 77.5811 15.592C77.9331 15.9333 78.2158 16.3493 78.4291 16.84C78.6425 17.32 78.7545 17.8587 78.7651 18.456C78.7651 18.6267 78.7011 18.7707 78.5731 18.888C78.4451 19.0053 78.2958 19.064 78.1251 19.064H71.8051L71.5171 17.96H77.6771L77.4211 18.184V17.832C77.3785 17.3947 77.2291 17.0213 76.9731 16.712C76.7278 16.392 76.4238 16.1467 76.0611 15.976C75.7091 15.8053 75.3358 15.72 74.9411 15.72C74.6211 15.72 74.3011 15.7787 73.9811 15.896C73.6718 16.0027 73.3891 16.184 73.1331 16.44C72.8878 16.6853 72.6851 17.0053 72.5251 17.4C72.3758 17.7947 72.3011 18.2693 72.3011 18.824C72.3011 19.4427 72.4238 19.9867 72.6691 20.456C72.9251 20.9253 73.2771 21.2987 73.7251 21.576C74.1731 21.8427 74.6958 21.976 75.2931 21.976C75.6665 21.976 75.9918 21.928 76.2691 21.832C76.5465 21.736 76.7865 21.6187 76.9891 21.48C77.1918 21.3307 77.3625 21.1813 77.5011 21.032C77.6398 20.936 77.7731 20.888 77.9011 20.888C78.0611 20.888 78.1891 20.9413 78.2851 21.048C78.3918 21.1547 78.4451 21.2827 78.4451 21.432C78.4451 21.6133 78.3598 21.7733 78.1891 21.912C77.8905 22.2427 77.4851 22.536 76.9731 22.792C76.4611 23.0373 75.9171 23.16 75.3411 23.16ZM85.241 14.52C85.9663 14.52 86.537 14.6693 86.953 14.968C87.369 15.2667 87.6623 15.6667 87.833 16.168C88.0143 16.6693 88.105 17.2293 88.105 17.848V22.344C88.105 22.5253 88.041 22.68 87.913 22.808C87.7957 22.936 87.6463 23 87.465 23C87.2837 23 87.129 22.936 87.001 22.808C86.8837 22.68 86.825 22.5253 86.825 22.344V17.88C86.825 17.4747 86.761 17.112 86.633 16.792C86.5157 16.4613 86.313 16.2 86.025 16.008C85.7477 15.8053 85.3637 15.704 84.873 15.704C84.425 15.704 84.0143 15.8053 83.641 16.008C83.2677 16.2 82.969 16.4613 82.745 16.792C82.521 17.112 82.409 17.4747 82.409 17.88V22.344C82.409 22.5253 82.345 22.68 82.217 22.808C82.0997 22.936 81.9503 23 81.769 23C81.5877 23 81.433 22.936 81.305 22.808C81.1877 22.68 81.129 22.5253 81.129 22.344V15.368C81.129 15.1867 81.1877 15.0373 81.305 14.92C81.433 14.792 81.5877 14.728 81.769 14.728C81.961 14.728 82.1157 14.792 82.233 14.92C82.3503 15.0373 82.409 15.1867 82.409 15.368V16.504L82.089 16.856C82.1423 16.5787 82.265 16.3013 82.457 16.024C82.649 15.736 82.889 15.48 83.177 15.256C83.465 15.032 83.785 14.856 84.137 14.728C84.489 14.5893 84.857 14.52 85.241 14.52ZM96.399 23C96.2177 23 96.063 22.936 95.935 22.808C95.8177 22.68 95.759 22.5253 95.759 22.344V15.368C95.759 15.1867 95.8177 15.0373 95.935 14.92C96.063 14.792 96.2177 14.728 96.399 14.728C96.591 14.728 96.7457 14.792 96.863 14.92C96.9803 15.0373 97.039 15.1867 97.039 15.368V17.48L96.847 17.144C96.911 16.8133 97.023 16.4933 97.183 16.184C97.3537 15.864 97.567 15.5813 97.823 15.336C98.079 15.08 98.3723 14.8827 98.703 14.744C99.0337 14.5947 99.3963 14.52 99.791 14.52C100.026 14.52 100.239 14.5787 100.431 14.696C100.634 14.8027 100.735 14.9573 100.735 15.16C100.735 15.384 100.676 15.5493 100.559 15.656C100.442 15.7627 100.308 15.816 100.159 15.816C100.02 15.816 99.887 15.7893 99.759 15.736C99.631 15.672 99.471 15.64 99.279 15.64C99.0123 15.64 98.7457 15.7147 98.479 15.864C98.223 16.0027 97.983 16.2053 97.759 16.472C97.5457 16.7387 97.3697 17.0427 97.231 17.384C97.103 17.7147 97.039 18.072 97.039 18.456V22.344C97.039 22.5253 96.975 22.68 96.847 22.808C96.7297 22.936 96.5803 23 96.399 23ZM110.117 18.84C110.117 19.672 109.931 20.4133 109.557 21.064C109.195 21.7147 108.699 22.2267 108.069 22.6C107.451 22.9733 106.752 23.16 105.973 23.16C105.195 23.16 104.491 22.9733 103.861 22.6C103.232 22.2267 102.731 21.7147 102.357 21.064C101.995 20.4133 101.813 19.672 101.813 18.84C101.813 18.008 101.995 17.2667 102.357 16.616C102.731 15.9653 103.232 15.4533 103.861 15.08C104.491 14.7067 105.195 14.52 105.973 14.52C106.752 14.52 107.451 14.7067 108.069 15.08C108.699 15.4533 109.195 15.9653 109.557 16.616C109.931 17.2667 110.117 18.008 110.117 18.84ZM108.837 18.84C108.837 18.2213 108.709 17.6773 108.453 17.208C108.208 16.7387 107.867 16.3707 107.429 16.104C107.003 15.8373 106.517 15.704 105.973 15.704C105.429 15.704 104.939 15.8373 104.501 16.104C104.075 16.3707 103.733 16.7387 103.477 17.208C103.221 17.6773 103.093 18.2213 103.093 18.84C103.093 19.448 103.221 19.9867 103.477 20.456C103.733 20.9253 104.075 21.2987 104.501 21.576C104.939 21.8427 105.429 21.976 105.973 21.976C106.517 21.976 107.003 21.8427 107.429 21.576C107.867 21.2987 108.208 20.9253 108.453 20.456C108.709 19.9867 108.837 19.448 108.837 18.84ZM122.243 14.584C122.413 14.584 122.557 14.6427 122.675 14.76C122.803 14.8773 122.867 15.032 122.867 15.224C122.867 15.2667 122.861 15.3147 122.851 15.368C122.851 15.4107 122.84 15.4533 122.819 15.496L120.355 22.584C120.301 22.7227 120.211 22.8293 120.083 22.904C119.965 22.9787 119.837 23.0107 119.699 23C119.453 22.9893 119.267 22.8507 119.139 22.584L117.123 17.528L117.443 17.576L115.619 22.584C115.501 22.8507 115.315 22.9893 115.059 23C114.92 23.0107 114.787 22.9787 114.659 22.904C114.531 22.8293 114.445 22.7227 114.403 22.584L111.891 15.496C111.859 15.4 111.843 15.3093 111.843 15.224C111.843 15.0533 111.901 14.904 112.019 14.776C112.136 14.648 112.296 14.584 112.499 14.584C112.627 14.584 112.744 14.616 112.851 14.68C112.957 14.744 113.032 14.8453 113.075 14.984L115.235 21.288L114.899 21.272L116.771 16.472C116.877 16.2053 117.075 16.072 117.363 16.072C117.512 16.072 117.629 16.1093 117.715 16.184C117.811 16.248 117.88 16.344 117.923 16.472L119.875 21.272L119.475 21.304L121.635 14.984C121.731 14.7173 121.933 14.584 122.243 14.584ZM124.49 21.688C124.394 21.5493 124.351 21.4053 124.362 21.256C124.373 21.096 124.463 20.9573 124.634 20.84C124.741 20.7653 124.863 20.7333 125.002 20.744C125.151 20.7547 125.285 20.824 125.402 20.952C125.701 21.304 126.042 21.5867 126.426 21.8C126.81 22.0027 127.279 22.104 127.834 22.104C128.09 22.0933 128.346 22.0507 128.602 21.976C128.858 21.9013 129.071 21.7733 129.242 21.592C129.423 21.4 129.514 21.1493 129.514 20.84C129.514 20.5413 129.423 20.3067 129.242 20.136C129.061 19.9547 128.826 19.8107 128.538 19.704C128.25 19.5867 127.935 19.4853 127.594 19.4C127.242 19.304 126.895 19.1973 126.554 19.08C126.213 18.952 125.903 18.7973 125.626 18.616C125.359 18.424 125.141 18.1893 124.97 17.912C124.81 17.624 124.73 17.2773 124.73 16.872C124.73 16.392 124.858 15.976 125.114 15.624C125.381 15.272 125.733 15 126.17 14.808C126.618 14.616 127.103 14.52 127.626 14.52C127.925 14.52 128.234 14.5573 128.554 14.632C128.885 14.696 129.205 14.8133 129.514 14.984C129.823 15.144 130.095 15.368 130.33 15.656C130.426 15.7627 130.479 15.896 130.49 16.056C130.501 16.216 130.431 16.36 130.282 16.488C130.165 16.5733 130.031 16.6107 129.882 16.6C129.743 16.5893 129.626 16.536 129.53 16.44C129.306 16.1733 129.023 15.9707 128.682 15.832C128.351 15.6827 127.983 15.608 127.578 15.608C127.322 15.608 127.071 15.6453 126.826 15.72C126.581 15.7947 126.373 15.9227 126.202 16.104C126.042 16.2747 125.962 16.5147 125.962 16.824C125.973 17.112 126.069 17.3467 126.25 17.528C126.431 17.7093 126.677 17.8587 126.986 17.976C127.295 18.0827 127.637 18.1893 128.01 18.296C128.351 18.3813 128.677 18.4827 128.986 18.6C129.306 18.7067 129.594 18.8507 129.85 19.032C130.106 19.2133 130.309 19.448 130.458 19.736C130.607 20.0133 130.682 20.3653 130.682 20.792C130.682 21.2827 130.543 21.7093 130.266 22.072C129.989 22.424 129.621 22.696 129.162 22.888C128.714 23.0693 128.229 23.16 127.706 23.16C127.119 23.16 126.538 23.048 125.962 22.824C125.397 22.6 124.906 22.2213 124.49 21.688ZM145.674 18.84C145.674 19.672 145.488 20.4133 145.114 21.064C144.752 21.7147 144.256 22.2267 143.626 22.6C143.008 22.9733 142.309 23.16 141.53 23.16C140.752 23.16 140.048 22.9733 139.418 22.6C138.789 22.2267 138.288 21.7147 137.914 21.064C137.552 20.4133 137.37 19.672 137.37 18.84C137.37 18.008 137.552 17.2667 137.914 16.616C138.288 15.9653 138.789 15.4533 139.418 15.08C140.048 14.7067 140.752 14.52 141.53 14.52C142.309 14.52 143.008 14.7067 143.626 15.08C144.256 15.4533 144.752 15.9653 145.114 16.616C145.488 17.2667 145.674 18.008 145.674 18.84ZM144.394 18.84C144.394 18.2213 144.266 17.6773 144.01 17.208C143.765 16.7387 143.424 16.3707 142.986 16.104C142.56 15.8373 142.074 15.704 141.53 15.704C140.986 15.704 140.496 15.8373 140.058 16.104C139.632 16.3707 139.29 16.7387 139.034 17.208C138.778 17.6773 138.65 18.2213 138.65 18.84C138.65 19.448 138.778 19.9867 139.034 20.456C139.29 20.9253 139.632 21.2987 140.058 21.576C140.496 21.8427 140.986 21.976 141.53 21.976C142.074 21.976 142.56 21.8427 142.986 21.576C143.424 21.2987 143.765 20.9253 144.01 20.456C144.266 19.9867 144.394 19.448 144.394 18.84ZM151.496 11.192C151.677 11.192 151.864 11.2133 152.056 11.256C152.258 11.2987 152.429 11.3733 152.568 11.48C152.717 11.5867 152.792 11.7307 152.792 11.912C152.792 12.0827 152.738 12.2267 152.632 12.344C152.525 12.4507 152.397 12.504 152.248 12.504C152.152 12.504 152.018 12.4773 151.848 12.424C151.677 12.36 151.501 12.328 151.32 12.328C151.074 12.328 150.872 12.3813 150.712 12.488C150.562 12.5947 150.45 12.7387 150.376 12.92C150.312 13.0907 150.28 13.2827 150.28 13.496V22.344C150.28 22.5253 150.216 22.68 150.088 22.808C149.97 22.936 149.821 23 149.64 23C149.448 23 149.293 22.936 149.176 22.808C149.058 22.68 149 22.5253 149 22.344V13.512C149 12.7973 149.218 12.232 149.656 11.816C150.104 11.4 150.717 11.192 151.496 11.192ZM151.944 14.856C152.114 14.856 152.258 14.9147 152.376 15.032C152.493 15.1387 152.552 15.2773 152.552 15.448C152.552 15.6187 152.493 15.7627 152.376 15.88C152.258 15.9867 152.114 16.04 151.944 16.04H147.928C147.757 16.04 147.613 15.9813 147.496 15.864C147.378 15.7467 147.32 15.608 147.32 15.448C147.32 15.2667 147.378 15.1227 147.496 15.016C147.613 14.9093 147.757 14.856 147.928 14.856H151.944ZM166.314 11.16C166.495 11.16 166.644 11.224 166.762 11.352C166.89 11.4693 166.954 11.6187 166.954 11.8V22.344C166.954 22.5253 166.89 22.68 166.762 22.808C166.644 22.936 166.495 23 166.314 23C166.122 23 165.967 22.936 165.85 22.808C165.732 22.68 165.674 22.5253 165.674 22.344V20.824L165.978 20.712C165.978 20.968 165.898 21.24 165.738 21.528C165.578 21.8053 165.359 22.0667 165.082 22.312C164.804 22.5573 164.474 22.76 164.09 22.92C163.716 23.08 163.311 23.16 162.874 23.16C162.159 23.16 161.508 22.9733 160.922 22.6C160.346 22.2267 159.887 21.7147 159.546 21.064C159.215 20.4133 159.05 19.672 159.05 18.84C159.05 17.9973 159.215 17.2507 159.546 16.6C159.887 15.9493 160.346 15.4427 160.922 15.08C161.498 14.7067 162.138 14.52 162.842 14.52C163.29 14.52 163.711 14.5947 164.106 14.744C164.5 14.8933 164.842 15.096 165.13 15.352C165.428 15.608 165.663 15.8907 165.834 16.2C166.004 16.5093 166.09 16.8187 166.09 17.128L165.674 17.032V11.8C165.674 11.6187 165.732 11.4693 165.85 11.352C165.967 11.224 166.122 11.16 166.314 11.16ZM163.018 21.976C163.551 21.976 164.02 21.8427 164.426 21.576C164.842 21.2987 165.162 20.9253 165.386 20.456C165.62 19.976 165.738 19.4373 165.738 18.84C165.738 18.232 165.62 17.6933 165.386 17.224C165.162 16.7547 164.842 16.3867 164.426 16.12C164.02 15.8427 163.551 15.704 163.018 15.704C162.495 15.704 162.026 15.8427 161.61 16.12C161.204 16.3867 160.884 16.7547 160.65 17.224C160.415 17.6933 160.298 18.232 160.298 18.84C160.298 19.4267 160.415 19.96 160.65 20.44C160.884 20.9093 161.204 21.2827 161.61 21.56C162.026 21.8373 162.495 21.976 163.018 21.976ZM176.582 14.648C176.763 14.648 176.913 14.712 177.03 14.84C177.158 14.9573 177.222 15.1067 177.222 15.288V22.344C177.222 22.5253 177.158 22.68 177.03 22.808C176.913 22.936 176.763 23 176.582 23C176.39 23 176.235 22.936 176.118 22.808C176.001 22.68 175.942 22.5253 175.942 22.344V20.824L176.246 20.792C176.246 21.0267 176.166 21.2827 176.006 21.56C175.846 21.8373 175.627 22.0987 175.35 22.344C175.073 22.5787 174.742 22.776 174.358 22.936C173.985 23.0853 173.579 23.16 173.142 23.16C172.417 23.16 171.766 22.9733 171.19 22.6C170.614 22.216 170.155 21.6987 169.814 21.048C169.483 20.3973 169.318 19.656 169.318 18.824C169.318 17.9813 169.483 17.24 169.814 16.6C170.155 15.9493 170.614 15.4427 171.19 15.08C171.766 14.7067 172.406 14.52 173.11 14.52C173.569 14.52 173.995 14.5947 174.39 14.744C174.785 14.8933 175.126 15.096 175.414 15.352C175.713 15.608 175.942 15.8907 176.102 16.2C176.273 16.5093 176.358 16.8187 176.358 17.128L175.942 17.032V15.288C175.942 15.1067 176.001 14.9573 176.118 14.84C176.235 14.712 176.39 14.648 176.582 14.648ZM173.286 21.976C173.819 21.976 174.289 21.8373 174.694 21.56C175.11 21.2827 175.43 20.9093 175.654 20.44C175.889 19.96 176.006 19.4213 176.006 18.824C176.006 18.2373 175.889 17.7093 175.654 17.24C175.43 16.76 175.11 16.3867 174.694 16.12C174.289 15.8427 173.819 15.704 173.286 15.704C172.763 15.704 172.294 15.8373 171.878 16.104C171.473 16.3707 171.153 16.7387 170.918 17.208C170.683 17.6773 170.566 18.216 170.566 18.824C170.566 19.4213 170.678 19.96 170.902 20.44C171.137 20.9093 171.457 21.2827 171.862 21.56C172.278 21.8373 172.753 21.976 173.286 21.976ZM179.714 14.776H183.474C183.645 14.776 183.783 14.8347 183.89 14.952C184.007 15.0693 184.066 15.208 184.066 15.368C184.066 15.5387 184.007 15.6827 183.89 15.8C183.783 15.9067 183.645 15.96 183.474 15.96H179.714C179.554 15.96 179.415 15.9013 179.298 15.784C179.181 15.6667 179.122 15.5227 179.122 15.352C179.122 15.192 179.181 15.0587 179.298 14.952C179.415 14.8347 179.554 14.776 179.714 14.776ZM181.394 12.6C181.575 12.6 181.725 12.664 181.842 12.792C181.959 12.9093 182.018 13.0587 182.018 13.24V20.968C182.018 21.224 182.055 21.416 182.13 21.544C182.205 21.672 182.301 21.7627 182.418 21.816C182.546 21.8587 182.669 21.88 182.786 21.88C182.893 21.88 182.983 21.864 183.058 21.832C183.143 21.7893 183.239 21.768 183.346 21.768C183.453 21.768 183.549 21.8213 183.634 21.928C183.73 22.024 183.778 22.152 183.778 22.312C183.778 22.504 183.666 22.6693 183.442 22.808C183.218 22.936 182.967 23 182.69 23C182.541 23 182.354 22.9893 182.13 22.968C181.917 22.9467 181.703 22.8773 181.49 22.76C181.277 22.6427 181.095 22.4507 180.946 22.184C180.807 21.9067 180.738 21.5227 180.738 21.032V13.24C180.738 13.0587 180.802 12.9093 180.93 12.792C181.058 12.664 181.213 12.6 181.394 12.6ZM193.102 14.648C193.284 14.648 193.433 14.712 193.55 14.84C193.678 14.9573 193.742 15.1067 193.742 15.288V22.344C193.742 22.5253 193.678 22.68 193.55 22.808C193.433 22.936 193.284 23 193.102 23C192.91 23 192.756 22.936 192.638 22.808C192.521 22.68 192.462 22.5253 192.462 22.344V20.824L192.766 20.792C192.766 21.0267 192.686 21.2827 192.526 21.56C192.366 21.8373 192.148 22.0987 191.87 22.344C191.593 22.5787 191.262 22.776 190.878 22.936C190.505 23.0853 190.1 23.16 189.662 23.16C188.937 23.16 188.286 22.9733 187.71 22.6C187.134 22.216 186.676 21.6987 186.334 21.048C186.004 20.3973 185.838 19.656 185.838 18.824C185.838 17.9813 186.004 17.24 186.334 16.6C186.676 15.9493 187.134 15.4427 187.71 15.08C188.286 14.7067 188.926 14.52 189.63 14.52C190.089 14.52 190.516 14.5947 190.91 14.744C191.305 14.8933 191.646 15.096 191.934 15.352C192.233 15.608 192.462 15.8907 192.622 16.2C192.793 16.5093 192.878 16.8187 192.878 17.128L192.462 17.032V15.288C192.462 15.1067 192.521 14.9573 192.638 14.84C192.756 14.712 192.91 14.648 193.102 14.648ZM189.806 21.976C190.34 21.976 190.809 21.8373 191.214 21.56C191.63 21.2827 191.95 20.9093 192.174 20.44C192.409 19.96 192.526 19.4213 192.526 18.824C192.526 18.2373 192.409 17.7093 192.174 17.24C191.95 16.76 191.63 16.3867 191.214 16.12C190.809 15.8427 190.34 15.704 189.806 15.704C189.284 15.704 188.814 15.8373 188.398 16.104C187.993 16.3707 187.673 16.7387 187.438 17.208C187.204 17.6773 187.086 18.216 187.086 18.824C187.086 19.4213 187.198 19.96 187.422 20.44C187.657 20.9093 187.977 21.2827 188.382 21.56C188.798 21.8373 189.273 21.976 189.806 21.976Z" fill="black" fill-opacity="0.87"/>
<path d="M27 18V21.03C30.39 21.52 33 24.42 33 27.95C33 28.85 32.82 29.7 32.5 30.49L35.12 32.02C35.68 30.78 36 29.4 36 27.95C36 22.77 32.05 18.5 27 18ZM26 34.95C24.1435 34.95 22.363 34.2125 21.0503 32.8997C19.7375 31.587 19 29.8065 19 27.95C19 24.42 21.61 21.52 25 21.03V18C19.94 18.5 16 22.76 16 27.95C16 30.6022 17.0536 33.1457 18.9289 35.0211C19.8575 35.9497 20.9599 36.6863 22.1732 37.1888C23.3864 37.6913 24.6868 37.95 26 37.95C29.3 37.95 32.23 36.34 34.05 33.86L31.45 32.33C30.17 33.95 28.21 34.95 26 34.95Z" />
</svg>
