<svg width="96" height="40" viewBox="0 0 96 40" fill="none" xmlns="http://www.w3.org/2000/svg">
<rect width="96" height="40" rx="10" fill="#F7F9FA"/>
<path d="M19.0625 25H17.5547V19.7422H11.8203V25H10.3203V13.625H11.8203V18.5156H17.5547V13.625H19.0625V25ZM25.4478 25.1562C24.302 25.1562 23.3697 24.7812 22.6509 24.0312C21.9322 23.276 21.5728 22.2682 21.5728 21.0078V20.7422C21.5728 19.9036 21.7317 19.1562 22.0494 18.5C22.3723 17.8385 22.8202 17.3229 23.3931 16.9531C23.9712 16.5781 24.5962 16.3906 25.2681 16.3906C26.3671 16.3906 27.2212 16.7526 27.8306 17.4766C28.44 18.2005 28.7447 19.237 28.7447 20.5859V21.1875H23.0181C23.039 22.0208 23.2811 22.6953 23.7447 23.2109C24.2134 23.7214 24.8072 23.9766 25.5259 23.9766C26.0364 23.9766 26.4686 23.8724 26.8228 23.6641C27.177 23.4557 27.4869 23.1797 27.7525 22.8359L28.6353 23.5234C27.927 24.612 26.8645 25.1562 25.4478 25.1562ZM25.2681 17.5781C24.6848 17.5781 24.1952 17.7917 23.7994 18.2188C23.4035 18.6406 23.1587 19.2344 23.065 20H27.2994V19.8906C27.2577 19.1562 27.0598 18.5885 26.7056 18.1875C26.3515 17.7812 25.8723 17.5781 25.2681 17.5781ZM32.4347 25H30.9894V13H32.4347V25ZM42.3356 20.8672C42.3356 22.1536 42.0414 23.1901 41.4528 23.9766C40.8643 24.763 40.0674 25.1562 39.0622 25.1562C38.0361 25.1562 37.2289 24.8307 36.6403 24.1797V28.25H35.195V16.5469H36.5153L36.5856 17.4844C37.1742 16.7552 37.9919 16.3906 39.0387 16.3906C40.0544 16.3906 40.8565 16.7734 41.445 17.5391C42.0387 18.3047 42.3356 19.3698 42.3356 20.7344V20.8672ZM40.8903 20.7031C40.8903 19.75 40.6872 18.9974 40.2809 18.4453C39.8747 17.8932 39.3174 17.6172 38.6091 17.6172C37.7341 17.6172 37.0778 18.0052 36.6403 18.7812V22.8203C37.0726 23.5911 37.7341 23.9766 38.6247 23.9766C39.3174 23.9766 39.8669 23.7031 40.2731 23.1562C40.6846 22.6042 40.8903 21.7865 40.8903 20.7031Z" fill="#5E6366"/>
<path d="M81.07 19.25L80.17 20.17C79.45 20.89 79 21.5 79 23H77V22.5C77 21.39 77.45 20.39 78.17 19.67L79.41 18.41C79.78 18.05 80 17.55 80 17C80 15.89 79.1 15 78 15C77.4696 15 76.9609 15.2107 76.5858 15.5858C76.2107 15.9609 76 16.4696 76 17H74C74 15.9391 74.4214 14.9217 75.1716 14.1716C75.9217 13.4214 76.9391 13 78 13C79.0609 13 80.0783 13.4214 80.8284 14.1716C81.5786 14.9217 82 15.9391 82 17C82 17.88 81.64 18.67 81.07 19.25ZM79 27H77V25H79V27ZM78 10C76.6868 10 75.3864 10.2587 74.1732 10.7612C72.9599 11.2638 71.8575 12.0003 70.9289 12.9289C69.0536 14.8043 68 17.3478 68 20C68 22.6522 69.0536 25.1957 70.9289 27.0711C71.8575 27.9997 72.9599 28.7362 74.1732 29.2388C75.3864 29.7413 76.6868 30 78 30C80.6522 30 83.1957 28.9464 85.0711 27.0711C86.9464 25.1957 88 22.6522 88 20C88 14.47 83.5 10 78 10Z" fill="#C6CACC"/>
</svg>
