<svg width="260" height="56" viewBox="0 0 260 56" fill="none" xmlns="http://www.w3.org/2000/svg">
<path d="M55.2988 43.6667H53.5176L53.5293 42.7467H55.2988C55.9082 42.7467 56.416 42.6198 56.8223 42.3659C57.2285 42.1081 57.5332 41.7487 57.7363 41.2878C57.9434 40.8229 58.0469 40.2799 58.0469 39.6588V39.1374C58.0469 38.6491 57.9883 38.2155 57.8711 37.8366C57.7539 37.4538 57.582 37.1315 57.3555 36.8698C57.1289 36.6042 56.8516 36.403 56.5234 36.2663C56.1992 36.1295 55.8262 36.0612 55.4043 36.0612H53.4824V35.1354H55.4043C55.9629 35.1354 56.4727 35.2292 56.9336 35.4167C57.3945 35.6003 57.791 35.8678 58.123 36.2194C58.459 36.567 58.7168 36.9889 58.8965 37.485C59.0762 37.9772 59.166 38.5319 59.166 39.1491V39.6588C59.166 40.276 59.0762 40.8327 58.8965 41.3288C58.7168 41.821 58.457 42.2409 58.1172 42.5885C57.7812 42.9362 57.375 43.2038 56.8984 43.3913C56.4258 43.5749 55.8926 43.6667 55.2988 43.6667ZM54.1211 35.1354V43.6667H52.9902V35.1354H54.1211ZM62.2789 37.3268V43.6667H61.1891V37.3268H62.2789ZM61.107 35.6452C61.107 35.4694 61.1598 35.321 61.2652 35.1999C61.3746 35.0788 61.5348 35.0182 61.7457 35.0182C61.9527 35.0182 62.1109 35.0788 62.2203 35.1999C62.3336 35.321 62.3902 35.4694 62.3902 35.6452C62.3902 35.8131 62.3336 35.9577 62.2203 36.0788C62.1109 36.196 61.9527 36.2545 61.7457 36.2545C61.5348 36.2545 61.3746 36.196 61.2652 36.0788C61.1598 35.9577 61.107 35.8131 61.107 35.6452ZM68.1105 41.985C68.1105 41.8288 68.0754 41.6842 68.0051 41.5514C67.9387 41.4147 67.8 41.2917 67.5891 41.1823C67.382 41.069 67.0695 40.9713 66.6516 40.8893C66.3 40.8151 65.9816 40.7272 65.6965 40.6256C65.4152 40.5241 65.175 40.401 64.9758 40.2565C64.7805 40.112 64.6301 39.942 64.5246 39.7467C64.4191 39.5514 64.3664 39.3229 64.3664 39.0612C64.3664 38.8112 64.4211 38.5749 64.5305 38.3522C64.6438 38.1295 64.802 37.9323 65.0051 37.7604C65.2121 37.5885 65.4602 37.4538 65.7492 37.3561C66.0383 37.2585 66.3605 37.2096 66.716 37.2096C67.2238 37.2096 67.6574 37.2995 68.0168 37.4792C68.3762 37.6588 68.6516 37.8991 68.843 38.1999C69.0344 38.4967 69.1301 38.8268 69.1301 39.1901H68.0461C68.0461 39.0143 67.9934 38.8444 67.8879 38.6803C67.7863 38.5124 67.6359 38.3737 67.4367 38.2643C67.2414 38.1549 67.0012 38.1003 66.716 38.1003C66.4152 38.1003 66.1711 38.1471 65.9836 38.2409C65.8 38.3307 65.6652 38.446 65.5793 38.5866C65.4973 38.7272 65.4563 38.8756 65.4563 39.0319C65.4563 39.1491 65.4758 39.2545 65.5148 39.3483C65.5578 39.4381 65.632 39.5221 65.7375 39.6003C65.843 39.6745 65.9914 39.7448 66.1828 39.8112C66.3742 39.8776 66.6184 39.944 66.9152 40.0104C67.4348 40.1276 67.8625 40.2682 68.1984 40.4323C68.5344 40.5963 68.7844 40.7975 68.9484 41.0358C69.1125 41.2741 69.1945 41.5631 69.1945 41.903C69.1945 42.1803 69.1359 42.4342 69.0188 42.6647C68.9055 42.8952 68.7395 43.0944 68.5207 43.2624C68.3059 43.4264 68.048 43.5553 67.7473 43.6491C67.4504 43.7389 67.1164 43.7838 66.7453 43.7838C66.1867 43.7838 65.7141 43.6842 65.3273 43.485C64.9406 43.2858 64.6477 43.028 64.4484 42.7116C64.2492 42.3952 64.1496 42.0612 64.1496 41.7096H65.2395C65.2551 42.0065 65.341 42.2428 65.4973 42.4186C65.6535 42.5905 65.8449 42.7135 66.0715 42.7878C66.298 42.8581 66.5227 42.8932 66.7453 42.8932C67.0422 42.8932 67.2902 42.8542 67.4895 42.776C67.6926 42.6979 67.8469 42.5905 67.9523 42.4538C68.0578 42.317 68.1105 42.1608 68.1105 41.985ZM72.1023 38.5456V46.1042H71.0125V37.3268H72.0086L72.1023 38.5456ZM76.3738 40.444V40.567C76.3738 41.028 76.3191 41.4557 76.2098 41.8503C76.1004 42.2409 75.9402 42.5807 75.7293 42.8698C75.5223 43.1588 75.2664 43.3835 74.9617 43.5436C74.657 43.7038 74.3074 43.7838 73.9129 43.7838C73.5105 43.7838 73.1551 43.7174 72.8465 43.5846C72.5379 43.4518 72.2762 43.2585 72.0613 43.0045C71.8465 42.7506 71.6746 42.446 71.5457 42.0905C71.4207 41.735 71.3348 41.3346 71.2879 40.8893V40.2331C71.3348 39.7643 71.4227 39.3444 71.5516 38.9733C71.6805 38.6022 71.8504 38.2858 72.0613 38.0241C72.2762 37.7585 72.5359 37.5573 72.8406 37.4206C73.1453 37.2799 73.4969 37.2096 73.8953 37.2096C74.2938 37.2096 74.6473 37.2878 74.9559 37.444C75.2645 37.5963 75.5242 37.8151 75.7352 38.1003C75.9461 38.3854 76.1043 38.7272 76.2098 39.1256C76.3191 39.5202 76.3738 39.9596 76.3738 40.444ZM75.284 40.567V40.444C75.284 40.1276 75.2508 39.8307 75.1844 39.5534C75.118 39.2721 75.0145 39.026 74.8738 38.8151C74.7371 38.6003 74.5613 38.4323 74.3465 38.3112C74.1316 38.1862 73.8758 38.1237 73.5789 38.1237C73.3055 38.1237 73.0672 38.1706 72.8641 38.2643C72.6648 38.3581 72.4949 38.485 72.3543 38.6452C72.2137 38.8014 72.0984 38.9811 72.0086 39.1842C71.9227 39.3835 71.8582 39.5905 71.8152 39.8053V41.3229C71.8934 41.5963 72.0027 41.8542 72.1434 42.0963C72.284 42.3346 72.4715 42.528 72.7059 42.6764C72.9402 42.821 73.2352 42.8932 73.5906 42.8932C73.8836 42.8932 74.1355 42.8327 74.3465 42.7116C74.5613 42.5866 74.7371 42.4167 74.8738 42.2018C75.0145 41.987 75.118 41.7409 75.1844 41.4635C75.2508 41.1823 75.284 40.8835 75.284 40.567ZM79.3344 34.6667V43.6667H78.2445V34.6667H79.3344ZM85.2129 42.5827V39.319C85.2129 39.069 85.1621 38.8522 85.0605 38.6686C84.9629 38.4811 84.8145 38.3366 84.6152 38.235C84.416 38.1335 84.1699 38.0827 83.877 38.0827C83.6035 38.0827 83.3633 38.1295 83.1562 38.2233C82.9531 38.317 82.793 38.4401 82.6758 38.5924C82.5625 38.7448 82.5059 38.9088 82.5059 39.0846H81.4219C81.4219 38.8581 81.4805 38.6335 81.5977 38.4108C81.7148 38.1881 81.8828 37.987 82.1016 37.8073C82.3242 37.6237 82.5898 37.4792 82.8984 37.3737C83.2109 37.2643 83.5586 37.2096 83.9414 37.2096C84.4023 37.2096 84.8086 37.2878 85.1602 37.444C85.5156 37.6003 85.793 37.8366 85.9922 38.153C86.1953 38.4655 86.2969 38.8581 86.2969 39.3307V42.2838C86.2969 42.4948 86.3145 42.7194 86.3496 42.9577C86.3887 43.196 86.4453 43.401 86.5195 43.5729V43.6667H85.3887C85.334 43.5417 85.291 43.3756 85.2598 43.1686C85.2285 42.9577 85.2129 42.7624 85.2129 42.5827ZM85.4004 39.8229L85.4121 40.5846H84.3164C84.0078 40.5846 83.7324 40.61 83.4902 40.6608C83.248 40.7077 83.0449 40.7799 82.8809 40.8776C82.7168 40.9753 82.5918 41.0983 82.5059 41.2467C82.4199 41.3913 82.377 41.5612 82.377 41.7565C82.377 41.9557 82.4219 42.1374 82.5117 42.3014C82.6016 42.4655 82.7363 42.5963 82.916 42.694C83.0996 42.7878 83.3242 42.8346 83.5898 42.8346C83.9219 42.8346 84.2148 42.7643 84.4688 42.6237C84.7227 42.4831 84.9238 42.3112 85.0723 42.1081C85.2246 41.9049 85.3066 41.7077 85.3184 41.5163L85.7812 42.0378C85.7539 42.2018 85.6797 42.3835 85.5586 42.5827C85.4375 42.7819 85.2754 42.9733 85.0723 43.1569C84.873 43.3366 84.6348 43.487 84.3574 43.6081C84.084 43.7253 83.7754 43.7838 83.4316 43.7838C83.002 43.7838 82.625 43.6999 82.3008 43.5319C81.9805 43.3639 81.7305 43.1393 81.5508 42.8581C81.375 42.5729 81.2871 42.2545 81.2871 41.903C81.2871 41.5631 81.3535 41.2643 81.4863 41.0065C81.6191 40.7448 81.8105 40.528 82.0605 40.3561C82.3105 40.1803 82.6113 40.0475 82.9629 39.9577C83.3145 39.8678 83.707 39.8229 84.1406 39.8229H85.4004ZM90.0895 43.0104L91.8531 37.3268H93.0133L90.4703 44.6452C90.4117 44.8014 90.3336 44.9694 90.2359 45.1491C90.1422 45.3327 90.0211 45.5065 89.8727 45.6706C89.7242 45.8346 89.5445 45.9674 89.3336 46.069C89.1266 46.1745 88.8785 46.2272 88.5895 46.2272C88.5035 46.2272 88.3941 46.2155 88.2613 46.192C88.1285 46.1686 88.0348 46.1491 87.9801 46.1335L87.9742 45.2545C88.0055 45.2585 88.0543 45.2624 88.1207 45.2663C88.191 45.2741 88.2398 45.278 88.2672 45.278C88.5133 45.278 88.7223 45.2448 88.8941 45.1784C89.066 45.1159 89.2105 45.0085 89.3277 44.8561C89.4488 44.7077 89.5523 44.5026 89.6383 44.2409L90.0895 43.0104ZM88.7945 37.3268L90.441 42.2487L90.7223 43.3913L89.943 43.7897L87.6109 37.3268H88.7945ZM98.8523 38.3229V43.6667H97.7684V37.3268H98.823L98.8523 38.3229ZM100.833 37.2917L100.827 38.2995C100.737 38.2799 100.651 38.2682 100.569 38.2643C100.491 38.2565 100.401 38.2526 100.3 38.2526C100.05 38.2526 99.8289 38.2917 99.6375 38.3698C99.4461 38.4479 99.284 38.5573 99.1512 38.6979C99.0184 38.8385 98.9129 39.0065 98.8348 39.2018C98.7605 39.3932 98.7117 39.6042 98.6883 39.8346L98.3836 40.0104C98.3836 39.6276 98.4207 39.2682 98.4949 38.9323C98.573 38.5963 98.6922 38.2995 98.8523 38.0417C99.0125 37.7799 99.2156 37.5768 99.4617 37.4323C99.7117 37.2838 100.009 37.2096 100.352 37.2096C100.43 37.2096 100.52 37.2194 100.622 37.2389C100.723 37.2545 100.794 37.2721 100.833 37.2917ZM101.83 40.567V40.4323C101.83 39.9753 101.897 39.5514 102.03 39.1608C102.162 38.7663 102.354 38.4245 102.604 38.1354C102.854 37.8424 103.157 37.6159 103.512 37.4557C103.868 37.2917 104.266 37.2096 104.707 37.2096C105.153 37.2096 105.553 37.2917 105.909 37.4557C106.268 37.6159 106.573 37.8424 106.823 38.1354C107.077 38.4245 107.27 38.7663 107.403 39.1608C107.536 39.5514 107.602 39.9753 107.602 40.4323V40.567C107.602 41.0241 107.536 41.4479 107.403 41.8385C107.27 42.2292 107.077 42.571 106.823 42.8639C106.573 43.153 106.27 43.3795 105.914 43.5436C105.563 43.7038 105.164 43.7838 104.719 43.7838C104.274 43.7838 103.873 43.7038 103.518 43.5436C103.162 43.3795 102.858 43.153 102.604 42.8639C102.354 42.571 102.162 42.2292 102.03 41.8385C101.897 41.4479 101.83 41.0241 101.83 40.567ZM102.914 40.4323V40.567C102.914 40.8835 102.952 41.1823 103.026 41.4635C103.1 41.7409 103.211 41.987 103.36 42.2018C103.512 42.4167 103.702 42.5866 103.928 42.7116C104.155 42.8327 104.418 42.8932 104.719 42.8932C105.016 42.8932 105.276 42.8327 105.498 42.7116C105.725 42.5866 105.912 42.4167 106.061 42.2018C106.209 41.987 106.321 41.7409 106.395 41.4635C106.473 41.1823 106.512 40.8835 106.512 40.567V40.4323C106.512 40.1198 106.473 39.8249 106.395 39.5475C106.321 39.2663 106.207 39.0182 106.055 38.8034C105.907 38.5846 105.719 38.4128 105.493 38.2878C105.27 38.1628 105.008 38.1003 104.707 38.1003C104.411 38.1003 104.149 38.1628 103.922 38.2878C103.7 38.4128 103.512 38.5846 103.36 38.8034C103.211 39.0182 103.1 39.2663 103.026 39.5475C102.952 39.8249 102.914 40.1198 102.914 40.4323ZM110.967 42.5417L112.596 37.3268H113.311L113.17 38.3639L111.512 43.6667H110.814L110.967 42.5417ZM109.871 37.3268L111.26 42.6003L111.359 43.6667H110.627L108.787 37.3268H109.871ZM114.869 42.5592L116.193 37.3268H117.271L115.432 43.6667H114.705L114.869 42.5592ZM113.469 37.3268L115.062 42.4538L115.244 43.6667H114.553L112.848 38.3522L112.707 37.3268H113.469ZM122.476 41.985C122.476 41.8288 122.441 41.6842 122.371 41.5514C122.304 41.4147 122.166 41.2917 121.955 41.1823C121.748 41.069 121.435 40.9713 121.017 40.8893C120.666 40.8151 120.347 40.7272 120.062 40.6256C119.781 40.5241 119.541 40.401 119.341 40.2565C119.146 40.112 118.996 39.942 118.89 39.7467C118.785 39.5514 118.732 39.3229 118.732 39.0612C118.732 38.8112 118.787 38.5749 118.896 38.3522C119.009 38.1295 119.168 37.9323 119.371 37.7604C119.578 37.5885 119.826 37.4538 120.115 37.3561C120.404 37.2585 120.726 37.2096 121.082 37.2096C121.589 37.2096 122.023 37.2995 122.382 37.4792C122.742 37.6588 123.017 37.8991 123.209 38.1999C123.4 38.4967 123.496 38.8268 123.496 39.1901H122.412C122.412 39.0143 122.359 38.8444 122.254 38.6803C122.152 38.5124 122.002 38.3737 121.802 38.2643C121.607 38.1549 121.367 38.1003 121.082 38.1003C120.781 38.1003 120.537 38.1471 120.349 38.2409C120.166 38.3307 120.031 38.446 119.945 38.5866C119.863 38.7272 119.822 38.8756 119.822 39.0319C119.822 39.1491 119.841 39.2545 119.88 39.3483C119.923 39.4381 119.998 39.5221 120.103 39.6003C120.209 39.6745 120.357 39.7448 120.548 39.8112C120.74 39.8776 120.984 39.944 121.281 40.0104C121.8 40.1276 122.228 40.2682 122.564 40.4323C122.9 40.5963 123.15 40.7975 123.314 41.0358C123.478 41.2741 123.56 41.5631 123.56 41.903C123.56 42.1803 123.502 42.4342 123.384 42.6647C123.271 42.8952 123.105 43.0944 122.886 43.2624C122.671 43.4264 122.414 43.5553 122.113 43.6491C121.816 43.7389 121.482 43.7838 121.111 43.7838C120.552 43.7838 120.08 43.6842 119.693 43.485C119.306 43.2858 119.013 43.028 118.814 42.7116C118.615 42.3952 118.515 42.0612 118.515 41.7096H119.605C119.621 42.0065 119.707 42.2428 119.863 42.4186C120.019 42.5905 120.211 42.7135 120.437 42.7878C120.664 42.8581 120.888 42.8932 121.111 42.8932C121.408 42.8932 121.656 42.8542 121.855 42.776C122.058 42.6979 122.213 42.5905 122.318 42.4538C122.423 42.317 122.476 42.1608 122.476 41.985ZM132.206 35.0885V43.6667H131.122V36.442L128.936 37.2389V36.2604L132.036 35.0885H132.206ZM136.895 42.3776V43.2506C136.895 43.6061 136.805 43.9811 136.625 44.3756C136.446 44.7741 136.194 45.1061 135.87 45.3717L135.254 44.944C135.379 44.7721 135.485 44.5963 135.571 44.4167C135.657 44.2409 135.721 44.0573 135.764 43.8659C135.811 43.6784 135.834 43.4792 135.834 43.2682V42.3776H136.895ZM140.143 38.8678H140.916C141.295 38.8678 141.607 38.8053 141.854 38.6803C142.104 38.5514 142.289 38.3776 142.41 38.1588C142.535 37.9362 142.598 37.6862 142.598 37.4088C142.598 37.0807 142.543 36.8053 142.434 36.5827C142.324 36.36 142.16 36.192 141.941 36.0788C141.723 35.9655 141.445 35.9088 141.109 35.9088C140.805 35.9088 140.535 35.9694 140.301 36.0905C140.07 36.2077 139.889 36.3756 139.756 36.5944C139.627 36.8131 139.562 37.071 139.562 37.3678H138.479C138.479 36.9342 138.588 36.5397 138.807 36.1842C139.025 35.8288 139.332 35.5456 139.727 35.3346C140.125 35.1237 140.586 35.0182 141.109 35.0182C141.625 35.0182 142.076 35.11 142.463 35.2936C142.85 35.4733 143.15 35.7428 143.365 36.1022C143.58 36.4577 143.688 36.901 143.688 37.4323C143.688 37.6471 143.637 37.8776 143.535 38.1237C143.438 38.3659 143.283 38.5924 143.072 38.8034C142.865 39.0143 142.596 39.1881 142.264 39.3249C141.932 39.4577 141.533 39.5241 141.068 39.5241H140.143V38.8678ZM140.143 39.7585V39.1081H141.068C141.611 39.1081 142.061 39.1725 142.416 39.3014C142.771 39.4303 143.051 39.6022 143.254 39.817C143.461 40.0319 143.605 40.2682 143.688 40.526C143.773 40.7799 143.816 41.0338 143.816 41.2878C143.816 41.6862 143.748 42.0397 143.611 42.3483C143.479 42.6569 143.289 42.9186 143.043 43.1335C142.801 43.3483 142.516 43.5104 142.188 43.6198C141.859 43.7292 141.502 43.7838 141.115 43.7838C140.744 43.7838 140.395 43.7311 140.066 43.6256C139.742 43.5202 139.455 43.3678 139.205 43.1686C138.955 42.9655 138.76 42.7174 138.619 42.4245C138.479 42.1276 138.408 41.7897 138.408 41.4108H139.492C139.492 41.7077 139.557 41.9674 139.686 42.1901C139.818 42.4128 140.006 42.5866 140.248 42.7116C140.494 42.8327 140.783 42.8932 141.115 42.8932C141.447 42.8932 141.732 42.8366 141.971 42.7233C142.213 42.6061 142.398 42.4303 142.527 42.196C142.66 41.9616 142.727 41.6667 142.727 41.3112C142.727 40.9557 142.652 40.6647 142.504 40.4381C142.355 40.2077 142.145 40.0378 141.871 39.9284C141.602 39.8151 141.283 39.7585 140.916 39.7585H140.143ZM146.812 42.3776V43.2506C146.812 43.6061 146.722 43.9811 146.543 44.3756C146.363 44.7741 146.111 45.1061 145.787 45.3717L145.171 44.944C145.296 44.7721 145.402 44.5963 145.488 44.4167C145.574 44.2409 145.638 44.0573 145.681 43.8659C145.728 43.6784 145.752 43.4792 145.752 43.2682V42.3776H146.812ZM149.849 39.6061L148.982 39.3835L149.409 35.1354H153.786V36.1374H150.329L150.071 38.4577C150.228 38.3678 150.425 38.2838 150.663 38.2057C150.905 38.1276 151.183 38.0885 151.495 38.0885C151.89 38.0885 152.243 38.1569 152.556 38.2936C152.868 38.4264 153.134 38.6178 153.353 38.8678C153.575 39.1178 153.745 39.4186 153.863 39.7702C153.98 40.1217 154.038 40.5143 154.038 40.9479C154.038 41.3581 153.982 41.735 153.868 42.0788C153.759 42.4225 153.593 42.7233 153.37 42.9811C153.148 43.235 152.866 43.4323 152.527 43.5729C152.191 43.7135 151.794 43.7838 151.337 43.7838C150.993 43.7838 150.667 43.737 150.359 43.6432C150.054 43.5456 149.78 43.3991 149.538 43.2038C149.3 43.0045 149.105 42.7585 148.952 42.4655C148.804 42.1686 148.71 41.821 148.671 41.4225H149.702C149.749 41.7428 149.843 42.0124 149.984 42.2311C150.124 42.4499 150.308 42.6159 150.534 42.7292C150.765 42.8385 151.032 42.8932 151.337 42.8932C151.595 42.8932 151.823 42.8483 152.023 42.7585C152.222 42.6686 152.39 42.5397 152.527 42.3717C152.663 42.2038 152.767 42.0006 152.837 41.7624C152.911 41.5241 152.948 41.2565 152.948 40.9596C152.948 40.6901 152.911 40.4401 152.837 40.2096C152.763 39.9792 152.652 39.778 152.503 39.6061C152.359 39.4342 152.181 39.3014 151.97 39.2077C151.759 39.11 151.517 39.0612 151.243 39.0612C150.88 39.0612 150.605 39.11 150.417 39.2077C150.234 39.3053 150.044 39.4381 149.849 39.6061ZM161.752 43.7838C161.311 43.7838 160.911 43.7096 160.551 43.5612C160.196 43.4088 159.889 43.196 159.631 42.9225C159.377 42.6491 159.182 42.3249 159.045 41.9499C158.909 41.5749 158.84 41.1647 158.84 40.7194V40.4733C158.84 39.9577 158.916 39.4987 159.069 39.0963C159.221 38.6901 159.428 38.3463 159.69 38.0651C159.952 37.7838 160.248 37.571 160.58 37.4264C160.912 37.2819 161.256 37.2096 161.612 37.2096C162.065 37.2096 162.455 37.2878 162.784 37.444C163.116 37.6003 163.387 37.819 163.598 38.1003C163.809 38.3776 163.965 38.7057 164.067 39.0846C164.168 39.4596 164.219 39.8698 164.219 40.3151V40.8014H159.485V39.9167H163.135V39.8346C163.12 39.5534 163.061 39.2799 162.959 39.0143C162.862 38.7487 162.705 38.5299 162.491 38.3581C162.276 38.1862 161.983 38.1003 161.612 38.1003C161.366 38.1003 161.139 38.153 160.932 38.2585C160.725 38.36 160.547 38.5124 160.399 38.7155C160.25 38.9186 160.135 39.1667 160.053 39.4596C159.971 39.7526 159.93 40.0905 159.93 40.4733V40.7194C159.93 41.0202 159.971 41.3034 160.053 41.569C160.139 41.8307 160.262 42.0612 160.422 42.2604C160.586 42.4596 160.784 42.6159 161.014 42.7292C161.248 42.8424 161.514 42.8991 161.811 42.8991C162.194 42.8991 162.518 42.821 162.784 42.6647C163.049 42.5085 163.282 42.2995 163.481 42.0378L164.137 42.5592C164 42.7663 163.827 42.9635 163.616 43.151C163.405 43.3385 163.145 43.4909 162.836 43.6081C162.532 43.7253 162.17 43.7838 161.752 43.7838ZM168.539 37.3268V38.1588H165.111V37.3268H168.539ZM166.271 35.7858H167.355V42.0963C167.355 42.3112 167.389 42.4733 167.455 42.5827C167.521 42.692 167.607 42.7643 167.713 42.7995C167.818 42.8346 167.932 42.8522 168.053 42.8522C168.143 42.8522 168.236 42.8444 168.334 42.8288C168.436 42.8092 168.512 42.7936 168.562 42.7819L168.568 43.6667C168.482 43.694 168.369 43.7194 168.229 43.7428C168.092 43.7702 167.926 43.7838 167.73 43.7838C167.465 43.7838 167.221 43.7311 166.998 43.6256C166.775 43.5202 166.598 43.3444 166.465 43.0983C166.336 42.8483 166.271 42.5124 166.271 42.0905V35.7858ZM172.748 42.8932C173.005 42.8932 173.244 42.8405 173.463 42.735C173.681 42.6295 173.861 42.485 174.002 42.3014C174.142 42.1139 174.222 41.901 174.242 41.6628H175.273C175.254 42.0378 175.127 42.3874 174.892 42.7116C174.662 43.0319 174.359 43.2917 173.984 43.4909C173.609 43.6862 173.197 43.7838 172.748 43.7838C172.271 43.7838 171.855 43.6999 171.5 43.5319C171.148 43.3639 170.855 43.1335 170.621 42.8405C170.39 42.5475 170.216 42.2116 170.099 41.8327C169.986 41.4499 169.929 41.0456 169.929 40.6198V40.3737C169.929 39.9479 169.986 39.5456 170.099 39.1667C170.216 38.7838 170.39 38.446 170.621 38.153C170.855 37.86 171.148 37.6295 171.5 37.4616C171.855 37.2936 172.271 37.2096 172.748 37.2096C173.244 37.2096 173.677 37.3112 174.048 37.5143C174.42 37.7135 174.711 37.987 174.921 38.3346C175.136 38.6784 175.254 39.069 175.273 39.5065H174.242C174.222 39.2448 174.148 39.0085 174.019 38.7975C173.894 38.5866 173.722 38.4186 173.504 38.2936C173.289 38.1647 173.037 38.1003 172.748 38.1003C172.416 38.1003 172.136 38.1667 171.91 38.2995C171.687 38.4284 171.509 38.6042 171.377 38.8268C171.248 39.0456 171.154 39.2897 171.095 39.5592C171.041 39.8249 171.013 40.0963 171.013 40.3737V40.6198C171.013 40.8971 171.041 41.1706 171.095 41.4401C171.15 41.7096 171.242 41.9538 171.371 42.1725C171.504 42.3913 171.681 42.567 171.904 42.6999C172.13 42.8288 172.412 42.8932 172.748 42.8932Z" fill="#5E6366"/>
<path d="M63.504 17.4C63.504 18.2213 63.3707 18.984 63.104 19.688C62.8373 20.3813 62.464 20.9893 61.984 21.512C61.504 22.0347 60.9333 22.44 60.272 22.728C59.6107 23.016 58.8907 23.16 58.112 23.16C57.3227 23.16 56.5973 23.016 55.936 22.728C55.2853 22.44 54.72 22.0347 54.24 21.512C53.76 20.9893 53.3867 20.3813 53.12 19.688C52.8533 18.984 52.72 18.2213 52.72 17.4C52.72 16.568 52.8533 15.8053 53.12 15.112C53.3867 14.408 53.76 13.8 54.24 13.288C54.72 12.7653 55.2853 12.36 55.936 12.072C56.5973 11.784 57.3227 11.64 58.112 11.64C58.8907 11.64 59.6107 11.784 60.272 12.072C60.9333 12.36 61.504 12.7653 61.984 13.288C62.464 13.8 62.8373 14.408 63.104 15.112C63.3707 15.8053 63.504 16.568 63.504 17.4ZM62.128 17.4C62.128 16.5253 61.952 15.752 61.6 15.08C61.2587 14.408 60.7893 13.88 60.192 13.496C59.5947 13.112 58.9013 12.92 58.112 12.92C57.3227 12.92 56.624 13.112 56.016 13.496C55.4187 13.88 54.9493 14.408 54.608 15.08C54.2667 15.752 54.096 16.5253 54.096 17.4C54.096 18.264 54.2667 19.0373 54.608 19.72C54.9493 20.392 55.4187 20.92 56.016 21.304C56.624 21.688 57.3227 21.88 58.112 21.88C58.9013 21.88 59.5947 21.688 60.192 21.304C60.7893 20.92 61.2587 20.392 61.6 19.72C61.952 19.0373 62.128 18.264 62.128 17.4ZM72.7837 11.16C72.9651 11.16 73.1144 11.224 73.2317 11.352C73.3597 11.4693 73.4237 11.6187 73.4237 11.8V22.344C73.4237 22.5253 73.3597 22.68 73.2317 22.808C73.1144 22.936 72.9651 23 72.7837 23C72.5917 23 72.4371 22.936 72.3197 22.808C72.2024 22.68 72.1437 22.5253 72.1437 22.344V20.824L72.4478 20.712C72.4478 20.968 72.3678 21.24 72.2077 21.528C72.0477 21.8053 71.8291 22.0667 71.5517 22.312C71.2744 22.5573 70.9437 22.76 70.5598 22.92C70.1864 23.08 69.7811 23.16 69.3438 23.16C68.6291 23.16 67.9784 22.9733 67.3917 22.6C66.8157 22.2267 66.3571 21.7147 66.0157 21.064C65.6851 20.4133 65.5197 19.672 65.5197 18.84C65.5197 17.9973 65.6851 17.2507 66.0157 16.6C66.3571 15.9493 66.8157 15.4427 67.3917 15.08C67.9677 14.7067 68.6077 14.52 69.3117 14.52C69.7597 14.52 70.1811 14.5947 70.5757 14.744C70.9704 14.8933 71.3117 15.096 71.5998 15.352C71.8984 15.608 72.1331 15.8907 72.3038 16.2C72.4744 16.5093 72.5598 16.8187 72.5598 17.128L72.1437 17.032V11.8C72.1437 11.6187 72.2024 11.4693 72.3197 11.352C72.4371 11.224 72.5917 11.16 72.7837 11.16ZM69.4877 21.976C70.0211 21.976 70.4904 21.8427 70.8958 21.576C71.3118 21.2987 71.6318 20.9253 71.8558 20.456C72.0904 19.976 72.2077 19.4373 72.2077 18.84C72.2077 18.232 72.0904 17.6933 71.8558 17.224C71.6318 16.7547 71.3118 16.3867 70.8958 16.12C70.4904 15.8427 70.0211 15.704 69.4877 15.704C68.9651 15.704 68.4957 15.8427 68.0797 16.12C67.6744 16.3867 67.3544 16.7547 67.1197 17.224C66.8851 17.6933 66.7677 18.232 66.7677 18.84C66.7677 19.4267 66.8851 19.96 67.1197 20.44C67.3544 20.9093 67.6744 21.2827 68.0797 21.56C68.4957 21.8373 68.9651 21.976 69.4877 21.976ZM83.0519 11.16C83.2332 11.16 83.3825 11.224 83.4999 11.352C83.6279 11.4693 83.6919 11.6187 83.6919 11.8V22.344C83.6919 22.5253 83.6279 22.68 83.4999 22.808C83.3825 22.936 83.2332 23 83.0519 23C82.8599 23 82.7052 22.936 82.5879 22.808C82.4705 22.68 82.4119 22.5253 82.4119 22.344V20.824L82.7159 20.712C82.7159 20.968 82.6359 21.24 82.4759 21.528C82.3159 21.8053 82.0972 22.0667 81.8199 22.312C81.5425 22.5573 81.2119 22.76 80.8279 22.92C80.4545 23.08 80.0492 23.16 79.6119 23.16C78.8972 23.16 78.2465 22.9733 77.6599 22.6C77.0839 22.2267 76.6252 21.7147 76.2839 21.064C75.9532 20.4133 75.7879 19.672 75.7879 18.84C75.7879 17.9973 75.9532 17.2507 76.2839 16.6C76.6252 15.9493 77.0839 15.4427 77.6599 15.08C78.2359 14.7067 78.8759 14.52 79.5799 14.52C80.0279 14.52 80.4492 14.5947 80.8439 14.744C81.2385 14.8933 81.5799 15.096 81.8679 15.352C82.1665 15.608 82.4012 15.8907 82.5719 16.2C82.7425 16.5093 82.8279 16.8187 82.8279 17.128L82.4119 17.032V11.8C82.4119 11.6187 82.4705 11.4693 82.5879 11.352C82.7052 11.224 82.8599 11.16 83.0519 11.16ZM79.7559 21.976C80.2892 21.976 80.7585 21.8427 81.1639 21.576C81.5799 21.2987 81.8999 20.9253 82.1239 20.456C82.3585 19.976 82.4759 19.4373 82.4759 18.84C82.4759 18.232 82.3585 17.6933 82.1239 17.224C81.8999 16.7547 81.5799 16.3867 81.1639 16.12C80.7585 15.8427 80.2892 15.704 79.7559 15.704C79.2332 15.704 78.7639 15.8427 78.3479 16.12C77.9425 16.3867 77.6225 16.7547 77.3879 17.224C77.1532 17.6933 77.0359 18.232 77.0359 18.84C77.0359 19.4267 77.1532 19.96 77.3879 20.44C77.6225 20.9093 77.9425 21.2827 78.3479 21.56C78.7639 21.8373 79.2332 21.976 79.7559 21.976ZM91.9902 23C91.8089 23 91.6542 22.936 91.5262 22.808C91.4089 22.68 91.3502 22.5253 91.3502 22.344V15.368C91.3502 15.1867 91.4089 15.0373 91.5262 14.92C91.6542 14.792 91.8089 14.728 91.9902 14.728C92.1822 14.728 92.3369 14.792 92.4542 14.92C92.5716 15.0373 92.6302 15.1867 92.6302 15.368V17.48L92.4382 17.144C92.5022 16.8133 92.6142 16.4933 92.7742 16.184C92.9449 15.864 93.1582 15.5813 93.4142 15.336C93.6702 15.08 93.9636 14.8827 94.2942 14.744C94.6249 14.5947 94.9876 14.52 95.3822 14.52C95.6169 14.52 95.8302 14.5787 96.0222 14.696C96.2249 14.8027 96.3262 14.9573 96.3262 15.16C96.3262 15.384 96.2676 15.5493 96.1502 15.656C96.0329 15.7627 95.8996 15.816 95.7502 15.816C95.6116 15.816 95.4782 15.7893 95.3502 15.736C95.2222 15.672 95.0622 15.64 94.8702 15.64C94.6036 15.64 94.3369 15.7147 94.0702 15.864C93.8142 16.0027 93.5742 16.2053 93.3502 16.472C93.1369 16.7387 92.9609 17.0427 92.8222 17.384C92.6942 17.7147 92.6302 18.072 92.6302 18.456V22.344C92.6302 22.5253 92.5662 22.68 92.4382 22.808C92.3209 22.936 92.1716 23 91.9902 23ZM105.709 18.84C105.709 19.672 105.522 20.4133 105.149 21.064C104.786 21.7147 104.29 22.2267 103.661 22.6C103.042 22.9733 102.343 23.16 101.565 23.16C100.786 23.16 100.082 22.9733 99.4528 22.6C98.8234 22.2267 98.3221 21.7147 97.9488 21.064C97.5861 20.4133 97.4048 19.672 97.4048 18.84C97.4048 18.008 97.5861 17.2667 97.9488 16.616C98.3221 15.9653 98.8234 15.4533 99.4528 15.08C100.082 14.7067 100.786 14.52 101.565 14.52C102.343 14.52 103.042 14.7067 103.661 15.08C104.29 15.4533 104.786 15.9653 105.149 16.616C105.522 17.2667 105.709 18.008 105.709 18.84ZM104.429 18.84C104.429 18.2213 104.301 17.6773 104.045 17.208C103.799 16.7387 103.458 16.3707 103.021 16.104C102.594 15.8373 102.109 15.704 101.565 15.704C101.021 15.704 100.53 15.8373 100.093 16.104C99.6661 16.3707 99.3248 16.7387 99.0688 17.208C98.8128 17.6773 98.6848 18.2213 98.6848 18.84C98.6848 19.448 98.8128 19.9867 99.0688 20.456C99.3248 20.9253 99.6661 21.2987 100.093 21.576C100.53 21.8427 101.021 21.976 101.565 21.976C102.109 21.976 102.594 21.8427 103.021 21.576C103.458 21.2987 103.799 20.9253 104.045 20.456C104.301 19.9867 104.429 19.448 104.429 18.84ZM117.834 14.584C118.005 14.584 118.149 14.6427 118.266 14.76C118.394 14.8773 118.458 15.032 118.458 15.224C118.458 15.2667 118.453 15.3147 118.442 15.368C118.442 15.4107 118.431 15.4533 118.41 15.496L115.946 22.584C115.893 22.7227 115.802 22.8293 115.674 22.904C115.557 22.9787 115.429 23.0107 115.29 23C115.045 22.9893 114.858 22.8507 114.73 22.584L112.714 17.528L113.034 17.576L111.21 22.584C111.093 22.8507 110.906 22.9893 110.65 23C110.511 23.0107 110.378 22.9787 110.25 22.904C110.122 22.8293 110.037 22.7227 109.994 22.584L107.482 15.496C107.45 15.4 107.434 15.3093 107.434 15.224C107.434 15.0533 107.493 14.904 107.61 14.776C107.727 14.648 107.887 14.584 108.09 14.584C108.218 14.584 108.335 14.616 108.442 14.68C108.549 14.744 108.623 14.8453 108.666 14.984L110.826 21.288L110.49 21.272L112.362 16.472C112.469 16.2053 112.666 16.072 112.954 16.072C113.103 16.072 113.221 16.1093 113.306 16.184C113.402 16.248 113.471 16.344 113.514 16.472L115.466 21.272L115.066 21.304L117.226 14.984C117.322 14.7173 117.525 14.584 117.834 14.584ZM120.081 21.688C119.985 21.5493 119.943 21.4053 119.953 21.256C119.964 21.096 120.055 20.9573 120.225 20.84C120.332 20.7653 120.455 20.7333 120.593 20.744C120.743 20.7547 120.876 20.824 120.993 20.952C121.292 21.304 121.633 21.5867 122.017 21.8C122.401 22.0027 122.871 22.104 123.425 22.104C123.681 22.0933 123.937 22.0507 124.193 21.976C124.449 21.9013 124.663 21.7733 124.833 21.592C125.015 21.4 125.105 21.1493 125.105 20.84C125.105 20.5413 125.015 20.3067 124.833 20.136C124.652 19.9547 124.417 19.8107 124.129 19.704C123.841 19.5867 123.527 19.4853 123.185 19.4C122.833 19.304 122.487 19.1973 122.145 19.08C121.804 18.952 121.495 18.7973 121.217 18.616C120.951 18.424 120.732 18.1893 120.561 17.912C120.401 17.624 120.321 17.2773 120.321 16.872C120.321 16.392 120.449 15.976 120.705 15.624C120.972 15.272 121.324 15 121.761 14.808C122.209 14.616 122.695 14.52 123.217 14.52C123.516 14.52 123.825 14.5573 124.145 14.632C124.476 14.696 124.796 14.8133 125.105 14.984C125.415 15.144 125.687 15.368 125.921 15.656C126.017 15.7627 126.071 15.896 126.081 16.056C126.092 16.216 126.023 16.36 125.873 16.488C125.756 16.5733 125.623 16.6107 125.473 16.6C125.335 16.5893 125.217 16.536 125.121 16.44C124.897 16.1733 124.615 15.9707 124.273 15.832C123.943 15.6827 123.575 15.608 123.169 15.608C122.913 15.608 122.663 15.6453 122.417 15.72C122.172 15.7947 121.964 15.9227 121.793 16.104C121.633 16.2747 121.553 16.5147 121.553 16.824C121.564 17.112 121.66 17.3467 121.841 17.528C122.023 17.7093 122.268 17.8587 122.577 17.976C122.887 18.0827 123.228 18.1893 123.601 18.296C123.943 18.3813 124.268 18.4827 124.577 18.6C124.897 18.7067 125.185 18.8507 125.441 19.032C125.697 19.2133 125.9 19.448 126.049 19.736C126.199 20.0133 126.273 20.3653 126.273 20.792C126.273 21.2827 126.135 21.7093 125.857 22.072C125.58 22.424 125.212 22.696 124.753 22.888C124.305 23.0693 123.82 23.16 123.297 23.16C122.711 23.16 122.129 23.048 121.553 22.824C120.988 22.6 120.497 22.2213 120.081 21.688ZM141.266 18.84C141.266 19.672 141.079 20.4133 140.706 21.064C140.343 21.7147 139.847 22.2267 139.218 22.6C138.599 22.9733 137.9 23.16 137.122 23.16C136.343 23.16 135.639 22.9733 135.01 22.6C134.38 22.2267 133.879 21.7147 133.506 21.064C133.143 20.4133 132.962 19.672 132.962 18.84C132.962 18.008 133.143 17.2667 133.506 16.616C133.879 15.9653 134.38 15.4533 135.01 15.08C135.639 14.7067 136.343 14.52 137.122 14.52C137.9 14.52 138.599 14.7067 139.218 15.08C139.847 15.4533 140.343 15.9653 140.706 16.616C141.079 17.2667 141.266 18.008 141.266 18.84ZM139.986 18.84C139.986 18.2213 139.858 17.6773 139.602 17.208C139.356 16.7387 139.015 16.3707 138.578 16.104C138.151 15.8373 137.666 15.704 137.122 15.704C136.578 15.704 136.087 15.8373 135.65 16.104C135.223 16.3707 134.882 16.7387 134.626 17.208C134.37 17.6773 134.242 18.2213 134.242 18.84C134.242 19.448 134.37 19.9867 134.626 20.456C134.882 20.9253 135.223 21.2987 135.65 21.576C136.087 21.8427 136.578 21.976 137.122 21.976C137.666 21.976 138.151 21.8427 138.578 21.576C139.015 21.2987 139.356 20.9253 139.602 20.456C139.858 19.9867 139.986 19.448 139.986 18.84ZM147.087 11.192C147.268 11.192 147.455 11.2133 147.647 11.256C147.85 11.2987 148.02 11.3733 148.159 11.48C148.308 11.5867 148.383 11.7307 148.383 11.912C148.383 12.0827 148.33 12.2267 148.223 12.344C148.116 12.4507 147.988 12.504 147.839 12.504C147.743 12.504 147.61 12.4773 147.439 12.424C147.268 12.36 147.092 12.328 146.911 12.328C146.666 12.328 146.463 12.3813 146.303 12.488C146.154 12.5947 146.042 12.7387 145.967 12.92C145.903 13.0907 145.871 13.2827 145.871 13.496V22.344C145.871 22.5253 145.807 22.68 145.679 22.808C145.562 22.936 145.412 23 145.231 23C145.039 23 144.884 22.936 144.767 22.808C144.65 22.68 144.591 22.5253 144.591 22.344V13.512C144.591 12.7973 144.81 12.232 145.247 11.816C145.695 11.4 146.308 11.192 147.087 11.192ZM147.535 14.856C147.706 14.856 147.85 14.9147 147.967 15.032C148.084 15.1387 148.143 15.2773 148.143 15.448C148.143 15.6187 148.084 15.7627 147.967 15.88C147.85 15.9867 147.706 16.04 147.535 16.04H143.519C143.348 16.04 143.204 15.9813 143.087 15.864C142.97 15.7467 142.911 15.608 142.911 15.448C142.911 15.2667 142.97 15.1227 143.087 15.016C143.204 14.9093 143.348 14.856 143.519 14.856H147.535ZM161.905 11.16C162.086 11.16 162.236 11.224 162.353 11.352C162.481 11.4693 162.545 11.6187 162.545 11.8V22.344C162.545 22.5253 162.481 22.68 162.353 22.808C162.236 22.936 162.086 23 161.905 23C161.713 23 161.558 22.936 161.441 22.808C161.324 22.68 161.265 22.5253 161.265 22.344V20.824L161.569 20.712C161.569 20.968 161.489 21.24 161.329 21.528C161.169 21.8053 160.95 22.0667 160.673 22.312C160.396 22.5573 160.065 22.76 159.681 22.92C159.308 23.08 158.902 23.16 158.465 23.16C157.75 23.16 157.1 22.9733 156.513 22.6C155.937 22.2267 155.478 21.7147 155.137 21.064C154.806 20.4133 154.641 19.672 154.641 18.84C154.641 17.9973 154.806 17.2507 155.137 16.6C155.478 15.9493 155.937 15.4427 156.513 15.08C157.089 14.7067 157.729 14.52 158.433 14.52C158.881 14.52 159.302 14.5947 159.697 14.744C160.092 14.8933 160.433 15.096 160.721 15.352C161.02 15.608 161.254 15.8907 161.425 16.2C161.596 16.5093 161.681 16.8187 161.681 17.128L161.265 17.032V11.8C161.265 11.6187 161.324 11.4693 161.441 11.352C161.558 11.224 161.713 11.16 161.905 11.16ZM158.609 21.976C159.142 21.976 159.612 21.8427 160.017 21.576C160.433 21.2987 160.753 20.9253 160.977 20.456C161.212 19.976 161.329 19.4373 161.329 18.84C161.329 18.232 161.212 17.6933 160.977 17.224C160.753 16.7547 160.433 16.3867 160.017 16.12C159.612 15.8427 159.142 15.704 158.609 15.704C158.086 15.704 157.617 15.8427 157.201 16.12C156.796 16.3867 156.476 16.7547 156.241 17.224C156.006 17.6933 155.889 18.232 155.889 18.84C155.889 19.4267 156.006 19.96 156.241 20.44C156.476 20.9093 156.796 21.2827 157.201 21.56C157.617 21.8373 158.086 21.976 158.609 21.976ZM172.173 14.648C172.354 14.648 172.504 14.712 172.621 14.84C172.749 14.9573 172.813 15.1067 172.813 15.288V22.344C172.813 22.5253 172.749 22.68 172.621 22.808C172.504 22.936 172.354 23 172.173 23C171.981 23 171.826 22.936 171.709 22.808C171.592 22.68 171.533 22.5253 171.533 22.344V20.824L171.837 20.792C171.837 21.0267 171.757 21.2827 171.597 21.56C171.437 21.8373 171.218 22.0987 170.941 22.344C170.664 22.5787 170.333 22.776 169.949 22.936C169.576 23.0853 169.17 23.16 168.733 23.16C168.008 23.16 167.357 22.9733 166.781 22.6C166.205 22.216 165.746 21.6987 165.405 21.048C165.074 20.3973 164.909 19.656 164.909 18.824C164.909 17.9813 165.074 17.24 165.405 16.6C165.746 15.9493 166.205 15.4427 166.781 15.08C167.357 14.7067 167.997 14.52 168.701 14.52C169.16 14.52 169.586 14.5947 169.981 14.744C170.376 14.8933 170.717 15.096 171.005 15.352C171.304 15.608 171.533 15.8907 171.693 16.2C171.864 16.5093 171.949 16.8187 171.949 17.128L171.533 17.032V15.288C171.533 15.1067 171.592 14.9573 171.709 14.84C171.826 14.712 171.981 14.648 172.173 14.648ZM168.877 21.976C169.41 21.976 169.88 21.8373 170.285 21.56C170.701 21.2827 171.021 20.9093 171.245 20.44C171.48 19.96 171.597 19.4213 171.597 18.824C171.597 18.2373 171.48 17.7093 171.245 17.24C171.021 16.76 170.701 16.3867 170.285 16.12C169.88 15.8427 169.41 15.704 168.877 15.704C168.354 15.704 167.885 15.8373 167.469 16.104C167.064 16.3707 166.744 16.7387 166.509 17.208C166.274 17.6773 166.157 18.216 166.157 18.824C166.157 19.4213 166.269 19.96 166.493 20.44C166.728 20.9093 167.048 21.2827 167.453 21.56C167.869 21.8373 168.344 21.976 168.877 21.976ZM175.305 14.776H179.065C179.236 14.776 179.375 14.8347 179.481 14.952C179.599 15.0693 179.657 15.208 179.657 15.368C179.657 15.5387 179.599 15.6827 179.481 15.8C179.375 15.9067 179.236 15.96 179.065 15.96H175.305C175.145 15.96 175.007 15.9013 174.889 15.784C174.772 15.6667 174.713 15.5227 174.713 15.352C174.713 15.192 174.772 15.0587 174.889 14.952C175.007 14.8347 175.145 14.776 175.305 14.776ZM176.985 12.6C177.167 12.6 177.316 12.664 177.433 12.792C177.551 12.9093 177.609 13.0587 177.609 13.24V20.968C177.609 21.224 177.647 21.416 177.721 21.544C177.796 21.672 177.892 21.7627 178.009 21.816C178.137 21.8587 178.26 21.88 178.377 21.88C178.484 21.88 178.575 21.864 178.649 21.832C178.735 21.7893 178.831 21.768 178.937 21.768C179.044 21.768 179.14 21.8213 179.225 21.928C179.321 22.024 179.369 22.152 179.369 22.312C179.369 22.504 179.257 22.6693 179.033 22.808C178.809 22.936 178.559 23 178.281 23C178.132 23 177.945 22.9893 177.721 22.968C177.508 22.9467 177.295 22.8773 177.081 22.76C176.868 22.6427 176.687 22.4507 176.537 22.184C176.399 21.9067 176.329 21.5227 176.329 21.032V13.24C176.329 13.0587 176.393 12.9093 176.521 12.792C176.649 12.664 176.804 12.6 176.985 12.6ZM188.694 14.648C188.875 14.648 189.024 14.712 189.142 14.84C189.27 14.9573 189.334 15.1067 189.334 15.288V22.344C189.334 22.5253 189.27 22.68 189.142 22.808C189.024 22.936 188.875 23 188.694 23C188.502 23 188.347 22.936 188.23 22.808C188.112 22.68 188.054 22.5253 188.054 22.344V20.824L188.358 20.792C188.358 21.0267 188.278 21.2827 188.118 21.56C187.958 21.8373 187.739 22.0987 187.462 22.344C187.184 22.5787 186.854 22.776 186.47 22.936C186.096 23.0853 185.691 23.16 185.254 23.16C184.528 23.16 183.878 22.9733 183.302 22.6C182.726 22.216 182.267 21.6987 181.926 21.048C181.595 20.3973 181.43 19.656 181.43 18.824C181.43 17.9813 181.595 17.24 181.926 16.6C182.267 15.9493 182.726 15.4427 183.302 15.08C183.878 14.7067 184.518 14.52 185.222 14.52C185.68 14.52 186.107 14.5947 186.502 14.744C186.896 14.8933 187.238 15.096 187.526 15.352C187.824 15.608 188.054 15.8907 188.214 16.2C188.384 16.5093 188.47 16.8187 188.47 17.128L188.054 17.032V15.288C188.054 15.1067 188.112 14.9573 188.23 14.84C188.347 14.712 188.502 14.648 188.694 14.648ZM185.398 21.976C185.931 21.976 186.4 21.8373 186.806 21.56C187.222 21.2827 187.542 20.9093 187.766 20.44C188 19.96 188.118 19.4213 188.118 18.824C188.118 18.2373 188 17.7093 187.766 17.24C187.542 16.76 187.222 16.3867 186.806 16.12C186.4 15.8427 185.931 15.704 185.398 15.704C184.875 15.704 184.406 15.8373 183.99 16.104C183.584 16.3707 183.264 16.7387 183.03 17.208C182.795 17.6773 182.678 18.216 182.678 18.824C182.678 19.4213 182.79 19.96 183.014 20.44C183.248 20.9093 183.568 21.2827 183.974 21.56C184.39 21.8373 184.864 21.976 185.398 21.976Z" fill="black" fill-opacity="0.87"/>
<path d="M33.78 18L38 22.22L22.44 37.8L14 29.35L18.22 25.13L22.44 29.35L33.78 18ZM33.78 20.8L22.44 32.16L18.22 27.99L16.81 29.35L22.44 34.97L35.19 22.22L33.78 20.8Z"/>
</svg>
