<svg width="176" height="27" viewBox="0 0 176 27" fill="none" xmlns="http://www.w3.org/2000/svg">
<path d="M10.818 2.2C12.9487 2.2 14.7733 2.73266 16.292 3.798C17.8107 4.86333 18.9553 6.30267 19.726 8.116C20.4967 9.90667 20.882 11.9013 20.882 14.1C20.882 16.3213 20.4967 18.3387 19.726 20.152C18.9553 21.9427 17.8107 23.3707 16.292 24.436C14.7733 25.4787 12.9487 26 10.818 26H2.454C2.00067 26 1.61533 25.8413 1.298 25.524C0.980667 25.2067 0.822 24.8213 0.822 24.368V3.832C0.822 3.37867 0.980667 2.99333 1.298 2.676C1.61533 2.35867 2.00067 2.2 2.454 2.2H10.818ZM10.478 22.872C12.79 22.872 14.524 22.056 15.68 20.424C16.836 18.7693 17.414 16.6613 17.414 14.1C17.414 11.5613 16.8247 9.46467 15.646 7.81C14.49 6.15533 12.7673 5.328 10.478 5.328H4.188V22.872H10.478ZM39.4851 7.946C39.9611 7.946 40.3464 8.10467 40.6411 8.422C40.9584 8.71667 41.1171 9.11333 41.1171 9.612V24.368C41.1171 24.8213 40.9584 25.2067 40.6411 25.524C40.3464 25.8413 39.9611 26 39.4851 26C39.0091 26 38.6238 25.8527 38.3291 25.558C38.0344 25.2407 37.8871 24.844 37.8871 24.368V23.484C37.2978 24.2773 36.4931 24.9573 35.4731 25.524C34.4531 26.068 33.3538 26.34 32.1751 26.34C30.6338 26.34 29.2284 25.9433 27.9591 25.15C26.7124 24.3567 25.7264 23.2573 25.0011 21.852C24.2984 20.424 23.9471 18.826 23.9471 17.058C23.9471 15.29 24.2984 13.7033 25.0011 12.298C25.7264 10.87 26.7124 9.75933 27.9591 8.966C29.2058 8.17267 30.5771 7.776 32.0731 7.776C33.2744 7.776 34.3851 8.02533 35.4051 8.524C36.4478 9.02267 37.2751 9.65733 37.8871 10.428V9.612C37.8871 9.136 38.0344 8.73933 38.3291 8.422C38.6238 8.10467 39.0091 7.946 39.4851 7.946ZM32.5491 23.348C33.6144 23.348 34.5551 23.076 35.3711 22.532C36.2098 21.988 36.8558 21.24 37.3091 20.288C37.7851 19.336 38.0231 18.2593 38.0231 17.058C38.0231 15.8793 37.7851 14.814 37.3091 13.862C36.8558 12.91 36.2098 12.162 35.3711 11.618C34.5551 11.0513 33.6144 10.768 32.5491 10.768C31.4838 10.768 30.5318 11.04 29.6931 11.584C28.8771 12.128 28.2311 12.876 27.7551 13.828C27.3018 14.78 27.0751 15.8567 27.0751 17.058C27.0751 18.2593 27.3018 19.336 27.7551 20.288C28.2311 21.24 28.8771 21.988 29.6931 22.532C30.5318 23.076 31.4838 23.348 32.5491 23.348ZM45.1499 23.212C44.9459 22.8947 44.8439 22.5887 44.8439 22.294C44.8439 21.8407 45.0819 21.4553 45.5579 21.138C45.7845 20.9793 46.0452 20.9 46.3399 20.9C46.7479 20.9 47.1219 21.07 47.4619 21.41C48.1419 22.1807 48.8672 22.7587 49.6379 23.144C50.4312 23.5293 51.3719 23.722 52.4599 23.722C53.3212 23.6993 54.0805 23.5067 54.7379 23.144C55.3952 22.7587 55.7239 22.1467 55.7239 21.308C55.7239 20.5373 55.3839 19.948 54.7039 19.54C54.0465 19.132 53.0719 18.758 51.7799 18.418C50.5105 18.078 49.4565 17.7267 48.6179 17.364C47.7792 16.9787 47.0652 16.4347 46.4759 15.732C45.9092 15.0067 45.6259 14.066 45.6259 12.91C45.6259 11.89 45.9092 10.9947 46.4759 10.224C47.0652 9.45333 47.8359 8.85267 48.7879 8.422C49.7625 7.99133 50.8165 7.776 51.9499 7.776C53.0379 7.776 54.1145 7.98 55.1799 8.388C56.2679 8.796 57.1519 9.41933 57.8319 10.258C58.1039 10.5753 58.2399 10.904 58.2399 11.244C58.2399 11.6067 58.0585 11.958 57.6959 12.298C57.4692 12.502 57.1859 12.604 56.8459 12.604C56.4379 12.604 56.1092 12.468 55.8599 12.196C55.3839 11.652 54.7945 11.2327 54.0919 10.938C53.4119 10.6433 52.6525 10.496 51.8139 10.496C50.9525 10.496 50.2159 10.6773 49.6039 11.04C49.0145 11.38 48.7199 11.9693 48.7199 12.808C48.7425 13.6013 49.0825 14.1907 49.7399 14.576C50.4199 14.9613 51.4512 15.3353 52.8339 15.698C54.0352 16.0153 55.0325 16.3553 55.8259 16.718C56.6192 17.0807 57.2879 17.6247 57.8319 18.35C58.3759 19.0527 58.6479 19.982 58.6479 21.138C58.6479 22.2033 58.3419 23.1327 57.7299 23.926C57.1179 24.6967 56.3132 25.2973 55.3159 25.728C54.3412 26.136 53.2985 26.34 52.1879 26.34C50.7599 26.34 49.4339 26.0907 48.2099 25.592C47.0085 25.0933 45.9885 24.3 45.1499 23.212ZM71.497 7.878C75.4863 7.878 77.481 10.3487 77.481 15.29V24.368C77.481 24.8213 77.3223 25.2067 77.005 25.524C76.7103 25.8413 76.325 26 75.849 26C75.3957 26 75.0103 25.8413 74.693 25.524C74.3983 25.2067 74.251 24.8213 74.251 24.368V15.29C74.251 12.3433 73.0043 10.87 70.511 10.87C69.1737 10.87 68.063 11.3007 67.179 12.162C66.295 13.0007 65.853 14.0433 65.853 15.29V24.368C65.853 24.8213 65.6943 25.2067 65.377 25.524C65.0823 25.8413 64.697 26 64.221 26C63.745 26 63.3597 25.8527 63.065 25.558C62.7703 25.2407 62.623 24.844 62.623 24.368V2.472C62.623 2.01867 62.7703 1.63333 63.065 1.316C63.3823 0.998666 63.7677 0.84 64.221 0.84C64.697 0.84 65.0823 0.998666 65.377 1.316C65.6943 1.63333 65.853 2.01867 65.853 2.472V11.074C66.4197 10.19 67.213 9.442 68.233 8.83C69.253 8.19533 70.341 7.878 71.497 7.878ZM91.5044 7.776C93.0458 7.776 94.4398 8.17267 95.6864 8.966C96.9331 9.75933 97.9078 10.8587 98.6104 12.264C99.3358 13.6693 99.6984 15.256 99.6984 17.024C99.6984 18.792 99.3358 20.39 98.6104 21.818C97.9078 23.246 96.9331 24.3567 95.6864 25.15C94.4398 25.9433 93.0684 26.34 91.5724 26.34C90.3938 26.34 89.2944 26.0793 88.2744 25.558C87.2544 25.0367 86.4271 24.3907 85.7924 23.62V24.606C85.7924 25.0593 85.6338 25.4447 85.3164 25.762C85.0218 26.0793 84.6364 26.238 84.1604 26.238C83.7071 26.238 83.3218 26.0907 83.0044 25.796C82.7098 25.4787 82.5624 25.082 82.5624 24.606V2.472C82.5624 1.996 82.7098 1.61067 83.0044 1.316C83.2991 0.998666 83.6844 0.84 84.1604 0.84C84.6364 0.84 85.0218 0.998666 85.3164 1.316C85.6338 1.63333 85.7924 2.01867 85.7924 2.472V10.768C86.3364 9.952 87.1298 9.24933 88.1724 8.66C89.2151 8.07067 90.3258 7.776 91.5044 7.776ZM91.1304 23.348C92.1731 23.348 93.1138 23.076 93.9524 22.532C94.7911 21.9653 95.4371 21.206 95.8904 20.254C96.3664 19.2793 96.6044 18.2027 96.6044 17.024C96.6044 15.8453 96.3664 14.78 95.8904 13.828C95.4371 12.876 94.7911 12.128 93.9524 11.584C93.1138 11.04 92.1731 10.768 91.1304 10.768C90.0651 10.768 89.1131 11.04 88.2744 11.584C87.4358 12.128 86.7784 12.876 86.3024 13.828C85.8491 14.7573 85.6224 15.8227 85.6224 17.024C85.6224 18.2253 85.8491 19.302 86.3024 20.254C86.7784 21.206 87.4358 21.9653 88.2744 22.532C89.1131 23.076 90.0651 23.348 91.1304 23.348ZM120.561 17.092C120.561 18.86 120.165 20.4467 119.371 21.852C118.578 23.2573 117.49 24.3567 116.107 25.15C114.747 25.9433 113.24 26.34 111.585 26.34C109.931 26.34 108.412 25.9433 107.029 25.15C105.669 24.3567 104.593 23.2573 103.799 21.852C103.006 20.4467 102.609 18.86 102.609 17.092C102.609 15.324 103.006 13.726 103.799 12.298C104.593 10.87 105.669 9.75933 107.029 8.966C108.412 8.17267 109.931 7.776 111.585 7.776C113.24 7.776 114.747 8.17267 116.107 8.966C117.49 9.75933 118.578 10.87 119.371 12.298C120.165 13.726 120.561 15.324 120.561 17.092ZM117.331 17.092C117.331 15.868 117.071 14.78 116.549 13.828C116.051 12.8533 115.359 12.1053 114.475 11.584C113.614 11.04 112.651 10.768 111.585 10.768C110.52 10.768 109.545 11.04 108.661 11.584C107.8 12.1053 107.109 12.8533 106.587 13.828C106.089 14.78 105.839 15.868 105.839 17.092C105.839 18.2933 106.089 19.37 106.587 20.322C107.109 21.274 107.8 22.022 108.661 22.566C109.545 23.0873 110.52 23.348 111.585 23.348C112.651 23.348 113.614 23.0873 114.475 22.566C115.359 22.022 116.051 21.274 116.549 20.322C117.071 19.37 117.331 18.2933 117.331 17.092ZM139.016 7.946C139.492 7.946 139.878 8.10467 140.172 8.422C140.49 8.71667 140.648 9.11333 140.648 9.612V24.368C140.648 24.8213 140.49 25.2067 140.172 25.524C139.878 25.8413 139.492 26 139.016 26C138.54 26 138.155 25.8527 137.86 25.558C137.566 25.2407 137.418 24.844 137.418 24.368V23.484C136.829 24.2773 136.024 24.9573 135.004 25.524C133.984 26.068 132.885 26.34 131.706 26.34C130.165 26.34 128.76 25.9433 127.49 25.15C126.244 24.3567 125.258 23.2573 124.532 21.852C123.83 20.424 123.478 18.826 123.478 17.058C123.478 15.29 123.83 13.7033 124.532 12.298C125.258 10.87 126.244 9.75933 127.49 8.966C128.737 8.17267 130.108 7.776 131.604 7.776C132.806 7.776 133.916 8.02533 134.936 8.524C135.979 9.02267 136.806 9.65733 137.418 10.428V9.612C137.418 9.136 137.566 8.73933 137.86 8.422C138.155 8.10467 138.54 7.946 139.016 7.946ZM132.08 23.348C133.146 23.348 134.086 23.076 134.902 22.532C135.741 21.988 136.387 21.24 136.84 20.288C137.316 19.336 137.554 18.2593 137.554 17.058C137.554 15.8793 137.316 14.814 136.84 13.862C136.387 12.91 135.741 12.162 134.902 11.618C134.086 11.0513 133.146 10.768 132.08 10.768C131.015 10.768 130.063 11.04 129.224 11.584C128.408 12.128 127.762 12.876 127.286 13.828C126.833 14.78 126.606 15.8567 126.606 17.058C126.606 18.2593 126.833 19.336 127.286 20.288C127.762 21.24 128.408 21.988 129.224 22.532C130.063 23.076 131.015 23.348 132.08 23.348ZM154.575 7.776C155.164 7.776 155.674 7.93467 156.105 8.252C156.536 8.54667 156.751 8.92067 156.751 9.374C156.751 9.918 156.604 10.3373 156.309 10.632C156.037 10.904 155.697 11.04 155.289 11.04C155.085 11.04 154.779 10.972 154.371 10.836C153.895 10.6773 153.521 10.598 153.249 10.598C152.546 10.598 151.855 10.8473 151.175 11.346C150.518 11.822 149.974 12.4907 149.543 13.352C149.135 14.1907 148.931 15.1313 148.931 16.174V24.368C148.931 24.8213 148.772 25.2067 148.455 25.524C148.16 25.8413 147.775 26 147.299 26C146.823 26 146.438 25.8527 146.143 25.558C145.848 25.2407 145.701 24.844 145.701 24.368V9.816C145.701 9.36267 145.848 8.97733 146.143 8.66C146.46 8.34266 146.846 8.184 147.299 8.184C147.775 8.184 148.16 8.34266 148.455 8.66C148.772 8.97733 148.931 9.36267 148.931 9.816V11.55C149.43 10.4393 150.178 9.544 151.175 8.864C152.172 8.16133 153.306 7.79867 154.575 7.776ZM173.682 0.84C174.158 0.84 174.544 0.998666 174.838 1.316C175.156 1.61067 175.314 1.996 175.314 2.472V24.368C175.314 24.8213 175.156 25.2067 174.838 25.524C174.544 25.8413 174.158 26 173.682 26C173.206 26 172.821 25.8527 172.526 25.558C172.232 25.2407 172.084 24.844 172.084 24.368V23.416C171.518 24.232 170.713 24.9233 169.67 25.49C168.65 26.0567 167.551 26.34 166.372 26.34C164.831 26.34 163.437 25.9433 162.19 25.15C160.944 24.3567 159.958 23.2573 159.232 21.852C158.507 20.424 158.144 18.826 158.144 17.058C158.144 15.29 158.496 13.7033 159.198 12.298C159.924 10.87 160.91 9.75933 162.156 8.966C163.403 8.17267 164.774 7.776 166.27 7.776C167.472 7.776 168.582 8.02533 169.602 8.524C170.622 9.02267 171.45 9.66867 172.084 10.462V2.472C172.084 1.996 172.232 1.61067 172.526 1.316C172.821 0.998666 173.206 0.84 173.682 0.84ZM166.746 23.348C167.812 23.348 168.752 23.076 169.568 22.532C170.407 21.988 171.053 21.24 171.506 20.288C171.982 19.336 172.22 18.2593 172.22 17.058C172.22 15.8793 171.982 14.814 171.506 13.862C171.053 12.8873 170.407 12.128 169.568 11.584C168.752 11.04 167.812 10.768 166.746 10.768C165.681 10.768 164.729 11.04 163.89 11.584C163.074 12.128 162.428 12.8873 161.952 13.862C161.499 14.814 161.272 15.8793 161.272 17.058C161.272 18.2593 161.499 19.336 161.952 20.288C162.428 21.24 163.074 21.988 163.89 22.532C164.729 23.076 165.681 23.348 166.746 23.348Z" fill="black" fill-opacity="0.87"/>
</svg>
