<svg width="328" height="56" viewBox="0 0 328 56" fill="none" xmlns="http://www.w3.org/2000/svg">
<g filter="url(#filter0_dd_1_1638)">
<rect x="224" y="4" width="96" height="40" rx="10" fill="white"/>
</g>
<path d="M246.297 19.0469V25.6982C246.297 26.7555 245.957 27.5941 245.278 28.2139C244.604 28.8291 243.704 29.1367 242.578 29.1367C241.439 29.1367 240.534 28.8337 239.864 28.2275C239.194 27.6169 238.859 26.7715 238.859 25.6914V19.0469H240.582V25.7051C240.582 26.3704 240.751 26.8786 241.088 27.2295C241.425 27.5804 241.922 27.7559 242.578 27.7559C243.909 27.7559 244.574 27.054 244.574 25.6504V19.0469H246.297ZM250.629 25.3018V29H248.899V19.0469H252.707C253.819 19.0469 254.701 19.3363 255.353 19.915C256.009 20.4938 256.337 21.2594 256.337 22.2119C256.337 23.1872 256.016 23.946 255.373 24.4883C254.735 25.0306 253.84 25.3018 252.687 25.3018H250.629ZM250.629 23.9141H252.707C253.322 23.9141 253.792 23.7705 254.115 23.4834C254.439 23.1917 254.601 22.7725 254.601 22.2256C254.601 21.6878 254.437 21.2594 254.108 20.9404C253.78 20.6169 253.329 20.4505 252.755 20.4414H250.629V23.9141ZM266.233 27.708C265.873 28.1774 265.374 28.5329 264.736 28.7744C264.098 29.016 263.374 29.1367 262.562 29.1367C261.729 29.1367 260.99 28.9476 260.348 28.5693C259.705 28.1911 259.208 27.651 258.857 26.9492C258.511 26.2428 258.331 25.4202 258.317 24.4814V23.7021C258.317 22.1982 258.677 21.0247 259.397 20.1816C260.118 19.334 261.122 18.9102 262.412 18.9102C263.52 18.9102 264.399 19.1836 265.051 19.7305C265.702 20.2773 266.094 21.0658 266.227 22.0957H264.531C264.34 20.8971 263.645 20.2979 262.446 20.2979C261.672 20.2979 261.081 20.5781 260.676 21.1387C260.275 21.6947 260.067 22.5127 260.054 23.5928V24.3584C260.054 25.4339 260.279 26.2702 260.73 26.8672C261.186 27.4596 261.817 27.7559 262.624 27.7559C263.508 27.7559 264.137 27.5553 264.511 27.1543V25.2061H262.46V23.8936H266.233V27.708ZM272.541 25.165H270.613V29H268.884V19.0469H272.384C273.532 19.0469 274.419 19.3044 275.043 19.8193C275.667 20.3343 275.979 21.0794 275.979 22.0547C275.979 22.7201 275.818 23.2783 275.494 23.7295C275.175 24.1761 274.729 24.5202 274.154 24.7617L276.39 28.9111V29H274.537L272.541 25.165ZM270.613 23.7773H272.391C272.974 23.7773 273.43 23.6315 273.758 23.3398C274.086 23.0436 274.25 22.6403 274.25 22.1299C274.25 21.5967 274.097 21.1842 273.792 20.8926C273.491 20.6009 273.04 20.4505 272.438 20.4414H270.613V23.7773ZM283.941 26.6826H280.086L279.279 29H277.481L281.241 19.0469H282.793L286.56 29H284.755L283.941 26.6826ZM280.571 25.2881H283.456L282.014 21.1592L280.571 25.2881ZM288.444 29V19.0469H291.384C292.263 19.0469 293.043 19.2428 293.722 19.6348C294.405 20.0267 294.934 20.5827 295.308 21.3027C295.681 22.0228 295.868 22.8477 295.868 23.7773V24.2764C295.868 25.2197 295.679 26.0492 295.301 26.7646C294.927 27.4801 294.392 28.0316 293.694 28.4189C293.002 28.8063 292.206 29 291.309 29H288.444ZM290.174 20.4414V27.6191H291.302C292.209 27.6191 292.904 27.3366 293.387 26.7715C293.874 26.2018 294.123 25.3861 294.132 24.3242V23.7705C294.132 22.6904 293.897 21.8656 293.428 21.2959C292.958 20.7262 292.277 20.4414 291.384 20.4414H290.174ZM304.158 24.5566H300.07V27.6191H304.849V29H298.341V19.0469H304.801V20.4414H300.07V23.1895H304.158V24.5566Z" fill="#367BF5"/>
<defs>
<filter id="filter0_dd_1_1638" x="216" y="0" width="112" height="56" filterUnits="userSpaceOnUse" color-interpolation-filters="sRGB">
<feFlood flood-opacity="0" result="BackgroundImageFix"/>
<feColorMatrix in="SourceAlpha" type="matrix" values="0 0 0 0 0 0 0 0 0 0 0 0 0 0 0 0 0 0 127 0" result="hardAlpha"/>
<feOffset dy="2"/>
<feGaussianBlur stdDeviation="2"/>
<feColorMatrix type="matrix" values="0 0 0 0 0.211765 0 0 0 0 0.482353 0 0 0 0 0.960784 0 0 0 0.24 0"/>
<feBlend mode="multiply" in2="BackgroundImageFix" result="effect1_dropShadow_1_1638"/>
<feColorMatrix in="SourceAlpha" type="matrix" values="0 0 0 0 0 0 0 0 0 0 0 0 0 0 0 0 0 0 127 0" result="hardAlpha"/>
<feOffset dy="4"/>
<feGaussianBlur stdDeviation="4"/>
<feColorMatrix type="matrix" values="0 0 0 0 0.211765 0 0 0 0 0.482353 0 0 0 0 0.960784 0 0 0 0.16 0"/>
<feBlend mode="multiply" in2="effect1_dropShadow_1_1638" result="effect2_dropShadow_1_1638"/>
<feBlend mode="normal" in="SourceGraphic" in2="effect2_dropShadow_1_1638" result="shape"/>
</filter>
</defs>
</svg>
