<svg width="112" height="40" viewBox="0 0 112 40" fill="none" xmlns="http://www.w3.org/2000/svg">
<g filter="url(#filter0_dd_1_1857)">
<rect x="8" y="4" width="96" height="40" rx="10" fill="white"/>
</g>
<path d="M30.2969 19.0469V25.6982C30.2969 26.7555 29.9574 27.5941 29.2783 28.2139C28.6038 28.8291 27.7038 29.1367 26.5781 29.1367C25.4388 29.1367 24.5342 28.8337 23.8643 28.2275C23.1943 27.6169 22.8594 26.7715 22.8594 25.6914V19.0469H24.582V25.7051C24.582 26.3704 24.7507 26.8786 25.0879 27.2295C25.4251 27.5804 25.9219 27.7559 26.5781 27.7559C27.9089 27.7559 28.5742 27.054 28.5742 25.6504V19.0469H30.2969ZM34.6289 25.3018V29H32.8994V19.0469H36.707C37.819 19.0469 38.7008 19.3363 39.3525 19.915C40.0088 20.4938 40.3369 21.2594 40.3369 22.2119C40.3369 23.1872 40.0156 23.946 39.373 24.4883C38.735 25.0306 37.8395 25.3018 36.6865 25.3018H34.6289ZM34.6289 23.9141H36.707C37.3223 23.9141 37.7917 23.7705 38.1152 23.4834C38.4388 23.1917 38.6006 22.7725 38.6006 22.2256C38.6006 21.6878 38.4365 21.2594 38.1084 20.9404C37.7803 20.6169 37.3291 20.4505 36.7549 20.4414H34.6289V23.9141ZM50.2334 27.708C49.8734 28.1774 49.3743 28.5329 48.7363 28.7744C48.0983 29.016 47.3737 29.1367 46.5625 29.1367C45.7285 29.1367 44.9902 28.9476 44.3477 28.5693C43.7051 28.1911 43.2083 27.651 42.8574 26.9492C42.5111 26.2428 42.3311 25.4202 42.3174 24.4814V23.7021C42.3174 22.1982 42.6774 21.0247 43.3975 20.1816C44.1175 19.334 45.1224 18.9102 46.4121 18.9102C47.5195 18.9102 48.3991 19.1836 49.0508 19.7305C49.7025 20.2773 50.0944 21.0658 50.2266 22.0957H48.5312C48.3398 20.8971 47.6449 20.2979 46.4463 20.2979C45.6715 20.2979 45.0814 20.5781 44.6758 21.1387C44.2747 21.6947 44.0674 22.5127 44.0537 23.5928V24.3584C44.0537 25.4339 44.2793 26.2702 44.7305 26.8672C45.1862 27.4596 45.8174 27.7559 46.624 27.7559C47.5081 27.7559 48.137 27.5553 48.5107 27.1543V25.2061H46.46V23.8936H50.2334V27.708ZM56.541 25.165H54.6133V29H52.8838V19.0469H56.3838C57.5322 19.0469 58.4186 19.3044 59.043 19.8193C59.6673 20.3343 59.9795 21.0794 59.9795 22.0547C59.9795 22.7201 59.8177 23.2783 59.4941 23.7295C59.1751 24.1761 58.7285 24.5202 58.1543 24.7617L60.3896 28.9111V29H58.5371L56.541 25.165ZM54.6133 23.7773H56.3906C56.974 23.7773 57.4297 23.6315 57.7578 23.3398C58.0859 23.0436 58.25 22.6403 58.25 22.1299C58.25 21.5967 58.0973 21.1842 57.792 20.8926C57.4912 20.6009 57.04 20.4505 56.4385 20.4414H54.6133V23.7773ZM67.9414 26.6826H64.0859L63.2793 29H61.4814L65.2412 19.0469H66.793L70.5596 29H68.7549L67.9414 26.6826ZM64.5713 25.2881H67.4561L66.0137 21.1592L64.5713 25.2881ZM72.4443 29V19.0469H75.3838C76.2633 19.0469 77.0426 19.2428 77.7217 19.6348C78.4053 20.0267 78.9339 20.5827 79.3076 21.3027C79.6813 22.0228 79.8682 22.8477 79.8682 23.7773V24.2764C79.8682 25.2197 79.679 26.0492 79.3008 26.7646C78.9271 27.4801 78.3916 28.0316 77.6943 28.4189C77.0016 28.8063 76.2064 29 75.3086 29H72.4443ZM74.1738 20.4414V27.6191H75.3018C76.2087 27.6191 76.9036 27.3366 77.3867 26.7715C77.8743 26.2018 78.1227 25.3861 78.1318 24.3242V23.7705C78.1318 22.6904 77.8971 21.8656 77.4277 21.2959C76.9583 20.7262 76.277 20.4414 75.3838 20.4414H74.1738ZM88.1582 24.5566H84.0703V27.6191H88.8486V29H82.3408V19.0469H88.8008V20.4414H84.0703V23.1895H88.1582V24.5566Z" fill="#367BF5"/>
<defs>
<filter id="filter0_dd_1_1857" x="0" y="0" width="112" height="56" filterUnits="userSpaceOnUse" color-interpolation-filters="sRGB">
<feFlood flood-opacity="0" result="BackgroundImageFix"/>
<feColorMatrix in="SourceAlpha" type="matrix" values="0 0 0 0 0 0 0 0 0 0 0 0 0 0 0 0 0 0 127 0" result="hardAlpha"/>
<feOffset dy="2"/>
<feGaussianBlur stdDeviation="2"/>
<feColorMatrix type="matrix" values="0 0 0 0 0.211765 0 0 0 0 0.482353 0 0 0 0 0.960784 0 0 0 0.24 0"/>
<feBlend mode="multiply" in2="BackgroundImageFix" result="effect1_dropShadow_1_1857"/>
<feColorMatrix in="SourceAlpha" type="matrix" values="0 0 0 0 0 0 0 0 0 0 0 0 0 0 0 0 0 0 127 0" result="hardAlpha"/>
<feOffset dy="4"/>
<feGaussianBlur stdDeviation="4"/>
<feColorMatrix type="matrix" values="0 0 0 0 0.211765 0 0 0 0 0.482353 0 0 0 0 0.960784 0 0 0 0.16 0"/>
<feBlend mode="multiply" in2="effect1_dropShadow_1_1857" result="effect2_dropShadow_1_1857"/>
<feBlend mode="normal" in="SourceGraphic" in2="effect2_dropShadow_1_1857" result="shape"/>
</filter>
</defs>
</svg>
