<svg width="260" height="56" viewBox="0 0 260 56" fill="none" xmlns="http://www.w3.org/2000/svg">
<path d="M0 10C0 4.47715 4.47715 0 10 0H250C255.523 0 260 4.47715 260 10V46C260 51.5228 255.523 56 250 56H10C4.47716 56 0 51.5228 0 46V10Z" fill="#E2F0F0"/>
<path d="M55.2988 43.6667H53.5176L53.5293 42.7467H55.2988C55.9082 42.7467 56.416 42.6198 56.8223 42.3659C57.2285 42.1081 57.5332 41.7487 57.7363 41.2878C57.9434 40.8229 58.0469 40.2799 58.0469 39.6588V39.1374C58.0469 38.6491 57.9883 38.2155 57.8711 37.8366C57.7539 37.4538 57.582 37.1315 57.3555 36.8698C57.1289 36.6042 56.8516 36.403 56.5234 36.2663C56.1992 36.1295 55.8262 36.0612 55.4043 36.0612H53.4824V35.1354H55.4043C55.9629 35.1354 56.4727 35.2292 56.9336 35.4167C57.3945 35.6003 57.791 35.8678 58.123 36.2194C58.459 36.567 58.7168 36.9889 58.8965 37.485C59.0762 37.9772 59.166 38.5319 59.166 39.1491V39.6588C59.166 40.276 59.0762 40.8327 58.8965 41.3288C58.7168 41.821 58.457 42.2409 58.1172 42.5885C57.7812 42.9362 57.375 43.2038 56.8984 43.3913C56.4258 43.5749 55.8926 43.6667 55.2988 43.6667ZM54.1211 35.1354V43.6667H52.9902V35.1354H54.1211ZM62.2789 37.3268V43.6667H61.1891V37.3268H62.2789ZM61.107 35.6452C61.107 35.4694 61.1598 35.321 61.2652 35.1999C61.3746 35.0788 61.5348 35.0182 61.7457 35.0182C61.9527 35.0182 62.1109 35.0788 62.2203 35.1999C62.3336 35.321 62.3902 35.4694 62.3902 35.6452C62.3902 35.8131 62.3336 35.9577 62.2203 36.0788C62.1109 36.196 61.9527 36.2545 61.7457 36.2545C61.5348 36.2545 61.3746 36.196 61.2652 36.0788C61.1598 35.9577 61.107 35.8131 61.107 35.6452ZM68.1105 41.985C68.1105 41.8288 68.0754 41.6842 68.0051 41.5514C67.9387 41.4147 67.8 41.2917 67.5891 41.1823C67.382 41.069 67.0695 40.9713 66.6516 40.8893C66.3 40.8151 65.9816 40.7272 65.6965 40.6256C65.4152 40.5241 65.175 40.401 64.9758 40.2565C64.7805 40.112 64.6301 39.942 64.5246 39.7467C64.4191 39.5514 64.3664 39.3229 64.3664 39.0612C64.3664 38.8112 64.4211 38.5749 64.5305 38.3522C64.6438 38.1295 64.802 37.9323 65.0051 37.7604C65.2121 37.5885 65.4602 37.4538 65.7492 37.3561C66.0383 37.2585 66.3605 37.2096 66.716 37.2096C67.2238 37.2096 67.6574 37.2995 68.0168 37.4792C68.3762 37.6588 68.6516 37.8991 68.843 38.1999C69.0344 38.4967 69.1301 38.8268 69.1301 39.1901H68.0461C68.0461 39.0143 67.9934 38.8444 67.8879 38.6803C67.7863 38.5124 67.6359 38.3737 67.4367 38.2643C67.2414 38.1549 67.0012 38.1003 66.716 38.1003C66.4152 38.1003 66.1711 38.1471 65.9836 38.2409C65.8 38.3307 65.6652 38.446 65.5793 38.5866C65.4973 38.7272 65.4563 38.8756 65.4563 39.0319C65.4563 39.1491 65.4758 39.2545 65.5148 39.3483C65.5578 39.4381 65.632 39.5221 65.7375 39.6003C65.843 39.6745 65.9914 39.7448 66.1828 39.8112C66.3742 39.8776 66.6184 39.944 66.9152 40.0104C67.4348 40.1276 67.8625 40.2682 68.1984 40.4323C68.5344 40.5963 68.7844 40.7975 68.9484 41.0358C69.1125 41.2741 69.1945 41.5631 69.1945 41.903C69.1945 42.1803 69.1359 42.4342 69.0188 42.6647C68.9055 42.8952 68.7395 43.0944 68.5207 43.2624C68.3059 43.4264 68.048 43.5553 67.7473 43.6491C67.4504 43.7389 67.1164 43.7838 66.7453 43.7838C66.1867 43.7838 65.7141 43.6842 65.3273 43.485C64.9406 43.2858 64.6477 43.028 64.4484 42.7116C64.2492 42.3952 64.1496 42.0612 64.1496 41.7096H65.2395C65.2551 42.0065 65.341 42.2428 65.4973 42.4186C65.6535 42.5905 65.8449 42.7135 66.0715 42.7878C66.298 42.8581 66.5227 42.8932 66.7453 42.8932C67.0422 42.8932 67.2902 42.8542 67.4895 42.776C67.6926 42.6979 67.8469 42.5905 67.9523 42.4538C68.0578 42.317 68.1105 42.1608 68.1105 41.985ZM72.1023 38.5456V46.1042H71.0125V37.3268H72.0086L72.1023 38.5456ZM76.3738 40.444V40.567C76.3738 41.028 76.3191 41.4557 76.2098 41.8503C76.1004 42.2409 75.9402 42.5807 75.7293 42.8698C75.5223 43.1588 75.2664 43.3835 74.9617 43.5436C74.657 43.7038 74.3074 43.7838 73.9129 43.7838C73.5105 43.7838 73.1551 43.7174 72.8465 43.5846C72.5379 43.4518 72.2762 43.2585 72.0613 43.0045C71.8465 42.7506 71.6746 42.446 71.5457 42.0905C71.4207 41.735 71.3348 41.3346 71.2879 40.8893V40.2331C71.3348 39.7643 71.4227 39.3444 71.5516 38.9733C71.6805 38.6022 71.8504 38.2858 72.0613 38.0241C72.2762 37.7585 72.5359 37.5573 72.8406 37.4206C73.1453 37.2799 73.4969 37.2096 73.8953 37.2096C74.2938 37.2096 74.6473 37.2878 74.9559 37.444C75.2645 37.5963 75.5242 37.8151 75.7352 38.1003C75.9461 38.3854 76.1043 38.7272 76.2098 39.1256C76.3191 39.5202 76.3738 39.9596 76.3738 40.444ZM75.284 40.567V40.444C75.284 40.1276 75.2508 39.8307 75.1844 39.5534C75.118 39.2721 75.0145 39.026 74.8738 38.8151C74.7371 38.6003 74.5613 38.4323 74.3465 38.3112C74.1316 38.1862 73.8758 38.1237 73.5789 38.1237C73.3055 38.1237 73.0672 38.1706 72.8641 38.2643C72.6648 38.3581 72.4949 38.485 72.3543 38.6452C72.2137 38.8014 72.0984 38.9811 72.0086 39.1842C71.9227 39.3835 71.8582 39.5905 71.8152 39.8053V41.3229C71.8934 41.5963 72.0027 41.8542 72.1434 42.0963C72.284 42.3346 72.4715 42.528 72.7059 42.6764C72.9402 42.821 73.2352 42.8932 73.5906 42.8932C73.8836 42.8932 74.1355 42.8327 74.3465 42.7116C74.5613 42.5866 74.7371 42.4167 74.8738 42.2018C75.0145 41.987 75.118 41.7409 75.1844 41.4635C75.2508 41.1823 75.284 40.8835 75.284 40.567ZM79.3344 34.6667V43.6667H78.2445V34.6667H79.3344ZM85.2129 42.5827V39.319C85.2129 39.069 85.1621 38.8522 85.0605 38.6686C84.9629 38.4811 84.8145 38.3366 84.6152 38.235C84.416 38.1335 84.1699 38.0827 83.877 38.0827C83.6035 38.0827 83.3633 38.1295 83.1562 38.2233C82.9531 38.317 82.793 38.4401 82.6758 38.5924C82.5625 38.7448 82.5059 38.9088 82.5059 39.0846H81.4219C81.4219 38.8581 81.4805 38.6335 81.5977 38.4108C81.7148 38.1881 81.8828 37.987 82.1016 37.8073C82.3242 37.6237 82.5898 37.4792 82.8984 37.3737C83.2109 37.2643 83.5586 37.2096 83.9414 37.2096C84.4023 37.2096 84.8086 37.2878 85.1602 37.444C85.5156 37.6003 85.793 37.8366 85.9922 38.153C86.1953 38.4655 86.2969 38.8581 86.2969 39.3307V42.2838C86.2969 42.4948 86.3145 42.7194 86.3496 42.9577C86.3887 43.196 86.4453 43.401 86.5195 43.5729V43.6667H85.3887C85.334 43.5417 85.291 43.3756 85.2598 43.1686C85.2285 42.9577 85.2129 42.7624 85.2129 42.5827ZM85.4004 39.8229L85.4121 40.5846H84.3164C84.0078 40.5846 83.7324 40.61 83.4902 40.6608C83.248 40.7077 83.0449 40.7799 82.8809 40.8776C82.7168 40.9753 82.5918 41.0983 82.5059 41.2467C82.4199 41.3913 82.377 41.5612 82.377 41.7565C82.377 41.9557 82.4219 42.1374 82.5117 42.3014C82.6016 42.4655 82.7363 42.5963 82.916 42.694C83.0996 42.7878 83.3242 42.8346 83.5898 42.8346C83.9219 42.8346 84.2148 42.7643 84.4688 42.6237C84.7227 42.4831 84.9238 42.3112 85.0723 42.1081C85.2246 41.9049 85.3066 41.7077 85.3184 41.5163L85.7812 42.0378C85.7539 42.2018 85.6797 42.3835 85.5586 42.5827C85.4375 42.7819 85.2754 42.9733 85.0723 43.1569C84.873 43.3366 84.6348 43.487 84.3574 43.6081C84.084 43.7253 83.7754 43.7838 83.4316 43.7838C83.002 43.7838 82.625 43.6999 82.3008 43.5319C81.9805 43.3639 81.7305 43.1393 81.5508 42.8581C81.375 42.5729 81.2871 42.2545 81.2871 41.903C81.2871 41.5631 81.3535 41.2643 81.4863 41.0065C81.6191 40.7448 81.8105 40.528 82.0605 40.3561C82.3105 40.1803 82.6113 40.0475 82.9629 39.9577C83.3145 39.8678 83.707 39.8229 84.1406 39.8229H85.4004ZM90.0895 43.0104L91.8531 37.3268H93.0133L90.4703 44.6452C90.4117 44.8014 90.3336 44.9694 90.2359 45.1491C90.1422 45.3327 90.0211 45.5065 89.8727 45.6706C89.7242 45.8346 89.5445 45.9674 89.3336 46.069C89.1266 46.1745 88.8785 46.2272 88.5895 46.2272C88.5035 46.2272 88.3941 46.2155 88.2613 46.192C88.1285 46.1686 88.0348 46.1491 87.9801 46.1335L87.9742 45.2545C88.0055 45.2585 88.0543 45.2624 88.1207 45.2663C88.191 45.2741 88.2398 45.278 88.2672 45.278C88.5133 45.278 88.7223 45.2448 88.8941 45.1784C89.066 45.1159 89.2105 45.0085 89.3277 44.8561C89.4488 44.7077 89.5523 44.5026 89.6383 44.2409L90.0895 43.0104ZM88.7945 37.3268L90.441 42.2487L90.7223 43.3913L89.943 43.7897L87.6109 37.3268H88.7945ZM101.507 42.5827V39.319C101.507 39.069 101.456 38.8522 101.354 38.6686C101.257 38.4811 101.108 38.3366 100.909 38.235C100.71 38.1335 100.464 38.0827 100.171 38.0827C99.8973 38.0827 99.657 38.1295 99.45 38.2233C99.2469 38.317 99.0867 38.4401 98.9695 38.5924C98.8563 38.7448 98.7996 38.9088 98.7996 39.0846H97.7156C97.7156 38.8581 97.7742 38.6335 97.8914 38.4108C98.0086 38.1881 98.1766 37.987 98.3953 37.8073C98.618 37.6237 98.8836 37.4792 99.1922 37.3737C99.5047 37.2643 99.8523 37.2096 100.235 37.2096C100.696 37.2096 101.102 37.2878 101.454 37.444C101.809 37.6003 102.087 37.8366 102.286 38.153C102.489 38.4655 102.591 38.8581 102.591 39.3307V42.2838C102.591 42.4948 102.608 42.7194 102.643 42.9577C102.682 43.196 102.739 43.401 102.813 43.5729V43.6667H101.682C101.628 43.5417 101.585 43.3756 101.554 43.1686C101.522 42.9577 101.507 42.7624 101.507 42.5827ZM101.694 39.8229L101.706 40.5846H100.61C100.302 40.5846 100.026 40.61 99.784 40.6608C99.5418 40.7077 99.3387 40.7799 99.1746 40.8776C99.0105 40.9753 98.8855 41.0983 98.7996 41.2467C98.7137 41.3913 98.6707 41.5612 98.6707 41.7565C98.6707 41.9557 98.7156 42.1374 98.8055 42.3014C98.8953 42.4655 99.0301 42.5963 99.2098 42.694C99.3934 42.7878 99.618 42.8346 99.8836 42.8346C100.216 42.8346 100.509 42.7643 100.763 42.6237C101.016 42.4831 101.218 42.3112 101.366 42.1081C101.518 41.9049 101.6 41.7077 101.612 41.5163L102.075 42.0378C102.048 42.2018 101.973 42.3835 101.852 42.5827C101.731 42.7819 101.569 42.9733 101.366 43.1569C101.167 43.3366 100.929 43.487 100.651 43.6081C100.378 43.7253 100.069 43.7838 99.7254 43.7838C99.2957 43.7838 98.9188 43.6999 98.5945 43.5319C98.2742 43.3639 98.0242 43.1393 97.8445 42.8581C97.6688 42.5729 97.5809 42.2545 97.5809 41.903C97.5809 41.5631 97.6473 41.2643 97.7801 41.0065C97.9129 40.7448 98.1043 40.528 98.3543 40.3561C98.6043 40.1803 98.9051 40.0475 99.2566 39.9577C99.6082 39.8678 100.001 39.8229 100.434 39.8229H101.694ZM105.873 34.6667V43.6667H104.784V34.6667H105.873ZM109.191 34.6667V43.6667H108.102V34.6667H109.191ZM118.704 42.4362V34.6667H119.794V43.6667H118.798L118.704 42.4362ZM114.439 40.567V40.444C114.439 39.9596 114.497 39.5202 114.614 39.1256C114.736 38.7272 114.905 38.3854 115.124 38.1003C115.347 37.8151 115.611 37.5963 115.915 37.444C116.224 37.2878 116.568 37.2096 116.946 37.2096C117.345 37.2096 117.693 37.2799 117.989 37.4206C118.29 37.5573 118.544 37.7585 118.751 38.0241C118.962 38.2858 119.128 38.6022 119.249 38.9733C119.37 39.3444 119.454 39.7643 119.501 40.2331V40.7721C119.458 41.237 119.374 41.6549 119.249 42.026C119.128 42.3971 118.962 42.7135 118.751 42.9753C118.544 43.237 118.29 43.4381 117.989 43.5788C117.689 43.7155 117.337 43.7838 116.935 43.7838C116.564 43.7838 116.224 43.7038 115.915 43.5436C115.611 43.3835 115.347 43.1588 115.124 42.8698C114.905 42.5807 114.736 42.2409 114.614 41.8503C114.497 41.4557 114.439 41.028 114.439 40.567ZM115.529 40.444V40.567C115.529 40.8835 115.56 41.1803 115.622 41.4577C115.689 41.735 115.79 41.9792 115.927 42.1901C116.064 42.401 116.237 42.567 116.448 42.6881C116.659 42.8053 116.911 42.8639 117.204 42.8639C117.564 42.8639 117.859 42.7878 118.089 42.6354C118.323 42.4831 118.511 42.2819 118.652 42.0319C118.792 41.7819 118.902 41.5104 118.98 41.2174V39.8053C118.933 39.5905 118.864 39.3835 118.775 39.1842C118.689 38.9811 118.575 38.8014 118.435 38.6452C118.298 38.485 118.128 38.3581 117.925 38.2643C117.726 38.1706 117.489 38.1237 117.216 38.1237C116.919 38.1237 116.663 38.1862 116.448 38.3112C116.237 38.4323 116.064 38.6003 115.927 38.8151C115.79 39.026 115.689 39.2721 115.622 39.5534C115.56 39.8307 115.529 40.1276 115.529 40.444ZM125.62 42.5827V39.319C125.62 39.069 125.569 38.8522 125.468 38.6686C125.37 38.4811 125.221 38.3366 125.022 38.235C124.823 38.1335 124.577 38.0827 124.284 38.0827C124.011 38.0827 123.77 38.1295 123.563 38.2233C123.36 38.317 123.2 38.4401 123.083 38.5924C122.97 38.7448 122.913 38.9088 122.913 39.0846H121.829C121.829 38.8581 121.887 38.6335 122.005 38.4108C122.122 38.1881 122.29 37.987 122.509 37.8073C122.731 37.6237 122.997 37.4792 123.305 37.3737C123.618 37.2643 123.966 37.2096 124.348 37.2096C124.809 37.2096 125.216 37.2878 125.567 37.444C125.923 37.6003 126.2 37.8366 126.399 38.153C126.602 38.4655 126.704 38.8581 126.704 39.3307V42.2838C126.704 42.4948 126.721 42.7194 126.757 42.9577C126.796 43.196 126.852 43.401 126.927 43.5729V43.6667H125.796C125.741 43.5417 125.698 43.3756 125.667 43.1686C125.636 42.9577 125.62 42.7624 125.62 42.5827ZM125.807 39.8229L125.819 40.5846H124.723C124.415 40.5846 124.139 40.61 123.897 40.6608C123.655 40.7077 123.452 40.7799 123.288 40.8776C123.124 40.9753 122.999 41.0983 122.913 41.2467C122.827 41.3913 122.784 41.5612 122.784 41.7565C122.784 41.9557 122.829 42.1374 122.919 42.3014C123.009 42.4655 123.143 42.5963 123.323 42.694C123.507 42.7878 123.731 42.8346 123.997 42.8346C124.329 42.8346 124.622 42.7643 124.876 42.6237C125.13 42.4831 125.331 42.3112 125.479 42.1081C125.632 41.9049 125.714 41.7077 125.725 41.5163L126.188 42.0378C126.161 42.2018 126.087 42.3835 125.966 42.5827C125.845 42.7819 125.682 42.9733 125.479 43.1569C125.28 43.3366 125.042 43.487 124.764 43.6081C124.491 43.7253 124.182 43.7838 123.839 43.7838C123.409 43.7838 123.032 43.6999 122.708 43.5319C122.387 43.3639 122.137 43.1393 121.958 42.8581C121.782 42.5729 121.694 42.2545 121.694 41.903C121.694 41.5631 121.761 41.2643 121.893 41.0065C122.026 40.7448 122.218 40.528 122.468 40.3561C122.718 40.1803 123.018 40.0475 123.37 39.9577C123.721 39.8678 124.114 39.8229 124.548 39.8229H125.807ZM131.463 37.3268V38.1588H128.036V37.3268H131.463ZM129.196 35.7858H130.28V42.0963C130.28 42.3112 130.313 42.4733 130.379 42.5827C130.446 42.692 130.532 42.7643 130.637 42.7995C130.743 42.8346 130.856 42.8522 130.977 42.8522C131.067 42.8522 131.161 42.8444 131.258 42.8288C131.36 42.8092 131.436 42.7936 131.487 42.7819L131.493 43.6667C131.407 43.694 131.293 43.7194 131.153 43.7428C131.016 43.7702 130.85 43.7838 130.655 43.7838C130.389 43.7838 130.145 43.7311 129.922 43.6256C129.7 43.5202 129.522 43.3444 129.389 43.0983C129.26 42.8483 129.196 42.5124 129.196 42.0905V35.7858ZM136.873 42.5827V39.319C136.873 39.069 136.822 38.8522 136.721 38.6686C136.623 38.4811 136.475 38.3366 136.275 38.235C136.076 38.1335 135.83 38.0827 135.537 38.0827C135.264 38.0827 135.023 38.1295 134.816 38.2233C134.613 38.317 134.453 38.4401 134.336 38.5924C134.223 38.7448 134.166 38.9088 134.166 39.0846H133.082C133.082 38.8581 133.141 38.6335 133.258 38.4108C133.375 38.1881 133.543 37.987 133.762 37.8073C133.984 37.6237 134.25 37.4792 134.559 37.3737C134.871 37.2643 135.219 37.2096 135.602 37.2096C136.062 37.2096 136.469 37.2878 136.82 37.444C137.176 37.6003 137.453 37.8366 137.652 38.153C137.855 38.4655 137.957 38.8581 137.957 39.3307V42.2838C137.957 42.4948 137.975 42.7194 138.01 42.9577C138.049 43.196 138.105 43.401 138.18 43.5729V43.6667H137.049C136.994 43.5417 136.951 43.3756 136.92 43.1686C136.889 42.9577 136.873 42.7624 136.873 42.5827ZM137.061 39.8229L137.072 40.5846H135.977C135.668 40.5846 135.393 40.61 135.15 40.6608C134.908 40.7077 134.705 40.7799 134.541 40.8776C134.377 40.9753 134.252 41.0983 134.166 41.2467C134.08 41.3913 134.037 41.5612 134.037 41.7565C134.037 41.9557 134.082 42.1374 134.172 42.3014C134.262 42.4655 134.396 42.5963 134.576 42.694C134.76 42.7878 134.984 42.8346 135.25 42.8346C135.582 42.8346 135.875 42.7643 136.129 42.6237C136.383 42.4831 136.584 42.3112 136.732 42.1081C136.885 41.9049 136.967 41.7077 136.979 41.5163L137.441 42.0378C137.414 42.2018 137.34 42.3835 137.219 42.5827C137.098 42.7819 136.936 42.9733 136.732 43.1569C136.533 43.3366 136.295 43.487 136.018 43.6081C135.744 43.7253 135.436 43.7838 135.092 43.7838C134.662 43.7838 134.285 43.6999 133.961 43.5319C133.641 43.3639 133.391 43.1393 133.211 42.8581C133.035 42.5729 132.947 42.2545 132.947 41.903C132.947 41.5631 133.014 41.2643 133.146 41.0065C133.279 40.7448 133.471 40.528 133.721 40.3561C133.971 40.1803 134.271 40.0475 134.623 39.9577C134.975 39.8678 135.367 39.8229 135.801 39.8229H137.061Z" fill="#5E6366"/>
<path d="M57.28 13.464L53.52 22.616C53.4773 22.744 53.4027 22.8453 53.296 22.92C53.1893 22.9947 53.0773 23.032 52.96 23.032C52.7573 23.032 52.608 22.9787 52.512 22.872C52.416 22.7653 52.368 22.6373 52.368 22.488C52.3573 22.4133 52.368 22.3333 52.4 22.248L56.544 12.168C56.5973 12.0187 56.6773 11.912 56.784 11.848C56.9013 11.7733 57.0293 11.7413 57.168 11.752C57.3067 11.752 57.4293 11.7893 57.536 11.864C57.6533 11.9387 57.7333 12.04 57.776 12.168L61.904 22.152C61.936 22.2373 61.952 22.3227 61.952 22.408C61.952 22.6 61.888 22.7547 61.76 22.872C61.632 22.9787 61.488 23.032 61.328 23.032C61.2 23.032 61.0827 22.9947 60.976 22.92C60.8693 22.8453 60.7893 22.7387 60.736 22.6L56.928 13.448L57.28 13.464ZM54.32 20.008L54.864 18.76H59.616L59.856 20.008H54.32ZM65.3289 22.344C65.3289 22.5253 65.2649 22.68 65.1369 22.808C65.0089 22.936 64.8542 23 64.6729 23C64.4915 23 64.3422 22.936 64.2249 22.808C64.1075 22.68 64.0489 22.5253 64.0489 22.344V11.8C64.0489 11.6187 64.1075 11.4693 64.2249 11.352C64.3529 11.224 64.5075 11.16 64.6889 11.16C64.8809 11.16 65.0355 11.224 65.1529 11.352C65.2702 11.4693 65.3289 11.6187 65.3289 11.8V22.344ZM69.6595 22.344C69.6595 22.5253 69.5955 22.68 69.4675 22.808C69.3395 22.936 69.1848 23 69.0035 23C68.8222 23 68.6728 22.936 68.5555 22.808C68.4382 22.68 68.3795 22.5253 68.3795 22.344V11.8C68.3795 11.6187 68.4382 11.4693 68.5555 11.352C68.6835 11.224 68.8382 11.16 69.0195 11.16C69.2115 11.16 69.3662 11.224 69.4835 11.352C69.6008 11.4693 69.6595 11.6187 69.6595 11.8V22.344ZM84.2444 11.16C84.4257 11.16 84.575 11.224 84.6924 11.352C84.8204 11.4693 84.8844 11.6187 84.8844 11.8V22.344C84.8844 22.5253 84.8204 22.68 84.6924 22.808C84.575 22.936 84.4257 23 84.2444 23C84.0524 23 83.8977 22.936 83.7804 22.808C83.663 22.68 83.6044 22.5253 83.6044 22.344V20.824L83.9084 20.712C83.9084 20.968 83.8284 21.24 83.6684 21.528C83.5084 21.8053 83.2897 22.0667 83.0124 22.312C82.735 22.5573 82.4044 22.76 82.0204 22.92C81.647 23.08 81.2417 23.16 80.8044 23.16C80.0897 23.16 79.439 22.9733 78.8524 22.6C78.2764 22.2267 77.8177 21.7147 77.4764 21.064C77.1457 20.4133 76.9804 19.672 76.9804 18.84C76.9804 17.9973 77.1457 17.2507 77.4764 16.6C77.8177 15.9493 78.2764 15.4427 78.8524 15.08C79.4284 14.7067 80.0684 14.52 80.7724 14.52C81.2204 14.52 81.6417 14.5947 82.0364 14.744C82.431 14.8933 82.7724 15.096 83.0604 15.352C83.359 15.608 83.5937 15.8907 83.7644 16.2C83.935 16.5093 84.0204 16.8187 84.0204 17.128L83.6044 17.032V11.8C83.6044 11.6187 83.663 11.4693 83.7804 11.352C83.8977 11.224 84.0524 11.16 84.2444 11.16ZM80.9484 21.976C81.4817 21.976 81.951 21.8427 82.3564 21.576C82.7724 21.2987 83.0924 20.9253 83.3164 20.456C83.551 19.976 83.6684 19.4373 83.6684 18.84C83.6684 18.232 83.551 17.6933 83.3164 17.224C83.0924 16.7547 82.7724 16.3867 82.3564 16.12C81.951 15.8427 81.4817 15.704 80.9484 15.704C80.4257 15.704 79.9564 15.8427 79.5404 16.12C79.135 16.3867 78.815 16.7547 78.5804 17.224C78.3457 17.6933 78.2284 18.232 78.2284 18.84C78.2284 19.4267 78.3457 19.96 78.5804 20.44C78.815 20.9093 79.135 21.2827 79.5404 21.56C79.9564 21.8373 80.4257 21.976 80.9484 21.976ZM94.5125 14.648C94.6938 14.648 94.8432 14.712 94.9605 14.84C95.0885 14.9573 95.1525 15.1067 95.1525 15.288V22.344C95.1525 22.5253 95.0885 22.68 94.9605 22.808C94.8432 22.936 94.6938 23 94.5125 23C94.3205 23 94.1658 22.936 94.0485 22.808C93.9312 22.68 93.8725 22.5253 93.8725 22.344V20.824L94.1765 20.792C94.1765 21.0267 94.0965 21.2827 93.9365 21.56C93.7765 21.8373 93.5578 22.0987 93.2805 22.344C93.0032 22.5787 92.6725 22.776 92.2885 22.936C91.9152 23.0853 91.5098 23.16 91.0725 23.16C90.3472 23.16 89.6965 22.9733 89.1205 22.6C88.5445 22.216 88.0858 21.6987 87.7445 21.048C87.4138 20.3973 87.2485 19.656 87.2485 18.824C87.2485 17.9813 87.4138 17.24 87.7445 16.6C88.0858 15.9493 88.5445 15.4427 89.1205 15.08C89.6965 14.7067 90.3365 14.52 91.0405 14.52C91.4992 14.52 91.9258 14.5947 92.3205 14.744C92.7152 14.8933 93.0565 15.096 93.3445 15.352C93.6432 15.608 93.8725 15.8907 94.0325 16.2C94.2032 16.5093 94.2885 16.8187 94.2885 17.128L93.8725 17.032V15.288C93.8725 15.1067 93.9312 14.9573 94.0485 14.84C94.1658 14.712 94.3205 14.648 94.5125 14.648ZM91.2165 21.976C91.7498 21.976 92.2192 21.8373 92.6245 21.56C93.0405 21.2827 93.3605 20.9093 93.5845 20.44C93.8192 19.96 93.9365 19.4213 93.9365 18.824C93.9365 18.2373 93.8192 17.7093 93.5845 17.24C93.3605 16.76 93.0405 16.3867 92.6245 16.12C92.2192 15.8427 91.7498 15.704 91.2165 15.704C90.6938 15.704 90.2245 15.8373 89.8085 16.104C89.4032 16.3707 89.0832 16.7387 88.8485 17.208C88.6138 17.6773 88.4965 18.216 88.4965 18.824C88.4965 19.4213 88.6085 19.96 88.8325 20.44C89.0672 20.9093 89.3872 21.2827 89.7925 21.56C90.2085 21.8373 90.6832 21.976 91.2165 21.976ZM97.6446 14.776H101.405C101.575 14.776 101.714 14.8347 101.821 14.952C101.938 15.0693 101.997 15.208 101.997 15.368C101.997 15.5387 101.938 15.6827 101.821 15.8C101.714 15.9067 101.575 15.96 101.405 15.96H97.6446C97.4846 15.96 97.346 15.9013 97.2286 15.784C97.1113 15.6667 97.0526 15.5227 97.0526 15.352C97.0526 15.192 97.1113 15.0587 97.2286 14.952C97.346 14.8347 97.4846 14.776 97.6446 14.776ZM99.3246 12.6C99.506 12.6 99.6553 12.664 99.7726 12.792C99.89 12.9093 99.9486 13.0587 99.9486 13.24V20.968C99.9486 21.224 99.986 21.416 100.061 21.544C100.135 21.672 100.231 21.7627 100.349 21.816C100.477 21.8587 100.599 21.88 100.717 21.88C100.823 21.88 100.914 21.864 100.989 21.832C101.074 21.7893 101.17 21.768 101.277 21.768C101.383 21.768 101.479 21.8213 101.565 21.928C101.661 22.024 101.709 22.152 101.709 22.312C101.709 22.504 101.597 22.6693 101.373 22.808C101.149 22.936 100.898 23 100.621 23C100.471 23 100.285 22.9893 100.061 22.968C99.8473 22.9467 99.634 22.8773 99.4206 22.76C99.2073 22.6427 99.026 22.4507 98.8766 22.184C98.738 21.9067 98.6686 21.5227 98.6686 21.032V13.24C98.6686 13.0587 98.7326 12.9093 98.8606 12.792C98.9886 12.664 99.1433 12.6 99.3246 12.6ZM111.033 14.648C111.214 14.648 111.364 14.712 111.481 14.84C111.609 14.9573 111.673 15.1067 111.673 15.288V22.344C111.673 22.5253 111.609 22.68 111.481 22.808C111.364 22.936 111.214 23 111.033 23C110.841 23 110.686 22.936 110.569 22.808C110.452 22.68 110.393 22.5253 110.393 22.344V20.824L110.697 20.792C110.697 21.0267 110.617 21.2827 110.457 21.56C110.297 21.8373 110.078 22.0987 109.801 22.344C109.524 22.5787 109.193 22.776 108.809 22.936C108.436 23.0853 108.03 23.16 107.593 23.16C106.868 23.16 106.217 22.9733 105.641 22.6C105.065 22.216 104.606 21.6987 104.265 21.048C103.934 20.3973 103.769 19.656 103.769 18.824C103.769 17.9813 103.934 17.24 104.265 16.6C104.606 15.9493 105.065 15.4427 105.641 15.08C106.217 14.7067 106.857 14.52 107.561 14.52C108.02 14.52 108.446 14.5947 108.841 14.744C109.236 14.8933 109.577 15.096 109.865 15.352C110.164 15.608 110.393 15.8907 110.553 16.2C110.724 16.5093 110.809 16.8187 110.809 17.128L110.393 17.032V15.288C110.393 15.1067 110.452 14.9573 110.569 14.84C110.686 14.712 110.841 14.648 111.033 14.648ZM107.737 21.976C108.27 21.976 108.74 21.8373 109.145 21.56C109.561 21.2827 109.881 20.9093 110.105 20.44C110.34 19.96 110.457 19.4213 110.457 18.824C110.457 18.2373 110.34 17.7093 110.105 17.24C109.881 16.76 109.561 16.3867 109.145 16.12C108.74 15.8427 108.27 15.704 107.737 15.704C107.214 15.704 106.745 15.8373 106.329 16.104C105.924 16.3707 105.604 16.7387 105.369 17.208C105.134 17.6773 105.017 18.216 105.017 18.824C105.017 19.4213 105.129 19.96 105.353 20.44C105.588 20.9093 105.908 21.2827 106.313 21.56C106.729 21.8373 107.204 21.976 107.737 21.976Z" fill="black" fill-opacity="0.87"/>
<path d="M32 19H20V23H32V19ZM33 28C32.7348 28 32.4804 27.8946 32.2929 27.7071C32.1054 27.5196 32 27.2652 32 27C32 26.7348 32.1054 26.4804 32.2929 26.2929C32.4804 26.1054 32.7348 26 33 26C33.2652 26 33.5196 26.1054 33.7071 26.2929C33.8946 26.4804 34 26.7348 34 27C34 27.2652 33.8946 27.5196 33.7071 27.7071C33.5196 27.8946 33.2652 28 33 28ZM30 35H22V30H30V35ZM33 24H19C18.2044 24 17.4413 24.3161 16.8787 24.8787C16.3161 25.4413 16 26.2044 16 27V33H20V37H32V33H36V27C36 26.2044 35.6839 25.4413 35.1213 24.8787C34.5587 24.3161 33.7956 24 33 24Z"/>
</svg>
