<svg width="99" height="56" viewBox="0 0 99 56" fill="none" xmlns="http://www.w3.org/2000/svg">
<g clip-path="url(#clip0_1436_184)">
<rect width="99" height="56" fill="white"/>
<path d="M98 56.5H98.5V56V5C98.5 2.51472 96.4853 0.5 94 0.5H5C2.51472 0.5 0.5 2.51472 0.5 5V56V56.5H1H98Z" stroke="#C6CACC"/>
<path d="M27.6944 30.6979H22.9287L21.8584 33.6667H20.3116L24.6553 22.2917H25.9678L30.3194 33.6667H28.7803L27.6944 30.6979ZM23.3819 29.4635H27.2491L25.3116 24.1432L23.3819 29.4635ZM33.4312 25.2135L33.4781 26.276C34.124 25.4635 34.9677 25.0573 36.0094 25.0573C37.7958 25.0573 38.6969 26.0651 38.7125 28.0807V33.6667H37.2672V28.0729C37.262 27.4635 37.1214 27.013 36.8453 26.7214C36.5745 26.4297 36.15 26.2839 35.5719 26.2839C35.1031 26.2839 34.6917 26.4089 34.3375 26.6589C33.9833 26.9089 33.7073 27.237 33.5094 27.6432V33.6667H32.0641V25.2135H33.4312ZM46.5509 33.6667C46.4676 33.5 46.3999 33.2031 46.3478 32.776C45.6759 33.474 44.8739 33.8229 43.9416 33.8229C43.1082 33.8229 42.4233 33.5885 41.8869 33.1198C41.3556 32.6458 41.09 32.0469 41.09 31.3229C41.09 30.4427 41.4233 29.7604 42.09 29.276C42.7619 28.7865 43.7046 28.5417 44.9181 28.5417H46.3244V27.8776C46.3244 27.3724 46.1733 26.9714 45.8712 26.6745C45.5692 26.3724 45.1239 26.2214 44.5353 26.2214C44.0197 26.2214 43.5874 26.3516 43.2384 26.612C42.8895 26.8724 42.715 27.1875 42.715 27.5573H41.2619C41.2619 27.1354 41.4103 26.7292 41.7072 26.3385C42.0093 25.9427 42.4155 25.6302 42.9259 25.401C43.4416 25.1719 44.0067 25.0573 44.6212 25.0573C45.5952 25.0573 46.3582 25.3021 46.9103 25.7917C47.4624 26.276 47.7489 26.9453 47.7697 27.7995V31.6901C47.7697 32.4661 47.8686 33.0833 48.0666 33.5417V33.6667H46.5509ZM44.1525 32.5651C44.6056 32.5651 45.0353 32.4479 45.4416 32.2135C45.8478 31.9792 46.1421 31.6745 46.3244 31.2995V29.5651H45.1916C43.4207 29.5651 42.5353 30.0833 42.5353 31.1198C42.5353 31.5729 42.6864 31.9271 42.9884 32.1823C43.2905 32.4375 43.6785 32.5651 44.1525 32.5651ZM52.0456 33.6667H50.6003V21.6667H52.0456V33.6667ZM57.5716 31.5495L59.5403 25.2135H61.0872L57.6887 34.9714C57.1627 36.3776 56.3268 37.0807 55.1809 37.0807L54.9075 37.0573L54.3684 36.9557V35.7839L54.7591 35.8151C55.2486 35.8151 55.6289 35.7161 55.8997 35.5182C56.1757 35.3203 56.4023 34.9583 56.5794 34.4323L56.8997 33.5729L53.8841 25.2135H55.4622L57.5716 31.5495ZM64.1834 32.487H69.1287V33.6667H62.4178V32.6042L67.0819 26.4089H62.4881V25.2135H68.8944V26.237L64.1834 32.487ZM74.5844 33.8229C73.4385 33.8229 72.5062 33.4479 71.7875 32.6979C71.0687 31.9427 70.7094 30.9349 70.7094 29.6745V29.4089C70.7094 28.5703 70.8682 27.8229 71.1859 27.1667C71.5089 26.5052 71.9568 25.9896 72.5297 25.6198C73.1078 25.2448 73.7328 25.0573 74.4047 25.0573C75.5036 25.0573 76.3578 25.4193 76.9672 26.1432C77.5766 26.8672 77.8812 27.9036 77.8812 29.2526V29.8542H72.1547C72.1755 30.6875 72.4177 31.362 72.8812 31.8776C73.35 32.388 73.9437 32.6432 74.6625 32.6432C75.1729 32.6432 75.6052 32.5391 75.9594 32.3307C76.3135 32.1224 76.6234 31.8464 76.8891 31.5026L77.7719 32.1901C77.0635 33.2786 76.001 33.8229 74.5844 33.8229ZM74.4047 26.2448C73.8214 26.2448 73.3318 26.4583 72.9359 26.8854C72.5401 27.3073 72.2953 27.901 72.2016 28.6667H76.4359V28.5573C76.3943 27.8229 76.1964 27.2552 75.8422 26.8542C75.488 26.4479 75.0089 26.2448 74.4047 26.2448Z" fill="black" fill-opacity="0.87"/>
</g>
<defs>
<clipPath id="clip0_1436_184">
<rect width="99" height="56" fill="white"/>
</clipPath>
</defs>
</svg>
