<svg width="260" height="104" viewBox="0 0 260 104" fill="white" xmlns="http://www.w3.org/2000/svg">
<g filter="url(#filter0_dd_1_1847)">
<rect x="23.2836" y="8" width="213" height="56" rx="28" fill="white"/>
</g>
<path d="M59.2836 36.8H56.0836V40H54.4836V36.8H51.2836V35.2H54.4836V32H56.0836V35.2H59.2836V36.8ZM55.2836 28C54.233 28 53.1927 28.2069 52.2221 28.609C51.2515 29.011 50.3696 29.6003 49.6267 30.3431C48.1264 31.8434 47.2836 33.8783 47.2836 36C47.2836 38.1217 48.1264 40.1566 49.6267 41.6569C50.3696 42.3997 51.2515 42.989 52.2221 43.391C53.1927 43.7931 54.233 44 55.2836 44C57.4053 44 59.4401 43.1571 60.9404 41.6569C62.4407 40.1566 63.2836 38.1217 63.2836 36C63.2836 34.9494 63.0767 33.9091 62.6746 32.9385C62.2726 31.9679 61.6833 31.086 60.9404 30.3431C60.1976 29.6003 59.3157 29.011 58.3451 28.609C57.3744 28.2069 56.3342 28 55.2836 28Z" fill="#367BF5"/>
<path d="M90.9236 29.1533C91.2436 29.3267 91.4036 29.5933 91.4036 29.9533C91.4036 30.1933 91.3236 30.4133 91.1636 30.6133C91.0036 30.8267 90.7836 30.9333 90.5036 30.9333C90.3169 30.9333 90.1369 30.8867 89.9636 30.7933C89.1369 30.3267 88.2436 30.0933 87.2836 30.0933C86.2836 30.0933 85.3969 30.3133 84.6236 30.7533C83.8636 31.1933 83.2703 31.8133 82.8436 32.6133C82.4169 33.4 82.2036 34.3067 82.2036 35.3333C82.2036 36.44 82.4236 37.3933 82.8636 38.1933C83.3036 38.9933 83.9103 39.6067 84.6836 40.0333C85.4569 40.4467 86.3236 40.6533 87.2836 40.6533C88.2703 40.6533 89.1636 40.4133 89.9636 39.9333C90.1236 39.8533 90.2969 39.8133 90.4836 39.8133C90.7769 39.8133 91.0103 39.9267 91.1836 40.1533C91.3436 40.3533 91.4236 40.5667 91.4236 40.7933C91.4236 40.9533 91.3769 41.1067 91.2836 41.2533C91.2036 41.3867 91.0903 41.4933 90.9436 41.5733C90.4236 41.8667 89.8369 42.1 89.1836 42.2733C88.5436 42.4467 87.9103 42.5333 87.2836 42.5333C85.9903 42.5333 84.7969 42.2467 83.7036 41.6733C82.6236 41.1 81.7569 40.2667 81.1036 39.1733C80.4636 38.08 80.1436 36.8 80.1436 35.3333C80.1436 33.9867 80.4503 32.7733 81.0636 31.6933C81.6903 30.6 82.5436 29.7467 83.6236 29.1333C84.7169 28.5067 85.9369 28.1933 87.2836 28.1933C88.5769 28.1933 89.7903 28.5133 90.9236 29.1533ZM98.8275 31.6133C99.1742 31.6133 99.4742 31.7067 99.7275 31.8933C99.9808 32.0667 100.107 32.2867 100.107 32.5533C100.107 32.8733 100.021 33.12 99.8475 33.2933C99.6875 33.4533 99.4875 33.5333 99.2475 33.5333C99.1275 33.5333 98.9475 33.4933 98.7075 33.4133C98.4275 33.32 98.2075 33.2733 98.0475 33.2733C97.6342 33.2733 97.2275 33.42 96.8275 33.7133C96.4408 33.9933 96.1208 34.3867 95.8675 34.8933C95.6275 35.3867 95.5075 35.94 95.5075 36.5533V41.3733C95.5075 41.64 95.4142 41.8667 95.2275 42.0533C95.0542 42.24 94.8275 42.3333 94.5475 42.3333C94.2675 42.3333 94.0408 42.2467 93.8675 42.0733C93.6942 41.8867 93.6075 41.6533 93.6075 41.3733V32.8133C93.6075 32.5467 93.6942 32.32 93.8675 32.1333C94.0542 31.9467 94.2808 31.8533 94.5475 31.8533C94.8275 31.8533 95.0542 31.9467 95.2275 32.1333C95.4142 32.32 95.5075 32.5467 95.5075 32.8133V33.8333C95.8008 33.18 96.2408 32.6533 96.8275 32.2533C97.4142 31.84 98.0808 31.6267 98.8275 31.6133ZM110.77 36.6933C110.757 36.9333 110.657 37.14 110.47 37.3133C110.283 37.4733 110.063 37.5533 109.81 37.5533H102.77C102.863 38.5267 103.23 39.3067 103.87 39.8933C104.523 40.48 105.317 40.7733 106.25 40.7733C106.89 40.7733 107.41 40.68 107.81 40.4933C108.21 40.3067 108.563 40.0667 108.87 39.7733C109.07 39.6533 109.263 39.5933 109.45 39.5933C109.677 39.5933 109.863 39.6733 110.01 39.8333C110.17 39.9933 110.25 40.18 110.25 40.3933C110.25 40.6733 110.117 40.9267 109.85 41.1533C109.463 41.54 108.95 41.8667 108.31 42.1333C107.67 42.4 107.017 42.5333 106.35 42.5333C105.27 42.5333 104.317 42.3067 103.49 41.8533C102.677 41.4 102.043 40.7667 101.59 39.9533C101.15 39.14 100.93 38.22 100.93 37.1933C100.93 36.0733 101.157 35.0933 101.61 34.2533C102.077 33.4 102.683 32.7467 103.43 32.2933C104.19 31.84 105.003 31.6133 105.87 31.6133C106.723 31.6133 107.523 31.8333 108.27 32.2733C109.017 32.7133 109.617 33.32 110.07 34.0933C110.523 34.8667 110.757 35.7333 110.77 36.6933ZM105.87 33.3733C105.123 33.3733 104.477 33.5867 103.93 34.0133C103.383 34.4267 103.023 35.0733 102.85 35.9533H108.75V35.7933C108.683 35.0867 108.363 34.5067 107.79 34.0533C107.23 33.6 106.59 33.3733 105.87 33.3733ZM121.704 31.7133C121.984 31.7133 122.211 31.8067 122.384 31.9933C122.571 32.1667 122.664 32.4 122.664 32.6933V41.3733C122.664 41.64 122.571 41.8667 122.384 42.0533C122.211 42.24 121.984 42.3333 121.704 42.3333C121.424 42.3333 121.198 42.2467 121.024 42.0733C120.851 41.8867 120.764 41.6533 120.764 41.3733V40.8533C120.418 41.32 119.944 41.72 119.344 42.0533C118.744 42.3733 118.098 42.5333 117.404 42.5333C116.498 42.5333 115.671 42.3 114.924 41.8333C114.191 41.3667 113.611 40.72 113.184 39.8933C112.771 39.0533 112.564 38.1133 112.564 37.0733C112.564 36.0333 112.771 35.1 113.184 34.2733C113.611 33.4333 114.191 32.78 114.924 32.3133C115.658 31.8467 116.464 31.6133 117.344 31.6133C118.051 31.6133 118.704 31.76 119.304 32.0533C119.918 32.3467 120.404 32.72 120.764 33.1733V32.6933C120.764 32.4133 120.851 32.18 121.024 31.9933C121.198 31.8067 121.424 31.7133 121.704 31.7133ZM117.624 40.7733C118.251 40.7733 118.804 40.6133 119.284 40.2933C119.778 39.9733 120.158 39.5333 120.424 38.9733C120.704 38.4133 120.844 37.78 120.844 37.0733C120.844 36.38 120.704 35.7533 120.424 35.1933C120.158 34.6333 119.778 34.1933 119.284 33.8733C118.804 33.54 118.251 33.3733 117.624 33.3733C116.998 33.3733 116.438 33.5333 115.944 33.8533C115.464 34.1733 115.084 34.6133 114.804 35.1733C114.538 35.7333 114.404 36.3667 114.404 37.0733C114.404 37.78 114.538 38.4133 114.804 38.9733C115.084 39.5333 115.464 39.9733 115.944 40.2933C116.438 40.6133 116.998 40.7733 117.624 40.7733ZM128.48 33.7133V39.6733C128.48 40.34 128.78 40.6733 129.38 40.6733C129.473 40.6733 129.6 40.6533 129.76 40.6133C129.92 40.56 130.046 40.5333 130.14 40.5333C130.313 40.5333 130.46 40.6067 130.58 40.7533C130.7 40.9 130.76 41.0867 130.76 41.3133C130.76 41.5933 130.6 41.8333 130.28 42.0333C129.96 42.2333 129.6 42.3333 129.2 42.3333C128.76 42.3333 128.353 42.2867 127.98 42.1933C127.62 42.1 127.293 41.8667 127 41.4933C126.72 41.1067 126.58 40.5267 126.58 39.7533V33.7133H125.42C125.166 33.7133 124.953 33.6333 124.78 33.4733C124.62 33.3 124.54 33.0867 124.54 32.8333C124.54 32.58 124.62 32.3733 124.78 32.2133C124.953 32.0533 125.166 31.9733 125.42 31.9733H126.58V30.2933C126.58 30.0267 126.666 29.8 126.84 29.6133C127.026 29.4267 127.26 29.3333 127.54 29.3333C127.806 29.3333 128.026 29.4267 128.2 29.6133C128.386 29.8 128.48 30.0267 128.48 30.2933V31.9733H130.14C130.393 31.9733 130.6 32.06 130.76 32.2333C130.933 32.3933 131.02 32.6 131.02 32.8533C131.02 33.1067 130.933 33.3133 130.76 33.4733C130.6 33.6333 130.393 33.7133 130.14 33.7133H128.48ZM142.49 36.6933C142.476 36.9333 142.376 37.14 142.19 37.3133C142.003 37.4733 141.783 37.5533 141.53 37.5533H134.49C134.583 38.5267 134.95 39.3067 135.59 39.8933C136.243 40.48 137.036 40.7733 137.97 40.7733C138.61 40.7733 139.13 40.68 139.53 40.4933C139.93 40.3067 140.283 40.0667 140.59 39.7733C140.79 39.6533 140.983 39.5933 141.17 39.5933C141.396 39.5933 141.583 39.6733 141.73 39.8333C141.89 39.9933 141.97 40.18 141.97 40.3933C141.97 40.6733 141.836 40.9267 141.57 41.1533C141.183 41.54 140.67 41.8667 140.03 42.1333C139.39 42.4 138.736 42.5333 138.07 42.5333C136.99 42.5333 136.036 42.3067 135.21 41.8533C134.396 41.4 133.763 40.7667 133.31 39.9533C132.87 39.14 132.65 38.22 132.65 37.1933C132.65 36.0733 132.876 35.0933 133.33 34.2533C133.796 33.4 134.403 32.7467 135.15 32.2933C135.91 31.84 136.723 31.6133 137.59 31.6133C138.443 31.6133 139.243 31.8333 139.99 32.2733C140.736 32.7133 141.336 33.32 141.79 34.0933C142.243 34.8667 142.476 35.7333 142.49 36.6933ZM137.59 33.3733C136.843 33.3733 136.196 33.5867 135.65 34.0133C135.103 34.4267 134.743 35.0733 134.57 35.9533H140.47V35.7933C140.403 35.0867 140.083 34.5067 139.51 34.0533C138.95 33.6 138.31 33.3733 137.59 33.3733ZM155.883 31.6133C158.283 31.6133 159.483 33.0533 159.483 35.9333V41.3733C159.483 41.64 159.389 41.8667 159.203 42.0533C159.029 42.24 158.803 42.3333 158.523 42.3333C158.256 42.3333 158.029 42.24 157.843 42.0533C157.669 41.8667 157.583 41.64 157.583 41.3733V35.9533C157.583 35.1667 157.403 34.54 157.043 34.0733C156.683 33.6067 156.096 33.3733 155.283 33.3733C154.749 33.3733 154.263 33.4933 153.823 33.7333C153.396 33.96 153.056 34.2733 152.803 34.6733C152.563 35.06 152.443 35.4867 152.443 35.9533V41.3733C152.443 41.64 152.349 41.8667 152.163 42.0533C151.989 42.24 151.763 42.3333 151.483 42.3333C151.203 42.3333 150.976 42.2467 150.803 42.0733C150.629 41.8867 150.543 41.6533 150.543 41.3733V32.8133C150.543 32.5467 150.629 32.32 150.803 32.1333C150.989 31.9467 151.216 31.8533 151.483 31.8533C151.763 31.8533 151.989 31.9467 152.163 32.1333C152.349 32.32 152.443 32.5467 152.443 32.8133V33.5133C152.789 32.98 153.269 32.5333 153.883 32.1733C154.509 31.8 155.176 31.6133 155.883 31.6133ZM171.67 36.6933C171.657 36.9333 171.557 37.14 171.37 37.3133C171.183 37.4733 170.963 37.5533 170.71 37.5533H163.67C163.763 38.5267 164.13 39.3067 164.77 39.8933C165.423 40.48 166.217 40.7733 167.15 40.7733C167.79 40.7733 168.31 40.68 168.71 40.4933C169.11 40.3067 169.463 40.0667 169.77 39.7733C169.97 39.6533 170.163 39.5933 170.35 39.5933C170.577 39.5933 170.763 39.6733 170.91 39.8333C171.07 39.9933 171.15 40.18 171.15 40.3933C171.15 40.6733 171.017 40.9267 170.75 41.1533C170.363 41.54 169.85 41.8667 169.21 42.1333C168.57 42.4 167.917 42.5333 167.25 42.5333C166.17 42.5333 165.217 42.3067 164.39 41.8533C163.577 41.4 162.943 40.7667 162.49 39.9533C162.05 39.14 161.83 38.22 161.83 37.1933C161.83 36.0733 162.057 35.0933 162.51 34.2533C162.977 33.4 163.583 32.7467 164.33 32.2933C165.09 31.84 165.903 31.6133 166.77 31.6133C167.623 31.6133 168.423 31.8333 169.17 32.2733C169.917 32.7133 170.517 33.32 170.97 34.0933C171.423 34.8667 171.657 35.7333 171.67 36.6933ZM166.77 33.3733C166.023 33.3733 165.377 33.5867 164.83 34.0133C164.283 34.4267 163.923 35.0733 163.75 35.9533H169.65V35.7933C169.583 35.0867 169.263 34.5067 168.69 34.0533C168.13 33.6 167.49 33.3733 166.77 33.3733ZM186.266 31.7533C186.52 31.7533 186.733 31.8467 186.906 32.0333C187.093 32.2067 187.186 32.4333 187.186 32.7133C187.186 32.8067 187.16 32.9333 187.106 33.0933L184.046 41.7333C183.966 41.9467 183.833 42.1067 183.646 42.2133C183.46 42.32 183.26 42.36 183.046 42.3333C182.686 42.3067 182.413 42.1067 182.226 41.7333L180.146 36.2933L178.226 41.7333C178.146 41.92 178.033 42.0667 177.886 42.1733C177.74 42.2667 177.58 42.32 177.406 42.3333C177.206 42.36 177.006 42.32 176.806 42.2133C176.62 42.0933 176.493 41.9333 176.426 41.7333L173.326 33.0933C173.286 32.9733 173.266 32.8467 173.266 32.7133C173.266 32.4467 173.353 32.22 173.526 32.0333C173.7 31.8467 173.926 31.7533 174.206 31.7533C174.66 31.7533 174.953 31.9533 175.086 32.3533L177.466 39.0933L179.366 34.1133C179.526 33.7133 179.82 33.5133 180.246 33.5133C180.646 33.5133 180.92 33.7133 181.066 34.1133L183.006 39.0133L185.346 32.3533C185.493 31.9533 185.8 31.7533 186.266 31.7533Z" fill="#367BF5"/>
<defs>
<filter id="filter0_dd_1_1847" x="-0.716415" y="0" width="261" height="104" filterUnits="userSpaceOnUse" color-interpolation-filters="sRGB">
<feFlood flood-opacity="0" result="BackgroundImageFix"/>
<feColorMatrix in="SourceAlpha" type="matrix" values="0 0 0 0 0 0 0 0 0 0 0 0 0 0 0 0 0 0 127 0" result="hardAlpha"/>
<feOffset dy="6"/>
<feGaussianBlur stdDeviation="6"/>
<feColorMatrix type="matrix" values="0 0 0 0 0.211765 0 0 0 0 0.482353 0 0 0 0 0.960784 0 0 0 0.16 0"/>
<feBlend mode="multiply" in2="BackgroundImageFix" result="effect1_dropShadow_1_1847"/>
<feColorMatrix in="SourceAlpha" type="matrix" values="0 0 0 0 0 0 0 0 0 0 0 0 0 0 0 0 0 0 127 0" result="hardAlpha"/>
<feOffset dy="16"/>
<feGaussianBlur stdDeviation="12"/>
<feColorMatrix type="matrix" values="0 0 0 0 0.211765 0 0 0 0 0.482353 0 0 0 0 0.960784 0 0 0 0.16 0"/>
<feBlend mode="multiply" in2="effect1_dropShadow_1_1847" result="effect2_dropShadow_1_1847"/>
<feBlend mode="normal" in="SourceGraphic" in2="effect2_dropShadow_1_1847" result="shape"/>
</filter>
</defs>
</svg>
