<svg width="153" height="56" viewBox="0 0 153 56" fill="none" xmlns="http://www.w3.org/2000/svg">
<path d="M24.985 22.2917L28.7037 31.5729L32.4225 22.2917H34.3678V33.6667H32.8678V29.237L33.0084 24.4557L29.274 33.6667H28.1256L24.399 24.4792L24.5475 29.237V33.6667H23.0475V22.2917H24.985ZM39.9953 31.5495L41.964 25.2135H43.5109L40.1125 34.9714C39.5864 36.3776 38.7505 37.0807 37.6047 37.0807L37.3312 37.0573L36.7922 36.9557V35.7839L37.1828 35.8151C37.6724 35.8151 38.0526 35.7161 38.3234 35.5182C38.5995 35.3203 38.826 34.9583 39.0031 34.4323L39.3234 33.5729L36.3078 25.2135H37.8859L39.9953 31.5495ZM53.0472 32.6432C53.5628 32.6432 54.0133 32.487 54.3987 32.1745C54.7842 31.862 54.9977 31.4714 55.0394 31.0026H56.4065C56.3805 31.487 56.2138 31.9479 55.9065 32.3854C55.5993 32.8229 55.1878 33.1719 54.6722 33.4323C54.1618 33.6927 53.6201 33.8229 53.0472 33.8229C51.8961 33.8229 50.9795 33.4401 50.2972 32.6745C49.6201 31.9036 49.2815 30.8516 49.2815 29.5182V29.276C49.2815 28.4531 49.4326 27.7214 49.7347 27.0807C50.0368 26.4401 50.469 25.9427 51.0315 25.5885C51.5993 25.2344 52.2685 25.0573 53.0394 25.0573C53.9873 25.0573 54.7737 25.3411 55.3987 25.9089C56.0289 26.4766 56.3649 27.2135 56.4065 28.1198H55.0394C54.9977 27.5729 54.7894 27.125 54.4144 26.776C54.0446 26.4219 53.5862 26.2448 53.0394 26.2448C52.305 26.2448 51.7347 26.5104 51.3284 27.0417C50.9274 27.5677 50.7269 28.3307 50.7269 29.3307V29.6042C50.7269 30.5781 50.9274 31.3281 51.3284 31.8542C51.7295 32.3802 52.3024 32.6432 53.0472 32.6432ZM63.6903 33.6667C63.607 33.5 63.5393 33.2031 63.4872 32.776C62.8153 33.474 62.0132 33.8229 61.0809 33.8229C60.2476 33.8229 59.5627 33.5885 59.0262 33.1198C58.495 32.6458 58.2294 32.0469 58.2294 31.3229C58.2294 30.4427 58.5627 29.7604 59.2294 29.276C59.9012 28.7865 60.8439 28.5417 62.0575 28.5417H63.4637V27.8776C63.4637 27.3724 63.3127 26.9714 63.0106 26.6745C62.7085 26.3724 62.2632 26.2214 61.6747 26.2214C61.159 26.2214 60.7268 26.3516 60.3778 26.612C60.0288 26.8724 59.8544 27.1875 59.8544 27.5573H58.4012C58.4012 27.1354 58.5497 26.7292 58.8465 26.3385C59.1486 25.9427 59.5549 25.6302 60.0653 25.401C60.5809 25.1719 61.146 25.0573 61.7606 25.0573C62.7346 25.0573 63.4976 25.3021 64.0497 25.7917C64.6018 26.276 64.8882 26.9453 64.909 27.7995V31.6901C64.909 32.4661 65.008 33.0833 65.2059 33.5417V33.6667H63.6903ZM61.2919 32.5651C61.745 32.5651 62.1747 32.4479 62.5809 32.2135C62.9872 31.9792 63.2814 31.6745 63.4637 31.2995V29.5651H62.3309C60.5601 29.5651 59.6747 30.0833 59.6747 31.1198C59.6747 31.5729 59.8257 31.9271 60.1278 32.1823C60.4299 32.4375 60.8179 32.5651 61.2919 32.5651ZM68.974 25.2135L69.0131 26.151C69.6329 25.4219 70.4688 25.0573 71.5209 25.0573C72.7032 25.0573 73.5079 25.5104 73.935 26.4167C74.2162 26.0104 74.5808 25.6823 75.0287 25.4323C75.4819 25.1823 76.0157 25.0573 76.6303 25.0573C78.4845 25.0573 79.4272 26.0391 79.4584 28.0026V33.6667H78.0131V28.0885C78.0131 27.4844 77.8751 27.0339 77.599 26.737C77.323 26.4349 76.8595 26.2839 76.2084 26.2839C75.672 26.2839 75.2267 26.4453 74.8725 26.7682C74.5183 27.0859 74.3126 27.5156 74.2553 28.0573V33.6667H72.8022V28.1276C72.8022 26.8984 72.2006 26.2839 70.9975 26.2839C70.0496 26.2839 69.4011 26.6875 69.0522 27.4948V33.6667H67.6069V25.2135H68.974ZM89.2265 29.5339C89.2265 30.8203 88.9323 31.8568 88.3437 32.6432C87.7552 33.4297 86.9583 33.8229 85.9531 33.8229C84.9271 33.8229 84.1198 33.4974 83.5312 32.8464V36.9167H82.0859V25.2135H83.4062L83.4765 26.151C84.0651 25.4219 84.8828 25.0573 85.9297 25.0573C86.9453 25.0573 87.7474 25.4401 88.3359 26.2057C88.9297 26.9714 89.2265 28.0365 89.2265 29.401V29.5339ZM87.7812 29.3698C87.7812 28.4167 87.5781 27.6641 87.1719 27.112C86.7656 26.5599 86.2083 26.2839 85.5 26.2839C84.625 26.2839 83.9687 26.6719 83.5312 27.4479V31.487C83.9635 32.2578 84.625 32.6432 85.5156 32.6432C86.2083 32.6432 86.7578 32.3698 87.164 31.8229C87.5755 31.2708 87.7812 30.4531 87.7812 29.3698ZM96.729 33.6667C96.6457 33.5 96.578 33.2031 96.5259 32.776C95.854 33.474 95.052 33.8229 94.1197 33.8229C93.2863 33.8229 92.6014 33.5885 92.065 33.1198C91.5337 32.6458 91.2681 32.0469 91.2681 31.3229C91.2681 30.4427 91.6014 29.7604 92.2681 29.276C92.94 28.7865 93.8827 28.5417 95.0962 28.5417H96.5025V27.8776C96.5025 27.3724 96.3514 26.9714 96.0494 26.6745C95.7473 26.3724 95.302 26.2214 94.7134 26.2214C94.1978 26.2214 93.7655 26.3516 93.4165 26.612C93.0676 26.8724 92.8931 27.1875 92.8931 27.5573H91.44C91.44 27.1354 91.5884 26.7292 91.8853 26.3385C92.1874 25.9427 92.5936 25.6302 93.104 25.401C93.6197 25.1719 94.1848 25.0573 94.7994 25.0573C95.7733 25.0573 96.5363 25.3021 97.0884 25.7917C97.6405 26.276 97.927 26.9453 97.9478 27.7995V31.6901C97.9478 32.4661 98.0468 33.0833 98.2447 33.5417V33.6667H96.729ZM94.3306 32.5651C94.7837 32.5651 95.2134 32.4479 95.6197 32.2135C96.0259 31.9792 96.3202 31.6745 96.5025 31.2995V29.5651H95.3697C93.5988 29.5651 92.7134 30.0833 92.7134 31.1198C92.7134 31.5729 92.8645 31.9271 93.1665 32.1823C93.4686 32.4375 93.8567 32.5651 94.3306 32.5651ZM102.224 33.6667H100.778V25.2135H102.224V33.6667ZM100.661 22.9714C100.661 22.737 100.732 22.5391 100.872 22.3776C101.018 22.2161 101.232 22.1354 101.513 22.1354C101.794 22.1354 102.008 22.2161 102.153 22.3776C102.299 22.5391 102.372 22.737 102.372 22.9714C102.372 23.2057 102.299 23.401 102.153 23.5573C102.008 23.7135 101.794 23.7917 101.513 23.7917C101.232 23.7917 101.018 23.7135 100.872 23.5573C100.732 23.401 100.661 23.2057 100.661 22.9714ZM104.64 29.3698C104.64 28.0521 104.945 27.0052 105.554 26.2292C106.164 25.4479 106.971 25.0573 107.976 25.0573C109.007 25.0573 109.812 25.4219 110.39 26.151L110.461 25.2135H111.781V33.4635C111.781 34.5573 111.455 35.4193 110.804 36.0495C110.159 36.6797 109.289 36.9948 108.195 36.9948C107.586 36.9948 106.989 36.8646 106.406 36.6042C105.823 36.3437 105.377 35.987 105.07 35.5339L105.82 34.6667C106.44 35.4323 107.198 35.8151 108.093 35.8151C108.797 35.8151 109.343 35.6172 109.734 35.2214C110.13 34.8255 110.328 34.2682 110.328 33.5495V32.8229C109.75 33.4896 108.961 33.8229 107.961 33.8229C106.971 33.8229 106.169 33.4245 105.554 32.6276C104.945 31.8307 104.64 30.7448 104.64 29.3698ZM106.093 29.5339C106.093 30.487 106.289 31.237 106.679 31.7839C107.07 32.3255 107.617 32.5964 108.32 32.5964C109.231 32.5964 109.901 32.1823 110.328 31.3542V27.4948C109.885 26.6875 109.221 26.2839 108.336 26.2839C107.632 26.2839 107.083 26.5573 106.687 27.1042C106.291 27.651 106.093 28.4609 106.093 29.5339ZM115.776 25.2135L115.822 26.276C116.468 25.4635 117.312 25.0573 118.354 25.0573C120.14 25.0573 121.041 26.0651 121.057 28.0807V33.6667H119.612V28.0729C119.606 27.4635 119.466 27.013 119.19 26.7214C118.919 26.4297 118.494 26.2839 117.916 26.2839C117.447 26.2839 117.036 26.4089 116.682 26.6589C116.328 26.9089 116.052 27.237 115.854 27.6432V33.6667H114.408V25.2135H115.776ZM128.598 31.4245C128.598 31.0339 128.45 30.7318 128.153 30.5182C127.861 30.2995 127.348 30.112 126.614 29.9557C125.885 29.7995 125.304 29.612 124.872 29.3932C124.445 29.1745 124.127 28.9141 123.919 28.612C123.716 28.3099 123.614 27.9505 123.614 27.5339C123.614 26.8411 123.906 26.2552 124.489 25.776C125.078 25.2969 125.828 25.0573 126.739 25.0573C127.697 25.0573 128.473 25.3047 129.067 25.7995C129.666 26.2943 129.966 26.9271 129.966 27.6979H128.512C128.512 27.3021 128.343 26.9609 128.005 26.6745C127.671 26.388 127.249 26.2448 126.739 26.2448C126.213 26.2448 125.802 26.3594 125.505 26.5885C125.208 26.8177 125.059 27.1172 125.059 27.487C125.059 27.8359 125.197 28.099 125.473 28.276C125.749 28.4531 126.247 28.6224 126.966 28.7839C127.69 28.9453 128.276 29.138 128.723 29.362C129.171 29.5859 129.502 29.8568 129.716 30.1745C129.934 30.487 130.044 30.8698 130.044 31.3229C130.044 32.0781 129.742 32.6849 129.137 33.1432C128.533 33.5964 127.749 33.8229 126.786 33.8229C126.109 33.8229 125.51 33.7031 124.989 33.4635C124.468 33.224 124.059 32.8906 123.762 32.4635C123.471 32.0312 123.325 31.5651 123.325 31.0651H124.77C124.796 31.5495 124.989 31.9349 125.348 32.2214C125.713 32.5026 126.192 32.6432 126.786 32.6432C127.333 32.6432 127.77 32.5339 128.098 32.3151C128.432 32.0911 128.598 31.7943 128.598 31.4245Z" fill="#5E6366"/>
</svg>
